%TF.GenerationSoftware,KiCad,Pcbnew,7.0.10*%
%TF.CreationDate,2024-03-18T15:21:50-05:00*%
%TF.ProjectId,PCB_R1,5043425f-5231-42e6-9b69-6361645f7063,rev?*%
%TF.SameCoordinates,Original*%
%TF.FileFunction,Copper,L2,Bot*%
%TF.FilePolarity,Positive*%
%FSLAX46Y46*%
G04 Gerber Fmt 4.6, Leading zero omitted, Abs format (unit mm)*
G04 Created by KiCad (PCBNEW 7.0.10) date 2024-03-18 15:21:50*
%MOMM*%
%LPD*%
G01*
G04 APERTURE LIST*
G04 Aperture macros list*
%AMRoundRect*
0 Rectangle with rounded corners*
0 $1 Rounding radius*
0 $2 $3 $4 $5 $6 $7 $8 $9 X,Y pos of 4 corners*
0 Add a 4 corners polygon primitive as box body*
4,1,4,$2,$3,$4,$5,$6,$7,$8,$9,$2,$3,0*
0 Add four circle primitives for the rounded corners*
1,1,$1+$1,$2,$3*
1,1,$1+$1,$4,$5*
1,1,$1+$1,$6,$7*
1,1,$1+$1,$8,$9*
0 Add four rect primitives between the rounded corners*
20,1,$1+$1,$2,$3,$4,$5,0*
20,1,$1+$1,$4,$5,$6,$7,0*
20,1,$1+$1,$6,$7,$8,$9,0*
20,1,$1+$1,$8,$9,$2,$3,0*%
G04 Aperture macros list end*
%TA.AperFunction,ComponentPad*%
%ADD10R,1.700000X1.700000*%
%TD*%
%TA.AperFunction,ComponentPad*%
%ADD11O,1.700000X1.700000*%
%TD*%
%TA.AperFunction,ComponentPad*%
%ADD12RoundRect,0.250000X-0.600000X-0.600000X0.600000X-0.600000X0.600000X0.600000X-0.600000X0.600000X0*%
%TD*%
%TA.AperFunction,ComponentPad*%
%ADD13C,1.700000*%
%TD*%
%TA.AperFunction,ComponentPad*%
%ADD14RoundRect,1.500000X-1.500000X-1.500000X1.500000X-1.500000X1.500000X1.500000X-1.500000X1.500000X0*%
%TD*%
%TA.AperFunction,ComponentPad*%
%ADD15C,6.000000*%
%TD*%
%TA.AperFunction,ViaPad*%
%ADD16C,0.800000*%
%TD*%
%TA.AperFunction,ViaPad*%
%ADD17C,0.600000*%
%TD*%
%TA.AperFunction,Conductor*%
%ADD18C,0.175000*%
%TD*%
%TA.AperFunction,Conductor*%
%ADD19C,0.250000*%
%TD*%
%TA.AperFunction,Conductor*%
%ADD20C,0.200000*%
%TD*%
G04 APERTURE END LIST*
D10*
%TO.P,J9,1,Pin_1*%
%TO.N,+5V*%
X68492000Y-32745586D03*
D11*
%TO.P,J9,2,Pin_2*%
%TO.N,GND*%
X71032000Y-32745586D03*
%TO.P,J9,3,Pin_3*%
%TO.N,/bigmotor*%
X73572000Y-32745586D03*
%TD*%
D10*
%TO.P,J1,1,Pin_1*%
%TO.N,GND*%
X97412000Y-70725586D03*
D11*
%TO.P,J1,2,Pin_2*%
X97412000Y-68185586D03*
%TO.P,J1,3,Pin_3*%
X97412000Y-65645586D03*
%TO.P,J1,4,Pin_4*%
X97412000Y-63105586D03*
%TO.P,J1,5,Pin_5*%
X97412000Y-60565586D03*
%TO.P,J1,6,Pin_6*%
X97412000Y-58025586D03*
%TO.P,J1,7,Pin_7*%
X97412000Y-55485586D03*
%TO.P,J1,8,Pin_8*%
X97412000Y-52945586D03*
%TO.P,J1,9,Pin_9*%
X97412000Y-50405586D03*
%TO.P,J1,10,Pin_10*%
X97412000Y-47865586D03*
%TO.P,J1,11,Pin_11*%
X97412000Y-45325586D03*
%TO.P,J1,12,Pin_12*%
X97412000Y-42785586D03*
%TD*%
D10*
%TO.P,J6,1,Pin_1*%
%TO.N,+5V*%
X64365000Y-41825000D03*
D11*
%TO.P,J6,2,Pin_2*%
X64365000Y-44365000D03*
%TO.P,J6,3,Pin_3*%
X64365000Y-46905000D03*
%TD*%
D10*
%TO.P,J17,1,Pin_1*%
%TO.N,/H10*%
X108817500Y-101094500D03*
D11*
%TO.P,J17,2,Pin_2*%
%TO.N,/H5*%
X108817500Y-98554500D03*
%TO.P,J17,3,Pin_3*%
%TO.N,/H6*%
X108817500Y-96014500D03*
%TD*%
D10*
%TO.P,J11,1,Pin_1*%
%TO.N,+5V*%
X59692000Y-69325586D03*
D11*
%TO.P,J11,2,Pin_2*%
X59692000Y-66785586D03*
%TO.P,J11,3,Pin_3*%
X59692000Y-64245586D03*
%TO.P,J11,4,Pin_4*%
X59692000Y-61705586D03*
%TO.P,J11,5,Pin_5*%
X59692000Y-59165586D03*
%TO.P,J11,6,Pin_6*%
X59692000Y-56625586D03*
%TO.P,J11,7,Pin_7*%
X59692000Y-54085586D03*
%TO.P,J11,8,Pin_8*%
X59692000Y-51545586D03*
%TO.P,J11,9,Pin_9*%
X59692000Y-49005586D03*
%TO.P,J11,10,Pin_10*%
X59692000Y-46465586D03*
%TO.P,J11,11,Pin_11*%
X59692000Y-43925586D03*
%TO.P,J11,12,Pin_12*%
X59692000Y-41385586D03*
%TD*%
D12*
%TO.P,J20,1,VTref*%
%TO.N,Net-(J20-VTref)*%
X96587500Y-81164500D03*
D13*
%TO.P,J20,2,SWDIO/TMS*%
%TO.N,/JTMS{slash}SWDIO*%
X99127500Y-81164500D03*
%TO.P,J20,3,GND*%
%TO.N,GND*%
X96587500Y-83704500D03*
%TO.P,J20,4,SWDCLK/TCK*%
%TO.N,/JTCK{slash}SWCLK*%
X99127500Y-83704500D03*
%TO.P,J20,5,GND*%
%TO.N,GND*%
X96587500Y-86244500D03*
%TO.P,J20,6,SWO/TDO*%
%TO.N,/JTDO{slash}TRACESWO*%
X99127500Y-86244500D03*
%TO.P,J20,7,KEY*%
%TO.N,unconnected-(J20-KEY-Pad7)*%
X96587500Y-88784500D03*
%TO.P,J20,8,NC/TDI*%
%TO.N,/JTDI*%
X99127500Y-88784500D03*
%TO.P,J20,9,GNDDetect*%
%TO.N,GND*%
X96587500Y-91324500D03*
%TO.P,J20,10,~{RESET}*%
%TO.N,/NRST*%
X99127500Y-91324500D03*
%TD*%
D10*
%TO.P,J18,1,Pin_1*%
%TO.N,/H0*%
X113157000Y-113134500D03*
D11*
%TO.P,J18,2,Pin_2*%
%TO.N,/H9*%
X110617000Y-113134500D03*
%TO.P,J18,3,Pin_3*%
%TO.N,/H11*%
X108077000Y-113134500D03*
%TD*%
D10*
%TO.P,J27,1,Pin_1*%
%TO.N,+5V*%
X56052000Y-41335586D03*
D11*
%TO.P,J27,2,Pin_2*%
X56052000Y-43875586D03*
%TO.P,J27,3,Pin_3*%
X56052000Y-46415586D03*
%TO.P,J27,4,Pin_4*%
X56052000Y-48955586D03*
%TO.P,J27,5,Pin_5*%
X56052000Y-51495586D03*
%TO.P,J27,6,Pin_6*%
X56052000Y-54035586D03*
%TO.P,J27,7,Pin_7*%
X56052000Y-56575586D03*
%TO.P,J27,8,Pin_8*%
X56052000Y-59115586D03*
%TO.P,J27,9,Pin_9*%
X56052000Y-61655586D03*
%TO.P,J27,10,Pin_10*%
X56052000Y-64195586D03*
%TO.P,J27,11,Pin_11*%
X56052000Y-66735586D03*
%TO.P,J27,12,Pin_12*%
X56052000Y-69275586D03*
%TD*%
D14*
%TO.P,J2,1,Pin_1*%
%TO.N,+7.5V*%
X76617000Y-75695586D03*
D15*
%TO.P,J2,2,Pin_2*%
%TO.N,GND*%
X83817000Y-75695586D03*
%TD*%
D10*
%TO.P,J5,1,Pin_1*%
%TO.N,+3.3V*%
X63922000Y-68950586D03*
D11*
%TO.P,J5,2,Pin_2*%
X63922000Y-71490586D03*
%TO.P,J5,3,Pin_3*%
X63922000Y-74030586D03*
%TD*%
D10*
%TO.P,J12,1,Pin_1*%
%TO.N,/M2*%
X133970000Y-111912000D03*
D11*
%TO.P,J12,2,Pin_2*%
%TO.N,/M1*%
X131430000Y-111912000D03*
%TO.P,J12,3,Pin_3*%
%TO.N,/M0*%
X128890000Y-111912000D03*
%TD*%
D10*
%TO.P,J16,1,Pin_1*%
%TO.N,/H4*%
X104667500Y-98894500D03*
D11*
%TO.P,J16,2,Pin_2*%
%TO.N,/H8*%
X104667500Y-96354500D03*
%TO.P,J16,3,Pin_3*%
%TO.N,/H7*%
X104667500Y-93814500D03*
%TD*%
D10*
%TO.P,J4,1,Pin_1*%
%TO.N,GND*%
X103807000Y-54660586D03*
D11*
%TO.P,J4,2,Pin_2*%
X103807000Y-57200586D03*
%TO.P,J4,3,Pin_3*%
X103807000Y-59740586D03*
%TD*%
D10*
%TO.P,J28,1,Pin_1*%
%TO.N,GND*%
X93567000Y-42915586D03*
D11*
%TO.P,J28,2,Pin_2*%
X93567000Y-45455586D03*
%TO.P,J28,3,Pin_3*%
X93567000Y-47995586D03*
%TO.P,J28,4,Pin_4*%
X93567000Y-50535586D03*
%TO.P,J28,5,Pin_5*%
X93567000Y-53075586D03*
%TO.P,J28,6,Pin_6*%
X93567000Y-55615586D03*
%TO.P,J28,7,Pin_7*%
X93567000Y-58155586D03*
%TO.P,J28,8,Pin_8*%
X93567000Y-60695586D03*
%TO.P,J28,9,Pin_9*%
X93567000Y-63235586D03*
%TO.P,J28,10,Pin_10*%
X93567000Y-65775586D03*
%TO.P,J28,11,Pin_11*%
X93567000Y-68315586D03*
%TO.P,J28,12,Pin_12*%
X93567000Y-70855586D03*
%TD*%
D10*
%TO.P,J3,1,Pin_1*%
%TO.N,/I2C1_SCL*%
X109287500Y-107994500D03*
D11*
%TO.P,J3,2,Pin_2*%
%TO.N,/I2C1_SDA*%
X111827500Y-107994500D03*
%TO.P,J3,3,Pin_3*%
%TO.N,/Radar_Read*%
X114367500Y-107994500D03*
%TD*%
D10*
%TO.P,J15,1,Pin_1*%
%TO.N,/M11*%
X132187500Y-82864500D03*
D11*
%TO.P,J15,2,Pin_2*%
%TO.N,unconnected-(J15-Pin_2-Pad2)*%
X132187500Y-80324500D03*
%TO.P,J15,3,Pin_3*%
%TO.N,unconnected-(J15-Pin_3-Pad3)*%
X132187500Y-77784500D03*
%TD*%
D10*
%TO.P,J10,1,Pin_1*%
%TO.N,/M10*%
X122707500Y-83324500D03*
D11*
%TO.P,J10,2,Pin_2*%
%TO.N,/M9*%
X125247500Y-83324500D03*
%TO.P,J10,3,Pin_3*%
%TO.N,/M8*%
X127787500Y-83324500D03*
%TD*%
D10*
%TO.P,J14,1,Pin_1*%
%TO.N,unconnected-(J14-Pin_1-Pad1)*%
X145717500Y-97614500D03*
D11*
%TO.P,J14,2,Pin_2*%
%TO.N,/M7*%
X145717500Y-100154500D03*
%TO.P,J14,3,Pin_3*%
%TO.N,/M6*%
X145717500Y-102694500D03*
%TD*%
D10*
%TO.P,J19,1,Pin_1*%
%TO.N,/H3*%
X124206000Y-112903000D03*
D11*
%TO.P,J19,2,Pin_2*%
%TO.N,/H2*%
X121666000Y-112903000D03*
%TO.P,J19,3,Pin_3*%
%TO.N,/H1*%
X119126000Y-112903000D03*
%TD*%
D10*
%TO.P,J7,1,Pin_1*%
%TO.N,+3.3V*%
X129957500Y-92084500D03*
D11*
%TO.P,J7,2,Pin_2*%
X132497500Y-92084500D03*
%TO.P,J7,3,Pin_3*%
%TO.N,BOOT0*%
X129957500Y-89544500D03*
%TO.P,J7,4,Pin_4*%
%TO.N,BOOT1*%
X132497500Y-89544500D03*
%TO.P,J7,5,Pin_5*%
%TO.N,GND*%
X129957500Y-87004500D03*
%TO.P,J7,6,Pin_6*%
X132497500Y-87004500D03*
%TD*%
D10*
%TO.P,J13,1,Pin_1*%
%TO.N,/M5*%
X145542000Y-111379000D03*
D11*
%TO.P,J13,2,Pin_2*%
%TO.N,/M4*%
X143002000Y-111379000D03*
%TO.P,J13,3,Pin_3*%
%TO.N,/M3*%
X140462000Y-111379000D03*
%TD*%
D16*
%TO.N,+3.3V*%
X122552788Y-91061468D03*
D17*
X122224058Y-107224058D03*
X117606140Y-107606140D03*
X117498996Y-105001004D03*
X115051262Y-105001004D03*
X112500000Y-105000000D03*
D16*
%TO.N,GND*%
X122527500Y-92064500D03*
X99557500Y-94494500D03*
X113947500Y-69044500D03*
X119647500Y-74904500D03*
X115797500Y-98074500D03*
X120067500Y-98774500D03*
X120707500Y-91044500D03*
X115227500Y-86024500D03*
X124047500Y-89254500D03*
%TO.N,+3.3V*%
X113592500Y-101624500D03*
X120037500Y-68174500D03*
X116277500Y-91934500D03*
X111967500Y-100014500D03*
X105727500Y-78974500D03*
X99550000Y-104420000D03*
X99577500Y-100354500D03*
%TO.N,/I2C1_SDA*%
X115612500Y-93978056D03*
%TO.N,/I2C1_SCL*%
X114837500Y-92954500D03*
%TO.N,/Radar_Read*%
X114577500Y-97274500D03*
%TO.N,/H10*%
X111927500Y-104134500D03*
%TO.N,/D-*%
X122127500Y-77774500D03*
X117857500Y-76794500D03*
%TO.N,/D+*%
X121377500Y-79304500D03*
X117397500Y-79134500D03*
%TD*%
D18*
%TO.N,+3.3V*%
X122552788Y-91061468D02*
X121679756Y-91934500D01*
D19*
X122089464Y-107606140D02*
X122347802Y-107347802D01*
X117606140Y-107606140D02*
X122089464Y-107606140D01*
X122347802Y-107347802D02*
X122224058Y-107224058D01*
X115051262Y-105001004D02*
X117498996Y-105001004D01*
X117500000Y-105000000D02*
X117498996Y-105001004D01*
X113592500Y-103907500D02*
X112500000Y-105000000D01*
X113592500Y-101624500D02*
X113592500Y-103907500D01*
D18*
X122552788Y-91061468D02*
X122868320Y-91377000D01*
%TO.N,GND*%
X96587500Y-86244500D02*
X95450000Y-87382000D01*
X133137500Y-81554500D02*
X133325000Y-81742000D01*
D19*
X120817500Y-91044500D02*
X120757500Y-90984500D01*
D18*
X116497500Y-98774500D02*
X115797500Y-98074500D01*
X115227500Y-86024500D02*
X113605000Y-87647000D01*
D19*
X119647500Y-74744500D02*
X119647500Y-74904500D01*
X120697500Y-90264500D02*
X120697500Y-90924500D01*
D18*
X95450000Y-87382000D02*
X95450000Y-90187000D01*
D19*
X120707500Y-90934500D02*
X120707500Y-91044500D01*
D18*
X95450000Y-90187000D02*
X96587500Y-91324500D01*
X124227500Y-74904500D02*
X130877500Y-81554500D01*
X130877500Y-81554500D02*
X133137500Y-81554500D01*
X120067500Y-98774500D02*
X116497500Y-98774500D01*
D19*
X124047500Y-89254500D02*
X123037500Y-90264500D01*
D18*
X133325000Y-81742000D02*
X133325000Y-86177000D01*
D19*
X120697500Y-90924500D02*
X120707500Y-90934500D01*
X113947500Y-69044500D02*
X119647500Y-74744500D01*
D18*
X119647500Y-74904500D02*
X124227500Y-74904500D01*
D19*
X123037500Y-90264500D02*
X120697500Y-90264500D01*
D18*
X97990000Y-87647000D02*
X96587500Y-86244500D01*
D19*
X120707500Y-91044500D02*
X120817500Y-91044500D01*
D18*
X133325000Y-86177000D02*
X132497500Y-87004500D01*
X113605000Y-87647000D02*
X97990000Y-87647000D01*
D19*
%TO.N,+3.3V*%
X107852500Y-99729500D02*
X107237500Y-100344500D01*
X107237500Y-100344500D02*
X99807500Y-100344500D01*
X105777500Y-79024500D02*
X105777500Y-79074500D01*
X63922000Y-71490586D02*
X86284414Y-93853000D01*
X111982500Y-100014500D02*
X113592500Y-101624500D01*
D18*
X99550000Y-104420000D02*
X99577500Y-104392500D01*
D19*
X105727500Y-78974500D02*
X105777500Y-79024500D01*
X111967500Y-100014500D02*
X111982500Y-100014500D01*
X99807500Y-100344500D02*
X99577500Y-100354500D01*
X105777500Y-78924500D02*
X105727500Y-78974500D01*
X99577500Y-100354500D02*
X99787500Y-100344500D01*
D18*
X116277500Y-91934500D02*
X121679756Y-91934500D01*
D19*
X111682500Y-99729500D02*
X107852500Y-99729500D01*
D18*
X132785000Y-112765668D02*
X130816168Y-114734500D01*
D19*
X113792195Y-68174500D02*
X105777500Y-76189195D01*
X99787500Y-100344500D02*
X99797500Y-100344500D01*
D18*
X106043832Y-114734500D02*
X99577500Y-108268168D01*
X132497500Y-92084500D02*
X132785000Y-92372000D01*
D19*
X86284414Y-93853000D02*
X93076000Y-93853000D01*
X120037500Y-68174500D02*
X113792195Y-68174500D01*
D18*
X99577500Y-104447500D02*
X99550000Y-104420000D01*
X99577500Y-108268168D02*
X99577500Y-104447500D01*
X132785000Y-92372000D02*
X132785000Y-112765668D01*
D19*
X105777500Y-76189195D02*
X105777500Y-78924500D01*
X111967500Y-100014500D02*
X111682500Y-99729500D01*
X93076000Y-93853000D02*
X99577500Y-100354500D01*
D18*
X130816168Y-114734500D02*
X106043832Y-114734500D01*
D19*
%TO.N,/I2C1_SDA*%
X111827500Y-107994500D02*
X113002500Y-109169500D01*
X117101056Y-93978056D02*
X115612500Y-93978056D01*
X115417500Y-93854500D02*
X115541056Y-93978056D01*
X115158896Y-109169500D02*
X122727500Y-101600896D01*
X122837500Y-99864500D02*
X122197500Y-99224500D01*
X122197500Y-99074500D02*
X117101056Y-93978056D01*
X122727500Y-101280896D02*
X122697500Y-101250896D01*
X122727500Y-101600896D02*
X122727500Y-101280896D01*
X122697500Y-101250896D02*
X122697500Y-101100896D01*
X122657500Y-101060896D02*
X122657500Y-100518104D01*
X122197500Y-99224500D02*
X122197500Y-99074500D01*
X115541056Y-93978056D02*
X115612500Y-93978056D01*
X122657500Y-100518104D02*
X122837500Y-100338104D01*
X122697500Y-101100896D02*
X122657500Y-101060896D01*
X122837500Y-100338104D02*
X122837500Y-99864500D01*
X113002500Y-109169500D02*
X115158896Y-109169500D01*
%TO.N,/I2C1_SCL*%
X120712500Y-109619500D02*
X123287500Y-107044500D01*
X115037500Y-92874500D02*
X114837500Y-92954500D01*
X123287500Y-107044500D02*
X123287500Y-99434500D01*
X114877500Y-92874500D02*
X114957500Y-92874500D01*
X110912500Y-109619500D02*
X120712500Y-109619500D01*
X116727500Y-92874500D02*
X115037500Y-92874500D01*
X114837500Y-92954500D02*
X114877500Y-92874500D01*
X109287500Y-107994500D02*
X110912500Y-109619500D01*
X123287500Y-99434500D02*
X116727500Y-92874500D01*
%TO.N,/Radar_Read*%
X114367500Y-107994500D02*
X114577500Y-97274500D01*
X114367500Y-97204500D02*
X114357500Y-97194500D01*
X114577500Y-97274500D02*
X114367500Y-97204500D01*
%TO.N,/H10*%
X111857500Y-104134500D02*
X108817500Y-101094500D01*
X111927500Y-104134500D02*
X111857500Y-104134500D01*
X111927500Y-104134500D02*
X111927500Y-104204500D01*
D20*
%TO.N,/D-*%
X121107500Y-76794500D02*
X122087500Y-77774500D01*
X122127500Y-77814500D02*
X122147500Y-77834500D01*
X122127500Y-77774500D02*
X122127500Y-77814500D01*
X122087500Y-77774500D02*
X122127500Y-77774500D01*
X117857500Y-76794500D02*
X121107500Y-76794500D01*
%TO.N,/D+*%
X121207500Y-79134500D02*
X121377500Y-79304500D01*
X117397500Y-79134500D02*
X121207500Y-79134500D01*
X121577500Y-79254500D02*
X121427500Y-79254500D01*
X121427500Y-79254500D02*
X121377500Y-79304500D01*
%TD*%
%TA.AperFunction,Conductor*%
%TO.N,GND*%
G36*
X132038007Y-86794656D02*
G01*
X131997500Y-86932611D01*
X131997500Y-87076389D01*
X132038007Y-87214344D01*
X132063814Y-87254500D01*
X130391186Y-87254500D01*
X130416993Y-87214344D01*
X130457500Y-87076389D01*
X130457500Y-86932611D01*
X130416993Y-86794656D01*
X130391186Y-86754500D01*
X132063814Y-86754500D01*
X132038007Y-86794656D01*
G37*
%TD.AperFunction*%
%TA.AperFunction,Conductor*%
G36*
X97942355Y-89451046D02*
G01*
X97959075Y-89470342D01*
X98089001Y-89655896D01*
X98089006Y-89655902D01*
X98256097Y-89822993D01*
X98256103Y-89822998D01*
X98441658Y-89952925D01*
X98485283Y-90007502D01*
X98492477Y-90077000D01*
X98460954Y-90139355D01*
X98441658Y-90156075D01*
X98256097Y-90286005D01*
X98089005Y-90453097D01*
X97958769Y-90639095D01*
X97904192Y-90682720D01*
X97834694Y-90689914D01*
X97772339Y-90658391D01*
X97755619Y-90639095D01*
X97702425Y-90563126D01*
X97702425Y-90563125D01*
X97070576Y-91194975D01*
X97046993Y-91114656D01*
X96969261Y-90993702D01*
X96860600Y-90899548D01*
X96729815Y-90839820D01*
X96720033Y-90838413D01*
X97348873Y-90209573D01*
X97348873Y-90209572D01*
X97272905Y-90156380D01*
X97229280Y-90101804D01*
X97222086Y-90032305D01*
X97253608Y-89969951D01*
X97272899Y-89953234D01*
X97458901Y-89822995D01*
X97625995Y-89655901D01*
X97755925Y-89470342D01*
X97810502Y-89426717D01*
X97880000Y-89419523D01*
X97942355Y-89451046D01*
G37*
%TD.AperFunction*%
%TA.AperFunction,Conductor*%
G36*
X97702425Y-87005873D02*
G01*
X97755619Y-86929905D01*
X97810196Y-86886281D01*
X97879695Y-86879088D01*
X97942049Y-86910610D01*
X97958769Y-86929905D01*
X98089005Y-87115901D01*
X98089006Y-87115902D01*
X98256097Y-87282993D01*
X98256103Y-87282998D01*
X98441658Y-87412925D01*
X98485283Y-87467502D01*
X98492477Y-87537000D01*
X98460954Y-87599355D01*
X98441658Y-87616075D01*
X98256097Y-87746005D01*
X98089005Y-87913097D01*
X97959075Y-88098658D01*
X97904498Y-88142283D01*
X97835000Y-88149477D01*
X97772645Y-88117954D01*
X97755925Y-88098658D01*
X97625994Y-87913097D01*
X97458902Y-87746006D01*
X97458901Y-87746005D01*
X97272905Y-87615769D01*
X97229281Y-87561192D01*
X97222088Y-87491693D01*
X97253610Y-87429339D01*
X97272905Y-87412619D01*
X97348873Y-87359425D01*
X96720033Y-86730586D01*
X96729815Y-86729180D01*
X96860600Y-86669452D01*
X96969261Y-86575298D01*
X97046993Y-86454344D01*
X97070576Y-86374024D01*
X97702425Y-87005873D01*
G37*
%TD.AperFunction*%
%TA.AperFunction,Conductor*%
G36*
X97702425Y-84465873D02*
G01*
X97755619Y-84389905D01*
X97810196Y-84346281D01*
X97879695Y-84339088D01*
X97942049Y-84370610D01*
X97958769Y-84389905D01*
X98089005Y-84575901D01*
X98089006Y-84575902D01*
X98256097Y-84742993D01*
X98256103Y-84742998D01*
X98441658Y-84872925D01*
X98485283Y-84927502D01*
X98492477Y-84997000D01*
X98460954Y-85059355D01*
X98441658Y-85076075D01*
X98256097Y-85206005D01*
X98089005Y-85373097D01*
X97958769Y-85559095D01*
X97904192Y-85602720D01*
X97834694Y-85609914D01*
X97772339Y-85578391D01*
X97755619Y-85559095D01*
X97702425Y-85483126D01*
X97702425Y-85483125D01*
X97070576Y-86114975D01*
X97046993Y-86034656D01*
X96969261Y-85913702D01*
X96860600Y-85819548D01*
X96729815Y-85759820D01*
X96720033Y-85758413D01*
X97348873Y-85129573D01*
X97272469Y-85076076D01*
X97228844Y-85021499D01*
X97221650Y-84952001D01*
X97253172Y-84889646D01*
X97272468Y-84872925D01*
X97348873Y-84819425D01*
X96720033Y-84190586D01*
X96729815Y-84189180D01*
X96860600Y-84129452D01*
X96969261Y-84035298D01*
X97046993Y-83914344D01*
X97070576Y-83834024D01*
X97702425Y-84465873D01*
G37*
%TD.AperFunction*%
%TA.AperFunction,Conductor*%
G36*
X98048220Y-82003279D02*
G01*
X98084983Y-82032266D01*
X98085177Y-82032073D01*
X98086813Y-82033709D01*
X98087854Y-82034530D01*
X98089001Y-82035897D01*
X98256097Y-82202993D01*
X98256103Y-82202998D01*
X98441658Y-82332925D01*
X98485283Y-82387502D01*
X98492477Y-82457000D01*
X98460954Y-82519355D01*
X98441658Y-82536075D01*
X98256097Y-82666005D01*
X98089005Y-82833097D01*
X97958769Y-83019095D01*
X97904192Y-83062720D01*
X97834694Y-83069914D01*
X97772339Y-83038391D01*
X97755619Y-83019095D01*
X97702425Y-82943126D01*
X97702425Y-82943125D01*
X97070576Y-83574975D01*
X97046993Y-83494656D01*
X96969261Y-83373702D01*
X96860600Y-83279548D01*
X96729815Y-83219820D01*
X96720034Y-83218413D01*
X97353289Y-82585158D01*
X97363709Y-82533308D01*
X97412323Y-82483124D01*
X97434461Y-82473296D01*
X97506834Y-82449314D01*
X97656156Y-82357212D01*
X97780212Y-82233156D01*
X97872314Y-82083834D01*
X97875162Y-82075238D01*
X97914929Y-82017794D01*
X97979444Y-81990968D01*
X98048220Y-82003279D01*
G37*
%TD.AperFunction*%
%TA.AperFunction,Conductor*%
G36*
X93817000Y-70420084D02*
G01*
X93709315Y-70370906D01*
X93602763Y-70355586D01*
X93531237Y-70355586D01*
X93424685Y-70370906D01*
X93317000Y-70420084D01*
X93317000Y-68751087D01*
X93424685Y-68800266D01*
X93531237Y-68815586D01*
X93602763Y-68815586D01*
X93709315Y-68800266D01*
X93817000Y-68751087D01*
X93817000Y-70420084D01*
G37*
%TD.AperFunction*%
%TA.AperFunction,Conductor*%
G36*
X93817000Y-67880084D02*
G01*
X93709315Y-67830906D01*
X93602763Y-67815586D01*
X93531237Y-67815586D01*
X93424685Y-67830906D01*
X93317000Y-67880084D01*
X93317000Y-66211087D01*
X93424685Y-66260266D01*
X93531237Y-66275586D01*
X93602763Y-66275586D01*
X93709315Y-66260266D01*
X93817000Y-66211087D01*
X93817000Y-67880084D01*
G37*
%TD.AperFunction*%
%TA.AperFunction,Conductor*%
G36*
X93817000Y-65340084D02*
G01*
X93709315Y-65290906D01*
X93602763Y-65275586D01*
X93531237Y-65275586D01*
X93424685Y-65290906D01*
X93317000Y-65340084D01*
X93317000Y-63671087D01*
X93424685Y-63720266D01*
X93531237Y-63735586D01*
X93602763Y-63735586D01*
X93709315Y-63720266D01*
X93817000Y-63671087D01*
X93817000Y-65340084D01*
G37*
%TD.AperFunction*%
%TA.AperFunction,Conductor*%
G36*
X93817000Y-62800084D02*
G01*
X93709315Y-62750906D01*
X93602763Y-62735586D01*
X93531237Y-62735586D01*
X93424685Y-62750906D01*
X93317000Y-62800084D01*
X93317000Y-61131087D01*
X93424685Y-61180266D01*
X93531237Y-61195586D01*
X93602763Y-61195586D01*
X93709315Y-61180266D01*
X93817000Y-61131087D01*
X93817000Y-62800084D01*
G37*
%TD.AperFunction*%
%TA.AperFunction,Conductor*%
G36*
X93817000Y-60260084D02*
G01*
X93709315Y-60210906D01*
X93602763Y-60195586D01*
X93531237Y-60195586D01*
X93424685Y-60210906D01*
X93317000Y-60260084D01*
X93317000Y-58591087D01*
X93424685Y-58640266D01*
X93531237Y-58655586D01*
X93602763Y-58655586D01*
X93709315Y-58640266D01*
X93817000Y-58591087D01*
X93817000Y-60260084D01*
G37*
%TD.AperFunction*%
%TA.AperFunction,Conductor*%
G36*
X93817000Y-57720084D02*
G01*
X93709315Y-57670906D01*
X93602763Y-57655586D01*
X93531237Y-57655586D01*
X93424685Y-57670906D01*
X93317000Y-57720084D01*
X93317000Y-56051087D01*
X93424685Y-56100266D01*
X93531237Y-56115586D01*
X93602763Y-56115586D01*
X93709315Y-56100266D01*
X93817000Y-56051087D01*
X93817000Y-57720084D01*
G37*
%TD.AperFunction*%
%TA.AperFunction,Conductor*%
G36*
X93817000Y-55180084D02*
G01*
X93709315Y-55130906D01*
X93602763Y-55115586D01*
X93531237Y-55115586D01*
X93424685Y-55130906D01*
X93317000Y-55180084D01*
X93317000Y-53511087D01*
X93424685Y-53560266D01*
X93531237Y-53575586D01*
X93602763Y-53575586D01*
X93709315Y-53560266D01*
X93817000Y-53511087D01*
X93817000Y-55180084D01*
G37*
%TD.AperFunction*%
%TA.AperFunction,Conductor*%
G36*
X93817000Y-52640084D02*
G01*
X93709315Y-52590906D01*
X93602763Y-52575586D01*
X93531237Y-52575586D01*
X93424685Y-52590906D01*
X93317000Y-52640084D01*
X93317000Y-50971087D01*
X93424685Y-51020266D01*
X93531237Y-51035586D01*
X93602763Y-51035586D01*
X93709315Y-51020266D01*
X93817000Y-50971087D01*
X93817000Y-52640084D01*
G37*
%TD.AperFunction*%
%TA.AperFunction,Conductor*%
G36*
X93817000Y-50100084D02*
G01*
X93709315Y-50050906D01*
X93602763Y-50035586D01*
X93531237Y-50035586D01*
X93424685Y-50050906D01*
X93317000Y-50100084D01*
X93317000Y-48431087D01*
X93424685Y-48480266D01*
X93531237Y-48495586D01*
X93602763Y-48495586D01*
X93709315Y-48480266D01*
X93817000Y-48431087D01*
X93817000Y-50100084D01*
G37*
%TD.AperFunction*%
%TA.AperFunction,Conductor*%
G36*
X93817000Y-47560084D02*
G01*
X93709315Y-47510906D01*
X93602763Y-47495586D01*
X93531237Y-47495586D01*
X93424685Y-47510906D01*
X93317000Y-47560084D01*
X93317000Y-45891087D01*
X93424685Y-45940266D01*
X93531237Y-45955586D01*
X93602763Y-45955586D01*
X93709315Y-45940266D01*
X93817000Y-45891087D01*
X93817000Y-47560084D01*
G37*
%TD.AperFunction*%
%TA.AperFunction,Conductor*%
G36*
X93817000Y-45020084D02*
G01*
X93709315Y-44970906D01*
X93602763Y-44955586D01*
X93531237Y-44955586D01*
X93424685Y-44970906D01*
X93317000Y-45020084D01*
X93317000Y-43351087D01*
X93424685Y-43400266D01*
X93531237Y-43415586D01*
X93602763Y-43415586D01*
X93709315Y-43400266D01*
X93817000Y-43351087D01*
X93817000Y-45020084D01*
G37*
%TD.AperFunction*%
%TA.AperFunction,Conductor*%
G36*
X97662000Y-70290084D02*
G01*
X97554315Y-70240906D01*
X97447763Y-70225586D01*
X97376237Y-70225586D01*
X97269685Y-70240906D01*
X97162000Y-70290084D01*
X97162000Y-68621087D01*
X97269685Y-68670266D01*
X97376237Y-68685586D01*
X97447763Y-68685586D01*
X97554315Y-68670266D01*
X97662000Y-68621087D01*
X97662000Y-70290084D01*
G37*
%TD.AperFunction*%
%TA.AperFunction,Conductor*%
G36*
X97662000Y-67750084D02*
G01*
X97554315Y-67700906D01*
X97447763Y-67685586D01*
X97376237Y-67685586D01*
X97269685Y-67700906D01*
X97162000Y-67750084D01*
X97162000Y-66081087D01*
X97269685Y-66130266D01*
X97376237Y-66145586D01*
X97447763Y-66145586D01*
X97554315Y-66130266D01*
X97662000Y-66081087D01*
X97662000Y-67750084D01*
G37*
%TD.AperFunction*%
%TA.AperFunction,Conductor*%
G36*
X97662000Y-65210084D02*
G01*
X97554315Y-65160906D01*
X97447763Y-65145586D01*
X97376237Y-65145586D01*
X97269685Y-65160906D01*
X97162000Y-65210084D01*
X97162000Y-63541087D01*
X97269685Y-63590266D01*
X97376237Y-63605586D01*
X97447763Y-63605586D01*
X97554315Y-63590266D01*
X97662000Y-63541087D01*
X97662000Y-65210084D01*
G37*
%TD.AperFunction*%
%TA.AperFunction,Conductor*%
G36*
X97662000Y-62670084D02*
G01*
X97554315Y-62620906D01*
X97447763Y-62605586D01*
X97376237Y-62605586D01*
X97269685Y-62620906D01*
X97162000Y-62670084D01*
X97162000Y-61001087D01*
X97269685Y-61050266D01*
X97376237Y-61065586D01*
X97447763Y-61065586D01*
X97554315Y-61050266D01*
X97662000Y-61001087D01*
X97662000Y-62670084D01*
G37*
%TD.AperFunction*%
%TA.AperFunction,Conductor*%
G36*
X97662000Y-60130084D02*
G01*
X97554315Y-60080906D01*
X97447763Y-60065586D01*
X97376237Y-60065586D01*
X97269685Y-60080906D01*
X97162000Y-60130084D01*
X97162000Y-58461087D01*
X97269685Y-58510266D01*
X97376237Y-58525586D01*
X97447763Y-58525586D01*
X97554315Y-58510266D01*
X97662000Y-58461087D01*
X97662000Y-60130084D01*
G37*
%TD.AperFunction*%
%TA.AperFunction,Conductor*%
G36*
X97662000Y-57590084D02*
G01*
X97554315Y-57540906D01*
X97447763Y-57525586D01*
X97376237Y-57525586D01*
X97269685Y-57540906D01*
X97162000Y-57590084D01*
X97162000Y-55921087D01*
X97269685Y-55970266D01*
X97376237Y-55985586D01*
X97447763Y-55985586D01*
X97554315Y-55970266D01*
X97662000Y-55921087D01*
X97662000Y-57590084D01*
G37*
%TD.AperFunction*%
%TA.AperFunction,Conductor*%
G36*
X97662000Y-55050084D02*
G01*
X97554315Y-55000906D01*
X97447763Y-54985586D01*
X97376237Y-54985586D01*
X97269685Y-55000906D01*
X97162000Y-55050084D01*
X97162000Y-53381087D01*
X97269685Y-53430266D01*
X97376237Y-53445586D01*
X97447763Y-53445586D01*
X97554315Y-53430266D01*
X97662000Y-53381087D01*
X97662000Y-55050084D01*
G37*
%TD.AperFunction*%
%TA.AperFunction,Conductor*%
G36*
X97662000Y-52510084D02*
G01*
X97554315Y-52460906D01*
X97447763Y-52445586D01*
X97376237Y-52445586D01*
X97269685Y-52460906D01*
X97162000Y-52510084D01*
X97162000Y-50841087D01*
X97269685Y-50890266D01*
X97376237Y-50905586D01*
X97447763Y-50905586D01*
X97554315Y-50890266D01*
X97662000Y-50841087D01*
X97662000Y-52510084D01*
G37*
%TD.AperFunction*%
%TA.AperFunction,Conductor*%
G36*
X97662000Y-49970084D02*
G01*
X97554315Y-49920906D01*
X97447763Y-49905586D01*
X97376237Y-49905586D01*
X97269685Y-49920906D01*
X97162000Y-49970084D01*
X97162000Y-48301087D01*
X97269685Y-48350266D01*
X97376237Y-48365586D01*
X97447763Y-48365586D01*
X97554315Y-48350266D01*
X97662000Y-48301087D01*
X97662000Y-49970084D01*
G37*
%TD.AperFunction*%
%TA.AperFunction,Conductor*%
G36*
X97662000Y-47430084D02*
G01*
X97554315Y-47380906D01*
X97447763Y-47365586D01*
X97376237Y-47365586D01*
X97269685Y-47380906D01*
X97162000Y-47430084D01*
X97162000Y-45761087D01*
X97269685Y-45810266D01*
X97376237Y-45825586D01*
X97447763Y-45825586D01*
X97554315Y-45810266D01*
X97662000Y-45761087D01*
X97662000Y-47430084D01*
G37*
%TD.AperFunction*%
%TA.AperFunction,Conductor*%
G36*
X97662000Y-44890084D02*
G01*
X97554315Y-44840906D01*
X97447763Y-44825586D01*
X97376237Y-44825586D01*
X97269685Y-44840906D01*
X97162000Y-44890084D01*
X97162000Y-43221087D01*
X97269685Y-43270266D01*
X97376237Y-43285586D01*
X97447763Y-43285586D01*
X97554315Y-43270266D01*
X97662000Y-43221087D01*
X97662000Y-44890084D01*
G37*
%TD.AperFunction*%
%TA.AperFunction,Conductor*%
G36*
X104057000Y-59305084D02*
G01*
X103949315Y-59255906D01*
X103842763Y-59240586D01*
X103771237Y-59240586D01*
X103664685Y-59255906D01*
X103557000Y-59305084D01*
X103557000Y-57636087D01*
X103664685Y-57685266D01*
X103771237Y-57700586D01*
X103842763Y-57700586D01*
X103949315Y-57685266D01*
X104057000Y-57636087D01*
X104057000Y-59305084D01*
G37*
%TD.AperFunction*%
%TA.AperFunction,Conductor*%
G36*
X104057000Y-56765084D02*
G01*
X103949315Y-56715906D01*
X103842763Y-56700586D01*
X103771237Y-56700586D01*
X103664685Y-56715906D01*
X103557000Y-56765084D01*
X103557000Y-55096087D01*
X103664685Y-55145266D01*
X103771237Y-55160586D01*
X103842763Y-55160586D01*
X103949315Y-55145266D01*
X104057000Y-55096087D01*
X104057000Y-56765084D01*
G37*
%TD.AperFunction*%
%TA.AperFunction,Conductor*%
G36*
X149442539Y-28619185D02*
G01*
X149488294Y-28671989D01*
X149499500Y-28723500D01*
X149499500Y-122375500D01*
X149479815Y-122442539D01*
X149427011Y-122488294D01*
X149375500Y-122499500D01*
X50916500Y-122499500D01*
X50849461Y-122479815D01*
X50803706Y-122427011D01*
X50792500Y-122375500D01*
X50792500Y-104420000D01*
X98644540Y-104420000D01*
X98664326Y-104608256D01*
X98664327Y-104608259D01*
X98722818Y-104788277D01*
X98722821Y-104788284D01*
X98817467Y-104952216D01*
X98944129Y-105092888D01*
X98944131Y-105092890D01*
X98948469Y-105096796D01*
X98985120Y-105156281D01*
X98989500Y-105188948D01*
X98989500Y-108221500D01*
X98988439Y-108237685D01*
X98984426Y-108268166D01*
X98984426Y-108268171D01*
X98988967Y-108302674D01*
X98988970Y-108302683D01*
X98989160Y-108304129D01*
X98989500Y-108306707D01*
X98989500Y-108306708D01*
X99003323Y-108411705D01*
X99004635Y-108421665D01*
X99004636Y-108421670D01*
X99063882Y-108564704D01*
X99063883Y-108564705D01*
X99158133Y-108687535D01*
X99182529Y-108706254D01*
X99194721Y-108716947D01*
X105595046Y-115117272D01*
X105605739Y-115129465D01*
X105624463Y-115153866D01*
X105747295Y-115248117D01*
X105747294Y-115248117D01*
X105825521Y-115280519D01*
X105890333Y-115307365D01*
X106025973Y-115325222D01*
X106043831Y-115327574D01*
X106043832Y-115327574D01*
X106043833Y-115327574D01*
X106074313Y-115323561D01*
X106090499Y-115322500D01*
X130769501Y-115322500D01*
X130785687Y-115323561D01*
X130816167Y-115327574D01*
X130816168Y-115327574D01*
X130816169Y-115327574D01*
X130832165Y-115325467D01*
X130969667Y-115307365D01*
X131112705Y-115248117D01*
X131204695Y-115177531D01*
X131204694Y-115177531D01*
X131235535Y-115153867D01*
X131235536Y-115153864D01*
X131243438Y-115147802D01*
X131248932Y-115136406D01*
X131254267Y-115129453D01*
X131264941Y-115117283D01*
X133083407Y-113298818D01*
X133144730Y-113265333D01*
X133171088Y-113262499D01*
X134867871Y-113262499D01*
X134867872Y-113262499D01*
X134927483Y-113256091D01*
X135062331Y-113205796D01*
X135177546Y-113119546D01*
X135263796Y-113004331D01*
X135314091Y-112869483D01*
X135320500Y-112809873D01*
X135320499Y-111379000D01*
X139106341Y-111379000D01*
X139126936Y-111614403D01*
X139126938Y-111614413D01*
X139188094Y-111842655D01*
X139188096Y-111842659D01*
X139188097Y-111842663D01*
X139263856Y-112005128D01*
X139287965Y-112056830D01*
X139287967Y-112056834D01*
X139315396Y-112096006D01*
X139423505Y-112250401D01*
X139590599Y-112417495D01*
X139687384Y-112485265D01*
X139784165Y-112553032D01*
X139784167Y-112553033D01*
X139784170Y-112553035D01*
X139998337Y-112652903D01*
X140226592Y-112714063D01*
X140403034Y-112729500D01*
X140461999Y-112734659D01*
X140462000Y-112734659D01*
X140462001Y-112734659D01*
X140520966Y-112729500D01*
X140697408Y-112714063D01*
X140925663Y-112652903D01*
X141139830Y-112553035D01*
X141333401Y-112417495D01*
X141500495Y-112250401D01*
X141630425Y-112064842D01*
X141685002Y-112021217D01*
X141754500Y-112014023D01*
X141816855Y-112045546D01*
X141833575Y-112064842D01*
X141963500Y-112250395D01*
X141963505Y-112250401D01*
X142130599Y-112417495D01*
X142227384Y-112485265D01*
X142324165Y-112553032D01*
X142324167Y-112553033D01*
X142324170Y-112553035D01*
X142538337Y-112652903D01*
X142766592Y-112714063D01*
X142943034Y-112729500D01*
X143001999Y-112734659D01*
X143002000Y-112734659D01*
X143002001Y-112734659D01*
X143060966Y-112729500D01*
X143237408Y-112714063D01*
X143465663Y-112652903D01*
X143679830Y-112553035D01*
X143873401Y-112417495D01*
X143995329Y-112295566D01*
X144056648Y-112262084D01*
X144126340Y-112267068D01*
X144182274Y-112308939D01*
X144199189Y-112339917D01*
X144248202Y-112471328D01*
X144248206Y-112471335D01*
X144334452Y-112586544D01*
X144334455Y-112586547D01*
X144449664Y-112672793D01*
X144449671Y-112672797D01*
X144584517Y-112723091D01*
X144584516Y-112723091D01*
X144591444Y-112723835D01*
X144644127Y-112729500D01*
X146439872Y-112729499D01*
X146499483Y-112723091D01*
X146634331Y-112672796D01*
X146749546Y-112586546D01*
X146835796Y-112471331D01*
X146886091Y-112336483D01*
X146892500Y-112276873D01*
X146892499Y-110481128D01*
X146886091Y-110421517D01*
X146884810Y-110418083D01*
X146835797Y-110286671D01*
X146835793Y-110286664D01*
X146749547Y-110171455D01*
X146749544Y-110171452D01*
X146634335Y-110085206D01*
X146634328Y-110085202D01*
X146499482Y-110034908D01*
X146499483Y-110034908D01*
X146439883Y-110028501D01*
X146439881Y-110028500D01*
X146439873Y-110028500D01*
X146439864Y-110028500D01*
X144644129Y-110028500D01*
X144644123Y-110028501D01*
X144584516Y-110034908D01*
X144449671Y-110085202D01*
X144449664Y-110085206D01*
X144334455Y-110171452D01*
X144334452Y-110171455D01*
X144248206Y-110286664D01*
X144248203Y-110286669D01*
X144199189Y-110418083D01*
X144157317Y-110474016D01*
X144091853Y-110498433D01*
X144023580Y-110483581D01*
X143995326Y-110462430D01*
X143873402Y-110340506D01*
X143873395Y-110340501D01*
X143679834Y-110204967D01*
X143679830Y-110204965D01*
X143632625Y-110182953D01*
X143465663Y-110105097D01*
X143465659Y-110105096D01*
X143465655Y-110105094D01*
X143237413Y-110043938D01*
X143237403Y-110043936D01*
X143002001Y-110023341D01*
X143001999Y-110023341D01*
X142766596Y-110043936D01*
X142766586Y-110043938D01*
X142538344Y-110105094D01*
X142538335Y-110105098D01*
X142324171Y-110204964D01*
X142324169Y-110204965D01*
X142130597Y-110340505D01*
X141963505Y-110507597D01*
X141833575Y-110693158D01*
X141778998Y-110736783D01*
X141709500Y-110743977D01*
X141647145Y-110712454D01*
X141630425Y-110693158D01*
X141500494Y-110507597D01*
X141333402Y-110340506D01*
X141333395Y-110340501D01*
X141139834Y-110204967D01*
X141139830Y-110204965D01*
X141092625Y-110182953D01*
X140925663Y-110105097D01*
X140925659Y-110105096D01*
X140925655Y-110105094D01*
X140697413Y-110043938D01*
X140697403Y-110043936D01*
X140462001Y-110023341D01*
X140461999Y-110023341D01*
X140226596Y-110043936D01*
X140226586Y-110043938D01*
X139998344Y-110105094D01*
X139998335Y-110105098D01*
X139784171Y-110204964D01*
X139784169Y-110204965D01*
X139590597Y-110340505D01*
X139423505Y-110507597D01*
X139287965Y-110701169D01*
X139287964Y-110701171D01*
X139188098Y-110915335D01*
X139188094Y-110915344D01*
X139126938Y-111143586D01*
X139126936Y-111143596D01*
X139106341Y-111378999D01*
X139106341Y-111379000D01*
X135320499Y-111379000D01*
X135320499Y-111014128D01*
X135314091Y-110954517D01*
X135299480Y-110915344D01*
X135263797Y-110819671D01*
X135263793Y-110819664D01*
X135177547Y-110704455D01*
X135177544Y-110704452D01*
X135062335Y-110618206D01*
X135062328Y-110618202D01*
X134927482Y-110567908D01*
X134927483Y-110567908D01*
X134867883Y-110561501D01*
X134867881Y-110561500D01*
X134867873Y-110561500D01*
X134867865Y-110561500D01*
X133497000Y-110561500D01*
X133429961Y-110541815D01*
X133384206Y-110489011D01*
X133373000Y-110437500D01*
X133373000Y-102694500D01*
X144361841Y-102694500D01*
X144382436Y-102929903D01*
X144382438Y-102929913D01*
X144443594Y-103158155D01*
X144443596Y-103158159D01*
X144443597Y-103158163D01*
X144497312Y-103273355D01*
X144543465Y-103372330D01*
X144543467Y-103372334D01*
X144605980Y-103461611D01*
X144679005Y-103565901D01*
X144846099Y-103732995D01*
X144942884Y-103800765D01*
X145039665Y-103868532D01*
X145039667Y-103868533D01*
X145039670Y-103868535D01*
X145253837Y-103968403D01*
X145482092Y-104029563D01*
X145670418Y-104046039D01*
X145717499Y-104050159D01*
X145717500Y-104050159D01*
X145717501Y-104050159D01*
X145756734Y-104046726D01*
X145952908Y-104029563D01*
X146181163Y-103968403D01*
X146395330Y-103868535D01*
X146588901Y-103732995D01*
X146755995Y-103565901D01*
X146891535Y-103372330D01*
X146991403Y-103158163D01*
X147052563Y-102929908D01*
X147073159Y-102694500D01*
X147052563Y-102459092D01*
X146991403Y-102230837D01*
X146891535Y-102016671D01*
X146874810Y-101992784D01*
X146755994Y-101823097D01*
X146588902Y-101656006D01*
X146588896Y-101656001D01*
X146403342Y-101526075D01*
X146359717Y-101471498D01*
X146352523Y-101402000D01*
X146384046Y-101339645D01*
X146403342Y-101322925D01*
X146479849Y-101269354D01*
X146588901Y-101192995D01*
X146755995Y-101025901D01*
X146891535Y-100832330D01*
X146991403Y-100618163D01*
X147052563Y-100389908D01*
X147073159Y-100154500D01*
X147072548Y-100147522D01*
X147052563Y-99919096D01*
X147052563Y-99919092D01*
X146991403Y-99690837D01*
X146891535Y-99476671D01*
X146861877Y-99434315D01*
X146755996Y-99283100D01*
X146698948Y-99226052D01*
X146634067Y-99161171D01*
X146600584Y-99099851D01*
X146605568Y-99030159D01*
X146647439Y-98974225D01*
X146678415Y-98957310D01*
X146809831Y-98908296D01*
X146925046Y-98822046D01*
X147011296Y-98706831D01*
X147061591Y-98571983D01*
X147068000Y-98512373D01*
X147067999Y-96716628D01*
X147061591Y-96657017D01*
X147040926Y-96601612D01*
X147011297Y-96522171D01*
X147011293Y-96522164D01*
X146925047Y-96406955D01*
X146925044Y-96406952D01*
X146809835Y-96320706D01*
X146809828Y-96320702D01*
X146674982Y-96270408D01*
X146674983Y-96270408D01*
X146615383Y-96264001D01*
X146615381Y-96264000D01*
X146615373Y-96264000D01*
X146615364Y-96264000D01*
X144819629Y-96264000D01*
X144819623Y-96264001D01*
X144760016Y-96270408D01*
X144625171Y-96320702D01*
X144625164Y-96320706D01*
X144509955Y-96406952D01*
X144509952Y-96406955D01*
X144423706Y-96522164D01*
X144423702Y-96522171D01*
X144373408Y-96657017D01*
X144367001Y-96716616D01*
X144367001Y-96716623D01*
X144367000Y-96716635D01*
X144367000Y-98512370D01*
X144367001Y-98512376D01*
X144373408Y-98571983D01*
X144423702Y-98706828D01*
X144423706Y-98706835D01*
X144509952Y-98822044D01*
X144509955Y-98822047D01*
X144625164Y-98908293D01*
X144625171Y-98908297D01*
X144756581Y-98957310D01*
X144812515Y-98999181D01*
X144836932Y-99064645D01*
X144822080Y-99132918D01*
X144800930Y-99161173D01*
X144679003Y-99283100D01*
X144543465Y-99476669D01*
X144543464Y-99476671D01*
X144443598Y-99690835D01*
X144443594Y-99690844D01*
X144382438Y-99919086D01*
X144382436Y-99919096D01*
X144361841Y-100154499D01*
X144361841Y-100154500D01*
X144382436Y-100389903D01*
X144382438Y-100389913D01*
X144443594Y-100618155D01*
X144443596Y-100618159D01*
X144443597Y-100618163D01*
X144511302Y-100763356D01*
X144543465Y-100832330D01*
X144543467Y-100832334D01*
X144679001Y-101025895D01*
X144679006Y-101025902D01*
X144846097Y-101192993D01*
X144846103Y-101192998D01*
X145031658Y-101322925D01*
X145075283Y-101377502D01*
X145082477Y-101447000D01*
X145050954Y-101509355D01*
X145031658Y-101526075D01*
X144846097Y-101656005D01*
X144679005Y-101823097D01*
X144543465Y-102016669D01*
X144543464Y-102016671D01*
X144443598Y-102230835D01*
X144443594Y-102230844D01*
X144382438Y-102459086D01*
X144382436Y-102459096D01*
X144361841Y-102694499D01*
X144361841Y-102694500D01*
X133373000Y-102694500D01*
X133373000Y-93170258D01*
X133392685Y-93103219D01*
X133409319Y-93082577D01*
X133449913Y-93041983D01*
X133535995Y-92955901D01*
X133671535Y-92762330D01*
X133771403Y-92548163D01*
X133832563Y-92319908D01*
X133853159Y-92084500D01*
X133832563Y-91849092D01*
X133771403Y-91620837D01*
X133671535Y-91406671D01*
X133668464Y-91402284D01*
X133535994Y-91213097D01*
X133368902Y-91046006D01*
X133368896Y-91046001D01*
X133183342Y-90916075D01*
X133139717Y-90861498D01*
X133132523Y-90792000D01*
X133164046Y-90729645D01*
X133183342Y-90712925D01*
X133295554Y-90634353D01*
X133368901Y-90582995D01*
X133535995Y-90415901D01*
X133671535Y-90222330D01*
X133771403Y-90008163D01*
X133832563Y-89779908D01*
X133853159Y-89544500D01*
X133832563Y-89309092D01*
X133771403Y-89080837D01*
X133671535Y-88866671D01*
X133665925Y-88858658D01*
X133535994Y-88673097D01*
X133368902Y-88506006D01*
X133368901Y-88506005D01*
X133182905Y-88375769D01*
X133139281Y-88321192D01*
X133132088Y-88251693D01*
X133163610Y-88189339D01*
X133182905Y-88172619D01*
X133368582Y-88042605D01*
X133535605Y-87875582D01*
X133671100Y-87682078D01*
X133770929Y-87467992D01*
X133770932Y-87467986D01*
X133828136Y-87254500D01*
X132931186Y-87254500D01*
X132956993Y-87214344D01*
X132997500Y-87076389D01*
X132997500Y-86932611D01*
X132956993Y-86794656D01*
X132931186Y-86754500D01*
X133828136Y-86754500D01*
X133828135Y-86754499D01*
X133770932Y-86541013D01*
X133770929Y-86541007D01*
X133671100Y-86326922D01*
X133671099Y-86326920D01*
X133535613Y-86133426D01*
X133535608Y-86133420D01*
X133368582Y-85966394D01*
X133175078Y-85830899D01*
X132960992Y-85731070D01*
X132960986Y-85731067D01*
X132747500Y-85673864D01*
X132747500Y-86568998D01*
X132639815Y-86519820D01*
X132533263Y-86504500D01*
X132461737Y-86504500D01*
X132355185Y-86519820D01*
X132247500Y-86568998D01*
X132247500Y-85673864D01*
X132247499Y-85673864D01*
X132034013Y-85731067D01*
X132034007Y-85731070D01*
X131819922Y-85830899D01*
X131819920Y-85830900D01*
X131626426Y-85966386D01*
X131626420Y-85966391D01*
X131459391Y-86133420D01*
X131459390Y-86133422D01*
X131329075Y-86319531D01*
X131274498Y-86363155D01*
X131204999Y-86370348D01*
X131142645Y-86338826D01*
X131125925Y-86319531D01*
X130995609Y-86133422D01*
X130995608Y-86133420D01*
X130828582Y-85966394D01*
X130635078Y-85830899D01*
X130420992Y-85731070D01*
X130420986Y-85731067D01*
X130207500Y-85673864D01*
X130207500Y-86568998D01*
X130099815Y-86519820D01*
X129993263Y-86504500D01*
X129921737Y-86504500D01*
X129815185Y-86519820D01*
X129707500Y-86568998D01*
X129707500Y-85673864D01*
X129707499Y-85673864D01*
X129494013Y-85731067D01*
X129494007Y-85731070D01*
X129279922Y-85830899D01*
X129279920Y-85830900D01*
X129086426Y-85966386D01*
X129086420Y-85966391D01*
X128919391Y-86133420D01*
X128919386Y-86133426D01*
X128783900Y-86326920D01*
X128783899Y-86326922D01*
X128684070Y-86541007D01*
X128684067Y-86541013D01*
X128626864Y-86754499D01*
X128626864Y-86754500D01*
X129523814Y-86754500D01*
X129498007Y-86794656D01*
X129457500Y-86932611D01*
X129457500Y-87076389D01*
X129498007Y-87214344D01*
X129523814Y-87254500D01*
X128626864Y-87254500D01*
X128684067Y-87467986D01*
X128684070Y-87467992D01*
X128783899Y-87682078D01*
X128919394Y-87875582D01*
X129086417Y-88042605D01*
X129272095Y-88172619D01*
X129315719Y-88227196D01*
X129322912Y-88296695D01*
X129291390Y-88359049D01*
X129272095Y-88375769D01*
X129086094Y-88506008D01*
X128919005Y-88673097D01*
X128783465Y-88866669D01*
X128783464Y-88866671D01*
X128683598Y-89080835D01*
X128683594Y-89080844D01*
X128622438Y-89309086D01*
X128622436Y-89309096D01*
X128601841Y-89544499D01*
X128601841Y-89544500D01*
X128622436Y-89779903D01*
X128622438Y-89779913D01*
X128683594Y-90008155D01*
X128683596Y-90008159D01*
X128683597Y-90008163D01*
X128715839Y-90077306D01*
X128783465Y-90222330D01*
X128783467Y-90222334D01*
X128828051Y-90286006D01*
X128919001Y-90415896D01*
X128919006Y-90415902D01*
X129040930Y-90537826D01*
X129074415Y-90599149D01*
X129069431Y-90668841D01*
X129027559Y-90724774D01*
X128996583Y-90741689D01*
X128865169Y-90790703D01*
X128865164Y-90790706D01*
X128749955Y-90876952D01*
X128749952Y-90876955D01*
X128663706Y-90992164D01*
X128663702Y-90992171D01*
X128613408Y-91127017D01*
X128607001Y-91186616D01*
X128607000Y-91186635D01*
X128607000Y-92982370D01*
X128607001Y-92982376D01*
X128613408Y-93041983D01*
X128663702Y-93176828D01*
X128663706Y-93176835D01*
X128749952Y-93292044D01*
X128749955Y-93292047D01*
X128865164Y-93378293D01*
X128865171Y-93378297D01*
X129000017Y-93428591D01*
X129000016Y-93428591D01*
X129006944Y-93429335D01*
X129059627Y-93435000D01*
X130855372Y-93434999D01*
X130914983Y-93428591D01*
X131049831Y-93378296D01*
X131165046Y-93292046D01*
X131251296Y-93176831D01*
X131300310Y-93045416D01*
X131342181Y-92989484D01*
X131407645Y-92965066D01*
X131475918Y-92979917D01*
X131504173Y-93001069D01*
X131626099Y-93122995D01*
X131722884Y-93190765D01*
X131819665Y-93258532D01*
X131819667Y-93258533D01*
X131819670Y-93258535D01*
X132017612Y-93350837D01*
X132033837Y-93358403D01*
X132033841Y-93358404D01*
X132105092Y-93377495D01*
X132164753Y-93413859D01*
X132195283Y-93476705D01*
X132197000Y-93497270D01*
X132197000Y-110584904D01*
X132177315Y-110651943D01*
X132124511Y-110697698D01*
X132055353Y-110707642D01*
X132020596Y-110697286D01*
X131893669Y-110638099D01*
X131893655Y-110638094D01*
X131665413Y-110576938D01*
X131665403Y-110576936D01*
X131430001Y-110556341D01*
X131429999Y-110556341D01*
X131194596Y-110576936D01*
X131194586Y-110576938D01*
X130966344Y-110638094D01*
X130966335Y-110638098D01*
X130752171Y-110737964D01*
X130752169Y-110737965D01*
X130558597Y-110873505D01*
X130391505Y-111040597D01*
X130261575Y-111226158D01*
X130206998Y-111269783D01*
X130137500Y-111276977D01*
X130075145Y-111245454D01*
X130058425Y-111226158D01*
X129928494Y-111040597D01*
X129761402Y-110873506D01*
X129761395Y-110873501D01*
X129567834Y-110737967D01*
X129567830Y-110737965D01*
X129560045Y-110734335D01*
X129353663Y-110638097D01*
X129353659Y-110638096D01*
X129353655Y-110638094D01*
X129125413Y-110576938D01*
X129125403Y-110576936D01*
X128890001Y-110556341D01*
X128889999Y-110556341D01*
X128654596Y-110576936D01*
X128654586Y-110576938D01*
X128426344Y-110638094D01*
X128426335Y-110638098D01*
X128212171Y-110737964D01*
X128212169Y-110737965D01*
X128018597Y-110873505D01*
X127851505Y-111040597D01*
X127715965Y-111234169D01*
X127715964Y-111234171D01*
X127616098Y-111448335D01*
X127616094Y-111448344D01*
X127554938Y-111676586D01*
X127554936Y-111676596D01*
X127534341Y-111911999D01*
X127534341Y-111912000D01*
X127554936Y-112147403D01*
X127554938Y-112147413D01*
X127616094Y-112375655D01*
X127616096Y-112375659D01*
X127616097Y-112375663D01*
X127670478Y-112492283D01*
X127715965Y-112589830D01*
X127715967Y-112589834D01*
X127802954Y-112714063D01*
X127851505Y-112783401D01*
X128018599Y-112950495D01*
X128115384Y-113018265D01*
X128212165Y-113086032D01*
X128212167Y-113086033D01*
X128212170Y-113086035D01*
X128426337Y-113185903D01*
X128654592Y-113247063D01*
X128842918Y-113263539D01*
X128889999Y-113267659D01*
X128890000Y-113267659D01*
X128890001Y-113267659D01*
X128929234Y-113264226D01*
X129125408Y-113247063D01*
X129353663Y-113185903D01*
X129567830Y-113086035D01*
X129761401Y-112950495D01*
X129928495Y-112783401D01*
X130058425Y-112597842D01*
X130113002Y-112554217D01*
X130182500Y-112547023D01*
X130244855Y-112578546D01*
X130261575Y-112597842D01*
X130391500Y-112783395D01*
X130391505Y-112783401D01*
X130558599Y-112950495D01*
X130655384Y-113018265D01*
X130752165Y-113086032D01*
X130752167Y-113086033D01*
X130752170Y-113086035D01*
X130966337Y-113185903D01*
X131194592Y-113247063D01*
X131194597Y-113247063D01*
X131195870Y-113247288D01*
X131196385Y-113247543D01*
X131199821Y-113248464D01*
X131199636Y-113249154D01*
X131258474Y-113278313D01*
X131294367Y-113338259D01*
X131292152Y-113408093D01*
X131262023Y-113457086D01*
X130608929Y-114110181D01*
X130547606Y-114143666D01*
X130521248Y-114146500D01*
X125622007Y-114146500D01*
X125554968Y-114126815D01*
X125509213Y-114074011D01*
X125499269Y-114004853D01*
X125505825Y-113979167D01*
X125522436Y-113934627D01*
X125550091Y-113860483D01*
X125556500Y-113800873D01*
X125556499Y-112005128D01*
X125550091Y-111945517D01*
X125548810Y-111942083D01*
X125499797Y-111810671D01*
X125499793Y-111810664D01*
X125413547Y-111695455D01*
X125413544Y-111695452D01*
X125298335Y-111609206D01*
X125298328Y-111609202D01*
X125163482Y-111558908D01*
X125163483Y-111558908D01*
X125103883Y-111552501D01*
X125103881Y-111552500D01*
X125103873Y-111552500D01*
X125103864Y-111552500D01*
X123308129Y-111552500D01*
X123308123Y-111552501D01*
X123248516Y-111558908D01*
X123113671Y-111609202D01*
X123113664Y-111609206D01*
X122998455Y-111695452D01*
X122998452Y-111695455D01*
X122912206Y-111810664D01*
X122912203Y-111810669D01*
X122863189Y-111942083D01*
X122821317Y-111998016D01*
X122755853Y-112022433D01*
X122687580Y-112007581D01*
X122659326Y-111986430D01*
X122537402Y-111864506D01*
X122537395Y-111864501D01*
X122531815Y-111860594D01*
X122460518Y-111810671D01*
X122343834Y-111728967D01*
X122343830Y-111728965D01*
X122343828Y-111728964D01*
X122129663Y-111629097D01*
X122129659Y-111629096D01*
X122129655Y-111629094D01*
X121901413Y-111567938D01*
X121901403Y-111567936D01*
X121666001Y-111547341D01*
X121665999Y-111547341D01*
X121430596Y-111567936D01*
X121430586Y-111567938D01*
X121202344Y-111629094D01*
X121202335Y-111629098D01*
X120988171Y-111728964D01*
X120988169Y-111728965D01*
X120794597Y-111864505D01*
X120627505Y-112031597D01*
X120497575Y-112217158D01*
X120442998Y-112260783D01*
X120373500Y-112267977D01*
X120311145Y-112236454D01*
X120294425Y-112217158D01*
X120164494Y-112031597D01*
X119997402Y-111864506D01*
X119997395Y-111864501D01*
X119991815Y-111860594D01*
X119920518Y-111810671D01*
X119803834Y-111728967D01*
X119803830Y-111728965D01*
X119803828Y-111728964D01*
X119589663Y-111629097D01*
X119589659Y-111629096D01*
X119589655Y-111629094D01*
X119361413Y-111567938D01*
X119361403Y-111567936D01*
X119126001Y-111547341D01*
X119125999Y-111547341D01*
X118890596Y-111567936D01*
X118890586Y-111567938D01*
X118662344Y-111629094D01*
X118662335Y-111629098D01*
X118448171Y-111728964D01*
X118448169Y-111728965D01*
X118254597Y-111864505D01*
X118087505Y-112031597D01*
X117951965Y-112225169D01*
X117951964Y-112225171D01*
X117852098Y-112439335D01*
X117852094Y-112439344D01*
X117790938Y-112667586D01*
X117790936Y-112667596D01*
X117770341Y-112902999D01*
X117770341Y-112903000D01*
X117790936Y-113138403D01*
X117790938Y-113138413D01*
X117852094Y-113366655D01*
X117852096Y-113366659D01*
X117852097Y-113366663D01*
X117894262Y-113457086D01*
X117951965Y-113580830D01*
X117951967Y-113580834D01*
X118060281Y-113735521D01*
X118087501Y-113774396D01*
X118087506Y-113774402D01*
X118247923Y-113934819D01*
X118281408Y-113996142D01*
X118276424Y-114065834D01*
X118234552Y-114121767D01*
X118169088Y-114146184D01*
X118160242Y-114146500D01*
X114631500Y-114146500D01*
X114564461Y-114126815D01*
X114518706Y-114074011D01*
X114507500Y-114022500D01*
X114507499Y-112236629D01*
X114507498Y-112236623D01*
X114501091Y-112177016D01*
X114450797Y-112042171D01*
X114450793Y-112042164D01*
X114364547Y-111926955D01*
X114364544Y-111926952D01*
X114249335Y-111840706D01*
X114249328Y-111840702D01*
X114114482Y-111790408D01*
X114114483Y-111790408D01*
X114054883Y-111784001D01*
X114054881Y-111784000D01*
X114054873Y-111784000D01*
X114054864Y-111784000D01*
X112259129Y-111784000D01*
X112259123Y-111784001D01*
X112199516Y-111790408D01*
X112064671Y-111840702D01*
X112064664Y-111840706D01*
X111949455Y-111926952D01*
X111949452Y-111926955D01*
X111863206Y-112042164D01*
X111863203Y-112042169D01*
X111814189Y-112173583D01*
X111772317Y-112229516D01*
X111706853Y-112253933D01*
X111638580Y-112239081D01*
X111610326Y-112217930D01*
X111488402Y-112096006D01*
X111488395Y-112096001D01*
X111294834Y-111960467D01*
X111294830Y-111960465D01*
X111255410Y-111942083D01*
X111080663Y-111860597D01*
X111080659Y-111860596D01*
X111080655Y-111860594D01*
X110852413Y-111799438D01*
X110852403Y-111799436D01*
X110617001Y-111778841D01*
X110616999Y-111778841D01*
X110381596Y-111799436D01*
X110381586Y-111799438D01*
X110153344Y-111860594D01*
X110153335Y-111860598D01*
X109939171Y-111960464D01*
X109939169Y-111960465D01*
X109745597Y-112096005D01*
X109578505Y-112263097D01*
X109448575Y-112448658D01*
X109393998Y-112492283D01*
X109324500Y-112499477D01*
X109262145Y-112467954D01*
X109245425Y-112448658D01*
X109115494Y-112263097D01*
X108948402Y-112096006D01*
X108948395Y-112096001D01*
X108754834Y-111960467D01*
X108754830Y-111960465D01*
X108715410Y-111942083D01*
X108540663Y-111860597D01*
X108540659Y-111860596D01*
X108540655Y-111860594D01*
X108312413Y-111799438D01*
X108312403Y-111799436D01*
X108077001Y-111778841D01*
X108076999Y-111778841D01*
X107841596Y-111799436D01*
X107841586Y-111799438D01*
X107613344Y-111860594D01*
X107613335Y-111860598D01*
X107399171Y-111960464D01*
X107399169Y-111960465D01*
X107205597Y-112096005D01*
X107038505Y-112263097D01*
X106902965Y-112456669D01*
X106902964Y-112456671D01*
X106803098Y-112670835D01*
X106803094Y-112670844D01*
X106741938Y-112899086D01*
X106741936Y-112899096D01*
X106721341Y-113134499D01*
X106721341Y-113134500D01*
X106741936Y-113369903D01*
X106741938Y-113369913D01*
X106803094Y-113598155D01*
X106803096Y-113598159D01*
X106803097Y-113598163D01*
X106897627Y-113800883D01*
X106902965Y-113812330D01*
X106902967Y-113812334D01*
X107000326Y-113951377D01*
X107022653Y-114017583D01*
X107005643Y-114085350D01*
X106954695Y-114133163D01*
X106898751Y-114146500D01*
X106338751Y-114146500D01*
X106271712Y-114126815D01*
X106251070Y-114110181D01*
X100201819Y-108060929D01*
X100168334Y-107999606D01*
X100165500Y-107973248D01*
X100165500Y-105129793D01*
X100185185Y-105062754D01*
X100197350Y-105046821D01*
X100218265Y-105023591D01*
X100282533Y-104952216D01*
X100377179Y-104788284D01*
X100435674Y-104608256D01*
X100455460Y-104420000D01*
X100435674Y-104231744D01*
X100377179Y-104051716D01*
X100282533Y-103887784D01*
X100155871Y-103747112D01*
X100107362Y-103711868D01*
X100002734Y-103635851D01*
X100002729Y-103635848D01*
X99829807Y-103558857D01*
X99829802Y-103558855D01*
X99684001Y-103527865D01*
X99644646Y-103519500D01*
X99455354Y-103519500D01*
X99422897Y-103526398D01*
X99270197Y-103558855D01*
X99270192Y-103558857D01*
X99097270Y-103635848D01*
X99097265Y-103635851D01*
X98944129Y-103747111D01*
X98817466Y-103887785D01*
X98722821Y-104051715D01*
X98722818Y-104051722D01*
X98664327Y-104231740D01*
X98664326Y-104231744D01*
X98644540Y-104420000D01*
X50792500Y-104420000D01*
X50792500Y-74030586D01*
X62566341Y-74030586D01*
X62586936Y-74265989D01*
X62586938Y-74265999D01*
X62648094Y-74494241D01*
X62648096Y-74494245D01*
X62648097Y-74494249D01*
X62747965Y-74708416D01*
X62747967Y-74708420D01*
X62856281Y-74863107D01*
X62883505Y-74901987D01*
X63050599Y-75069081D01*
X63147384Y-75136851D01*
X63244165Y-75204618D01*
X63244167Y-75204619D01*
X63244170Y-75204621D01*
X63458337Y-75304489D01*
X63686592Y-75365649D01*
X63874918Y-75382125D01*
X63921999Y-75386245D01*
X63922000Y-75386245D01*
X63922001Y-75386245D01*
X63961234Y-75382812D01*
X64157408Y-75365649D01*
X64385663Y-75304489D01*
X64599830Y-75204621D01*
X64793401Y-75069081D01*
X64960495Y-74901987D01*
X65096035Y-74708416D01*
X65195903Y-74494249D01*
X65257063Y-74265994D01*
X65277659Y-74030586D01*
X65277659Y-74030585D01*
X65277659Y-74030197D01*
X65277707Y-74030031D01*
X65278131Y-74025192D01*
X65279103Y-74025277D01*
X65297344Y-73963158D01*
X65350148Y-73917403D01*
X65419306Y-73907459D01*
X65482862Y-73936484D01*
X65489339Y-73942515D01*
X75676275Y-84129452D01*
X85783611Y-94236788D01*
X85793436Y-94249051D01*
X85793657Y-94248869D01*
X85798625Y-94254874D01*
X85847636Y-94300899D01*
X85850435Y-94303612D01*
X85869936Y-94323114D01*
X85869940Y-94323117D01*
X85869943Y-94323120D01*
X85873116Y-94325581D01*
X85881988Y-94333159D01*
X85913832Y-94363062D01*
X85931390Y-94372714D01*
X85947649Y-94383395D01*
X85963478Y-94395673D01*
X86003569Y-94413021D01*
X86014040Y-94418151D01*
X86036594Y-94430550D01*
X86052316Y-94439194D01*
X86052318Y-94439195D01*
X86052322Y-94439197D01*
X86071730Y-94444180D01*
X86090133Y-94450481D01*
X86108515Y-94458436D01*
X86108516Y-94458436D01*
X86108518Y-94458437D01*
X86151664Y-94465270D01*
X86163086Y-94467636D01*
X86205395Y-94478500D01*
X86225430Y-94478500D01*
X86244828Y-94480026D01*
X86264608Y-94483159D01*
X86264609Y-94483160D01*
X86264609Y-94483159D01*
X86264610Y-94483160D01*
X86308089Y-94479050D01*
X86319758Y-94478500D01*
X92765548Y-94478500D01*
X92832587Y-94498185D01*
X92853229Y-94514819D01*
X98638538Y-100300129D01*
X98672023Y-100361452D01*
X98674178Y-100374848D01*
X98675889Y-100391122D01*
X98691826Y-100542756D01*
X98691827Y-100542759D01*
X98750318Y-100722777D01*
X98750321Y-100722784D01*
X98844967Y-100886716D01*
X98970285Y-101025895D01*
X98971629Y-101027388D01*
X99124765Y-101138648D01*
X99124770Y-101138651D01*
X99297692Y-101215642D01*
X99297697Y-101215644D01*
X99482854Y-101255000D01*
X99482855Y-101255000D01*
X99672144Y-101255000D01*
X99672146Y-101255000D01*
X99857303Y-101215644D01*
X100030230Y-101138651D01*
X100183371Y-101027388D01*
X100198103Y-101011027D01*
X100257590Y-100974379D01*
X100290252Y-100970000D01*
X107154757Y-100970000D01*
X107170377Y-100971724D01*
X107170404Y-100971439D01*
X107178160Y-100972171D01*
X107178167Y-100972173D01*
X107245373Y-100970061D01*
X107249268Y-100970000D01*
X107276846Y-100970000D01*
X107276850Y-100970000D01*
X107280824Y-100969497D01*
X107292462Y-100968580D01*
X107336127Y-100967209D01*
X107336128Y-100967208D01*
X107339106Y-100967115D01*
X107406731Y-100984685D01*
X107454121Y-101036026D01*
X107467000Y-101091054D01*
X107467000Y-101992370D01*
X107467001Y-101992376D01*
X107473408Y-102051983D01*
X107523702Y-102186828D01*
X107523706Y-102186835D01*
X107609952Y-102302044D01*
X107609955Y-102302047D01*
X107725164Y-102388293D01*
X107725171Y-102388297D01*
X107860017Y-102438591D01*
X107860016Y-102438591D01*
X107866944Y-102439335D01*
X107919627Y-102445000D01*
X109232046Y-102444999D01*
X109299085Y-102464684D01*
X109319727Y-102481318D01*
X110996760Y-104158351D01*
X111030245Y-104219674D01*
X111032399Y-104233065D01*
X111041826Y-104322756D01*
X111041827Y-104322759D01*
X111100318Y-104502777D01*
X111100321Y-104502784D01*
X111194967Y-104666716D01*
X111278906Y-104759939D01*
X111321629Y-104807388D01*
X111474765Y-104918648D01*
X111474770Y-104918651D01*
X111631548Y-104988454D01*
X111684785Y-105033704D01*
X111704332Y-105087849D01*
X111714630Y-105179249D01*
X111774210Y-105349521D01*
X111774211Y-105349522D01*
X111870184Y-105502262D01*
X111997738Y-105629816D01*
X112150478Y-105725789D01*
X112320745Y-105785368D01*
X112320750Y-105785369D01*
X112499996Y-105805565D01*
X112500000Y-105805565D01*
X112500004Y-105805565D01*
X112679249Y-105785369D01*
X112679252Y-105785368D01*
X112679255Y-105785368D01*
X112849522Y-105725789D01*
X113002262Y-105629816D01*
X113129816Y-105502262D01*
X113225789Y-105349522D01*
X113285368Y-105179255D01*
X113290672Y-105132173D01*
X113317737Y-105067763D01*
X113326201Y-105058387D01*
X113591166Y-104793422D01*
X113652487Y-104759939D01*
X113722179Y-104764923D01*
X113778112Y-104806795D01*
X113802529Y-104872259D01*
X113802821Y-104883534D01*
X113767084Y-106707787D01*
X113746090Y-106774428D01*
X113695518Y-106817738D01*
X113689671Y-106820464D01*
X113689669Y-106820465D01*
X113496097Y-106956005D01*
X113329005Y-107123097D01*
X113199075Y-107308658D01*
X113144498Y-107352283D01*
X113075000Y-107359477D01*
X113012645Y-107327954D01*
X112995925Y-107308658D01*
X112865994Y-107123097D01*
X112698902Y-106956006D01*
X112698895Y-106956001D01*
X112505334Y-106820467D01*
X112505330Y-106820465D01*
X112476381Y-106806966D01*
X112291163Y-106720597D01*
X112291159Y-106720596D01*
X112291155Y-106720594D01*
X112062913Y-106659438D01*
X112062903Y-106659436D01*
X111827501Y-106638841D01*
X111827499Y-106638841D01*
X111592096Y-106659436D01*
X111592086Y-106659438D01*
X111363844Y-106720594D01*
X111363835Y-106720598D01*
X111149671Y-106820464D01*
X111149669Y-106820465D01*
X110956100Y-106956003D01*
X110834173Y-107077930D01*
X110772850Y-107111414D01*
X110703158Y-107106430D01*
X110647225Y-107064558D01*
X110630310Y-107033581D01*
X110581297Y-106902171D01*
X110581293Y-106902164D01*
X110495047Y-106786955D01*
X110495044Y-106786952D01*
X110379835Y-106700706D01*
X110379828Y-106700702D01*
X110244982Y-106650408D01*
X110244983Y-106650408D01*
X110185383Y-106644001D01*
X110185381Y-106644000D01*
X110185373Y-106644000D01*
X110185364Y-106644000D01*
X108389629Y-106644000D01*
X108389623Y-106644001D01*
X108330016Y-106650408D01*
X108195171Y-106700702D01*
X108195164Y-106700706D01*
X108079955Y-106786952D01*
X108079952Y-106786955D01*
X107993706Y-106902164D01*
X107993702Y-106902171D01*
X107943408Y-107037017D01*
X107937001Y-107096616D01*
X107937000Y-107096635D01*
X107937000Y-108892370D01*
X107937001Y-108892376D01*
X107943408Y-108951983D01*
X107993702Y-109086828D01*
X107993706Y-109086835D01*
X108079952Y-109202044D01*
X108079955Y-109202047D01*
X108195164Y-109288293D01*
X108195171Y-109288297D01*
X108330017Y-109338591D01*
X108330016Y-109338591D01*
X108336944Y-109339335D01*
X108389627Y-109345000D01*
X109702046Y-109344999D01*
X109769085Y-109364684D01*
X109789727Y-109381318D01*
X110411697Y-110003288D01*
X110421522Y-110015551D01*
X110421743Y-110015369D01*
X110426711Y-110021374D01*
X110426713Y-110021376D01*
X110426714Y-110021377D01*
X110434299Y-110028500D01*
X110475722Y-110067399D01*
X110478521Y-110070112D01*
X110498022Y-110089614D01*
X110498026Y-110089617D01*
X110498029Y-110089620D01*
X110501202Y-110092081D01*
X110510074Y-110099659D01*
X110541918Y-110129562D01*
X110559476Y-110139214D01*
X110575733Y-110149893D01*
X110591564Y-110162173D01*
X110621303Y-110175042D01*
X110631652Y-110179521D01*
X110642141Y-110184660D01*
X110665957Y-110197752D01*
X110680408Y-110205697D01*
X110693023Y-110208935D01*
X110699805Y-110210677D01*
X110718219Y-110216981D01*
X110736604Y-110224938D01*
X110779761Y-110231773D01*
X110791156Y-110234132D01*
X110833481Y-110245000D01*
X110853516Y-110245000D01*
X110872913Y-110246526D01*
X110892696Y-110249660D01*
X110936175Y-110245550D01*
X110947844Y-110245000D01*
X120629757Y-110245000D01*
X120645377Y-110246724D01*
X120645404Y-110246439D01*
X120653160Y-110247171D01*
X120653167Y-110247173D01*
X120720373Y-110245061D01*
X120724268Y-110245000D01*
X120751846Y-110245000D01*
X120751850Y-110245000D01*
X120755824Y-110244497D01*
X120767463Y-110243580D01*
X120811127Y-110242209D01*
X120830369Y-110236617D01*
X120849412Y-110232674D01*
X120869292Y-110230164D01*
X120909901Y-110214085D01*
X120920944Y-110210303D01*
X120962890Y-110198118D01*
X120980129Y-110187922D01*
X120997603Y-110179362D01*
X121016227Y-110171988D01*
X121016227Y-110171987D01*
X121016232Y-110171986D01*
X121051583Y-110146300D01*
X121061314Y-110139908D01*
X121098920Y-110117670D01*
X121113089Y-110103499D01*
X121127879Y-110090868D01*
X121144087Y-110079094D01*
X121171938Y-110045426D01*
X121179779Y-110036809D01*
X123671288Y-107545301D01*
X123683542Y-107535486D01*
X123683359Y-107535264D01*
X123689368Y-107530291D01*
X123689377Y-107530286D01*
X123735449Y-107481222D01*
X123738066Y-107478523D01*
X123757620Y-107458971D01*
X123760076Y-107455803D01*
X123767656Y-107446927D01*
X123797562Y-107415082D01*
X123807215Y-107397520D01*
X123817889Y-107381270D01*
X123830173Y-107365436D01*
X123847519Y-107325350D01*
X123852657Y-107314862D01*
X123873696Y-107276593D01*
X123873697Y-107276592D01*
X123878677Y-107257191D01*
X123884978Y-107238788D01*
X123892938Y-107220396D01*
X123899772Y-107177241D01*
X123902135Y-107165831D01*
X123913000Y-107123519D01*
X123913000Y-107103483D01*
X123914527Y-107084082D01*
X123917660Y-107064304D01*
X123913550Y-107020824D01*
X123913000Y-107009155D01*
X123913000Y-99517242D01*
X123914724Y-99501622D01*
X123914439Y-99501596D01*
X123915171Y-99493840D01*
X123915173Y-99493833D01*
X123913061Y-99426626D01*
X123913000Y-99422731D01*
X123913000Y-99395154D01*
X123913000Y-99395150D01*
X123912496Y-99391165D01*
X123911580Y-99379521D01*
X123910209Y-99335873D01*
X123904622Y-99316644D01*
X123900674Y-99297584D01*
X123898845Y-99283100D01*
X123898164Y-99277708D01*
X123898163Y-99277706D01*
X123898163Y-99277704D01*
X123882088Y-99237104D01*
X123878304Y-99226052D01*
X123866118Y-99184109D01*
X123866116Y-99184106D01*
X123855923Y-99166871D01*
X123847361Y-99149394D01*
X123839987Y-99130769D01*
X123814316Y-99095437D01*
X123807905Y-99085677D01*
X123785670Y-99048080D01*
X123785668Y-99048078D01*
X123785665Y-99048074D01*
X123771506Y-99033915D01*
X123758868Y-99019119D01*
X123747094Y-99002913D01*
X123713440Y-98975072D01*
X123704799Y-98967209D01*
X117471772Y-92734181D01*
X117438287Y-92672858D01*
X117443271Y-92603166D01*
X117485143Y-92547233D01*
X117550607Y-92522816D01*
X117559453Y-92522500D01*
X121633089Y-92522500D01*
X121649275Y-92523561D01*
X121679755Y-92527574D01*
X121679756Y-92527574D01*
X121679757Y-92527574D01*
X121695753Y-92525467D01*
X121833255Y-92507365D01*
X121976293Y-92448117D01*
X122019575Y-92414906D01*
X122099123Y-92353867D01*
X122117842Y-92329470D01*
X122128523Y-92317289D01*
X122447528Y-91998284D01*
X122508850Y-91964802D01*
X122535208Y-91961968D01*
X122647431Y-91961968D01*
X122647434Y-91961968D01*
X122687525Y-91953445D01*
X122729489Y-91951797D01*
X122784868Y-91959088D01*
X122868319Y-91970075D01*
X122868320Y-91970075D01*
X122868321Y-91970075D01*
X122884317Y-91967968D01*
X123021819Y-91949866D01*
X123164857Y-91890617D01*
X123287687Y-91796367D01*
X123381937Y-91673537D01*
X123441186Y-91530499D01*
X123461395Y-91377000D01*
X123443119Y-91238189D01*
X123442737Y-91209041D01*
X123443539Y-91201414D01*
X123458248Y-91061468D01*
X123438462Y-90873212D01*
X123379967Y-90693184D01*
X123285321Y-90529252D01*
X123158659Y-90388580D01*
X123158658Y-90388579D01*
X123005522Y-90277319D01*
X123005517Y-90277316D01*
X122832595Y-90200325D01*
X122832590Y-90200323D01*
X122686789Y-90169333D01*
X122647434Y-90160968D01*
X122458142Y-90160968D01*
X122425685Y-90167866D01*
X122272985Y-90200323D01*
X122272980Y-90200325D01*
X122100058Y-90277316D01*
X122100053Y-90277319D01*
X121946917Y-90388579D01*
X121820254Y-90529253D01*
X121725609Y-90693183D01*
X121725606Y-90693190D01*
X121670920Y-90861498D01*
X121667114Y-90873212D01*
X121648953Y-91046005D01*
X121647328Y-91061470D01*
X121647328Y-91061471D01*
X121648174Y-91069524D01*
X121635602Y-91138254D01*
X121612534Y-91170162D01*
X121472515Y-91310182D01*
X121411195Y-91343666D01*
X121384836Y-91346500D01*
X117015013Y-91346500D01*
X116947974Y-91326815D01*
X116922866Y-91305476D01*
X116883371Y-91261612D01*
X116883369Y-91261610D01*
X116883366Y-91261607D01*
X116883364Y-91261606D01*
X116730234Y-91150351D01*
X116730229Y-91150348D01*
X116557307Y-91073357D01*
X116557302Y-91073355D01*
X116411501Y-91042365D01*
X116372146Y-91034000D01*
X116182854Y-91034000D01*
X116150397Y-91040898D01*
X115997697Y-91073355D01*
X115997692Y-91073357D01*
X115824770Y-91150348D01*
X115824765Y-91150351D01*
X115671629Y-91261611D01*
X115544966Y-91402285D01*
X115450321Y-91566215D01*
X115450318Y-91566222D01*
X115391827Y-91746240D01*
X115391826Y-91746244D01*
X115372040Y-91934500D01*
X115379169Y-92002334D01*
X115379612Y-92006542D01*
X115367042Y-92075272D01*
X115319310Y-92126295D01*
X115251570Y-92143413D01*
X115205855Y-92132782D01*
X115117307Y-92093357D01*
X115117302Y-92093355D01*
X114971501Y-92062365D01*
X114932146Y-92054000D01*
X114742854Y-92054000D01*
X114710397Y-92060898D01*
X114557697Y-92093355D01*
X114557692Y-92093357D01*
X114384770Y-92170348D01*
X114384765Y-92170351D01*
X114231629Y-92281611D01*
X114104966Y-92422285D01*
X114010321Y-92586215D01*
X114010318Y-92586222D01*
X113953096Y-92762334D01*
X113951826Y-92766244D01*
X113932040Y-92954500D01*
X113951826Y-93142756D01*
X113951827Y-93142759D01*
X114010318Y-93322777D01*
X114010321Y-93322784D01*
X114104967Y-93486716D01*
X114188138Y-93579086D01*
X114231629Y-93627388D01*
X114384765Y-93738648D01*
X114384770Y-93738651D01*
X114557691Y-93815642D01*
X114557693Y-93815642D01*
X114557697Y-93815644D01*
X114611264Y-93827029D01*
X114672744Y-93860220D01*
X114706521Y-93921383D01*
X114708803Y-93961278D01*
X114707040Y-93978056D01*
X114726826Y-94166312D01*
X114726827Y-94166315D01*
X114785318Y-94346333D01*
X114785321Y-94346340D01*
X114879967Y-94510272D01*
X114981685Y-94623241D01*
X115006629Y-94650944D01*
X115159765Y-94762204D01*
X115159770Y-94762207D01*
X115332692Y-94839198D01*
X115332697Y-94839200D01*
X115517854Y-94878556D01*
X115517855Y-94878556D01*
X115707144Y-94878556D01*
X115707146Y-94878556D01*
X115892303Y-94839200D01*
X116065230Y-94762207D01*
X116218371Y-94650944D01*
X116221288Y-94647703D01*
X116224100Y-94644582D01*
X116283587Y-94607935D01*
X116316248Y-94603556D01*
X116790604Y-94603556D01*
X116857643Y-94623241D01*
X116878285Y-94639875D01*
X121552063Y-99313654D01*
X121584870Y-99373736D01*
X121584894Y-99373730D01*
X121584917Y-99373823D01*
X121585548Y-99374977D01*
X121586220Y-99378895D01*
X121586835Y-99381290D01*
X121602914Y-99421903D01*
X121606697Y-99432952D01*
X121618881Y-99474888D01*
X121629080Y-99492134D01*
X121637636Y-99509600D01*
X121645014Y-99528232D01*
X121670681Y-99563560D01*
X121677093Y-99573321D01*
X121699328Y-99610917D01*
X121699333Y-99610924D01*
X121713490Y-99625080D01*
X121726128Y-99639876D01*
X121730733Y-99646215D01*
X121737906Y-99656087D01*
X121768758Y-99681610D01*
X121771557Y-99683925D01*
X121780198Y-99691788D01*
X122112115Y-100023705D01*
X122145600Y-100085028D01*
X122140616Y-100154720D01*
X122122418Y-100187380D01*
X122114829Y-100197164D01*
X122114824Y-100197172D01*
X122097475Y-100237262D01*
X122092338Y-100247748D01*
X122071303Y-100286010D01*
X122066322Y-100305411D01*
X122060021Y-100323814D01*
X122052062Y-100342206D01*
X122052061Y-100342209D01*
X122045228Y-100385347D01*
X122042860Y-100396778D01*
X122032001Y-100439075D01*
X122032000Y-100439086D01*
X122032000Y-100459120D01*
X122030473Y-100478519D01*
X122027340Y-100498298D01*
X122027340Y-100498299D01*
X122031450Y-100541778D01*
X122032000Y-100553447D01*
X122032000Y-100978151D01*
X122030275Y-100993768D01*
X122030561Y-100993795D01*
X122029826Y-101001561D01*
X122031939Y-101068768D01*
X122032000Y-101072663D01*
X122032000Y-101100253D01*
X122032503Y-101104231D01*
X122033418Y-101115863D01*
X122034790Y-101159520D01*
X122034791Y-101159523D01*
X122040380Y-101178763D01*
X122044324Y-101197807D01*
X122045395Y-101206288D01*
X122046835Y-101217686D01*
X122062916Y-101258303D01*
X122066699Y-101269354D01*
X122068576Y-101275815D01*
X122073438Y-101306513D01*
X122073698Y-101314787D01*
X122056129Y-101382412D01*
X122037440Y-101406363D01*
X118500631Y-104943172D01*
X118439308Y-104976657D01*
X118369616Y-104971673D01*
X118313683Y-104929801D01*
X118289730Y-104869376D01*
X118284364Y-104821749D01*
X118224785Y-104651482D01*
X118128812Y-104498742D01*
X118001258Y-104371188D01*
X117924179Y-104322756D01*
X117848519Y-104275215D01*
X117678250Y-104215635D01*
X117678245Y-104215634D01*
X117499000Y-104195439D01*
X117498992Y-104195439D01*
X117319746Y-104215634D01*
X117319741Y-104215635D01*
X117149472Y-104275215D01*
X117020113Y-104356498D01*
X116954141Y-104375504D01*
X115596117Y-104375504D01*
X115530145Y-104356498D01*
X115400783Y-104275214D01*
X115230514Y-104215635D01*
X115230509Y-104215634D01*
X115179810Y-104209922D01*
X115115396Y-104182855D01*
X115075841Y-104125260D01*
X115069718Y-104084276D01*
X115189178Y-97986129D01*
X115210172Y-97919492D01*
X115220997Y-97905598D01*
X115310033Y-97806716D01*
X115404679Y-97642784D01*
X115463174Y-97462756D01*
X115482960Y-97274500D01*
X115463174Y-97086244D01*
X115404679Y-96906216D01*
X115310033Y-96742284D01*
X115183371Y-96601612D01*
X115167255Y-96589903D01*
X115030234Y-96490351D01*
X115030229Y-96490348D01*
X114857307Y-96413357D01*
X114857302Y-96413355D01*
X114711501Y-96382365D01*
X114672146Y-96374000D01*
X114482854Y-96374000D01*
X114450397Y-96380898D01*
X114297697Y-96413355D01*
X114297692Y-96413357D01*
X114124770Y-96490348D01*
X114124765Y-96490351D01*
X113971629Y-96601611D01*
X113844966Y-96742285D01*
X113750321Y-96906215D01*
X113750318Y-96906222D01*
X113702630Y-97052993D01*
X113691826Y-97086244D01*
X113672040Y-97274500D01*
X113691826Y-97462756D01*
X113691827Y-97462759D01*
X113750318Y-97642777D01*
X113750321Y-97642784D01*
X113844965Y-97806714D01*
X113844970Y-97806721D01*
X113906612Y-97875180D01*
X113936843Y-97938172D01*
X113938439Y-97960582D01*
X113886427Y-100615665D01*
X113865433Y-100682306D01*
X113811743Y-100727018D01*
X113742403Y-100735605D01*
X113736672Y-100734527D01*
X113687146Y-100724000D01*
X113687143Y-100724000D01*
X113627952Y-100724000D01*
X113560913Y-100704315D01*
X113540271Y-100687681D01*
X112904698Y-100052108D01*
X112871213Y-99990785D01*
X112869062Y-99977414D01*
X112853174Y-99826244D01*
X112794679Y-99646216D01*
X112700033Y-99482284D01*
X112573371Y-99341612D01*
X112565471Y-99335872D01*
X112420234Y-99230351D01*
X112420229Y-99230348D01*
X112247307Y-99153357D01*
X112247302Y-99153355D01*
X112095441Y-99121077D01*
X112062146Y-99114000D01*
X111872854Y-99114000D01*
X111872850Y-99114000D01*
X111862029Y-99116300D01*
X111816867Y-99117483D01*
X111815263Y-99117229D01*
X111803832Y-99114863D01*
X111761519Y-99104000D01*
X111761518Y-99104000D01*
X111741484Y-99104000D01*
X111722086Y-99102473D01*
X111714662Y-99101297D01*
X111702305Y-99099340D01*
X111702304Y-99099340D01*
X111658825Y-99103450D01*
X111647156Y-99104000D01*
X110230003Y-99104000D01*
X110162964Y-99084315D01*
X110117209Y-99031511D01*
X110107265Y-98962353D01*
X110110228Y-98947907D01*
X110143951Y-98822047D01*
X110152563Y-98789908D01*
X110173159Y-98554500D01*
X110169472Y-98512364D01*
X110152563Y-98319096D01*
X110152563Y-98319092D01*
X110091403Y-98090837D01*
X109991535Y-97876671D01*
X109942553Y-97806716D01*
X109855994Y-97683097D01*
X109688902Y-97516006D01*
X109688896Y-97516001D01*
X109503342Y-97386075D01*
X109459717Y-97331498D01*
X109452523Y-97262000D01*
X109484046Y-97199645D01*
X109503342Y-97182925D01*
X109525526Y-97167391D01*
X109688901Y-97052995D01*
X109855995Y-96885901D01*
X109991535Y-96692330D01*
X110091403Y-96478163D01*
X110152563Y-96249908D01*
X110173159Y-96014500D01*
X110152563Y-95779092D01*
X110091403Y-95550837D01*
X109991535Y-95336671D01*
X109977066Y-95316006D01*
X109855994Y-95143097D01*
X109688902Y-94976006D01*
X109688895Y-94976001D01*
X109495334Y-94840467D01*
X109495330Y-94840465D01*
X109492613Y-94839198D01*
X109281163Y-94740597D01*
X109281159Y-94740596D01*
X109281155Y-94740594D01*
X109052913Y-94679438D01*
X109052903Y-94679436D01*
X108817501Y-94658841D01*
X108817499Y-94658841D01*
X108582096Y-94679436D01*
X108582086Y-94679438D01*
X108353844Y-94740594D01*
X108353835Y-94740598D01*
X108139671Y-94840464D01*
X108139669Y-94840465D01*
X107946097Y-94976005D01*
X107779005Y-95143097D01*
X107643465Y-95336669D01*
X107643464Y-95336671D01*
X107543598Y-95550835D01*
X107543594Y-95550844D01*
X107482438Y-95779086D01*
X107482436Y-95779096D01*
X107461841Y-96014499D01*
X107461841Y-96014500D01*
X107482436Y-96249903D01*
X107482438Y-96249913D01*
X107543594Y-96478155D01*
X107543596Y-96478159D01*
X107543597Y-96478163D01*
X107626998Y-96657016D01*
X107643465Y-96692330D01*
X107643467Y-96692334D01*
X107779001Y-96885895D01*
X107779006Y-96885902D01*
X107946097Y-97052993D01*
X107946103Y-97052998D01*
X108131658Y-97182925D01*
X108175283Y-97237502D01*
X108182477Y-97307000D01*
X108150954Y-97369355D01*
X108131658Y-97386075D01*
X107946097Y-97516005D01*
X107779005Y-97683097D01*
X107643465Y-97876669D01*
X107643464Y-97876671D01*
X107543598Y-98090835D01*
X107543594Y-98090844D01*
X107482438Y-98319086D01*
X107482436Y-98319096D01*
X107461841Y-98554499D01*
X107461841Y-98554500D01*
X107482436Y-98789903D01*
X107482438Y-98789913D01*
X107543594Y-99018155D01*
X107543596Y-99018160D01*
X107543597Y-99018163D01*
X107557035Y-99046981D01*
X107567526Y-99116058D01*
X107539006Y-99179841D01*
X107517539Y-99199701D01*
X107513432Y-99202685D01*
X107503668Y-99209099D01*
X107466080Y-99231328D01*
X107451908Y-99245500D01*
X107437123Y-99258128D01*
X107420912Y-99269907D01*
X107393071Y-99303559D01*
X107385211Y-99312196D01*
X107014728Y-99682681D01*
X106953405Y-99716166D01*
X106927047Y-99719000D01*
X106142000Y-99719000D01*
X106074961Y-99699315D01*
X106029206Y-99646511D01*
X106018000Y-99595000D01*
X106017999Y-97996629D01*
X106017998Y-97996623D01*
X106017997Y-97996616D01*
X106011591Y-97937017D01*
X105989083Y-97876671D01*
X105961297Y-97802171D01*
X105961293Y-97802164D01*
X105875047Y-97686955D01*
X105875044Y-97686952D01*
X105759835Y-97600706D01*
X105759828Y-97600702D01*
X105628417Y-97551689D01*
X105572483Y-97509818D01*
X105548066Y-97444353D01*
X105562918Y-97376080D01*
X105584063Y-97347832D01*
X105705995Y-97225901D01*
X105841535Y-97032330D01*
X105941403Y-96818163D01*
X106002563Y-96589908D01*
X106023159Y-96354500D01*
X106002563Y-96119092D01*
X105941403Y-95890837D01*
X105841535Y-95676671D01*
X105753431Y-95550844D01*
X105705994Y-95483097D01*
X105538902Y-95316006D01*
X105538896Y-95316001D01*
X105353342Y-95186075D01*
X105309717Y-95131498D01*
X105302523Y-95062000D01*
X105334046Y-94999645D01*
X105353342Y-94982925D01*
X105502396Y-94878556D01*
X105538901Y-94852995D01*
X105705995Y-94685901D01*
X105841535Y-94492330D01*
X105941403Y-94278163D01*
X106002563Y-94049908D01*
X106023159Y-93814500D01*
X106002563Y-93579092D01*
X105941403Y-93350837D01*
X105841535Y-93136671D01*
X105831962Y-93122998D01*
X105705994Y-92943097D01*
X105538902Y-92776006D01*
X105538895Y-92776001D01*
X105345334Y-92640467D01*
X105345330Y-92640465D01*
X105255128Y-92598403D01*
X105131163Y-92540597D01*
X105131159Y-92540596D01*
X105131155Y-92540594D01*
X104902913Y-92479438D01*
X104902903Y-92479436D01*
X104667501Y-92458841D01*
X104667499Y-92458841D01*
X104432096Y-92479436D01*
X104432086Y-92479438D01*
X104203844Y-92540594D01*
X104203835Y-92540598D01*
X103989671Y-92640464D01*
X103989669Y-92640465D01*
X103796097Y-92776005D01*
X103629005Y-92943097D01*
X103493465Y-93136669D01*
X103493464Y-93136671D01*
X103393598Y-93350835D01*
X103393594Y-93350844D01*
X103332438Y-93579086D01*
X103332436Y-93579096D01*
X103311841Y-93814499D01*
X103311841Y-93814500D01*
X103332436Y-94049903D01*
X103332438Y-94049913D01*
X103393594Y-94278155D01*
X103393596Y-94278159D01*
X103393597Y-94278163D01*
X103489189Y-94483160D01*
X103493465Y-94492330D01*
X103493467Y-94492334D01*
X103629001Y-94685895D01*
X103629006Y-94685902D01*
X103796097Y-94852993D01*
X103796103Y-94852998D01*
X103981658Y-94982925D01*
X104025283Y-95037502D01*
X104032477Y-95107000D01*
X104000954Y-95169355D01*
X103981658Y-95186075D01*
X103796097Y-95316005D01*
X103629005Y-95483097D01*
X103493465Y-95676669D01*
X103493464Y-95676671D01*
X103393598Y-95890835D01*
X103393594Y-95890844D01*
X103332438Y-96119086D01*
X103332436Y-96119096D01*
X103311841Y-96354499D01*
X103311841Y-96354500D01*
X103332436Y-96589903D01*
X103332438Y-96589913D01*
X103393594Y-96818155D01*
X103393596Y-96818159D01*
X103393597Y-96818163D01*
X103434657Y-96906216D01*
X103493465Y-97032330D01*
X103493467Y-97032334D01*
X103531213Y-97086240D01*
X103629001Y-97225896D01*
X103629006Y-97225902D01*
X103750930Y-97347826D01*
X103784415Y-97409149D01*
X103779431Y-97478841D01*
X103737559Y-97534774D01*
X103706583Y-97551689D01*
X103575169Y-97600703D01*
X103575164Y-97600706D01*
X103459955Y-97686952D01*
X103459952Y-97686955D01*
X103373706Y-97802164D01*
X103373702Y-97802171D01*
X103323408Y-97937017D01*
X103320875Y-97960582D01*
X103317000Y-97996627D01*
X103317000Y-98822047D01*
X103317001Y-99595000D01*
X103297316Y-99662039D01*
X103244513Y-99707794D01*
X103193001Y-99719000D01*
X100272244Y-99719000D01*
X100205205Y-99699315D01*
X100188759Y-99685340D01*
X100188201Y-99685961D01*
X100183369Y-99681610D01*
X100030234Y-99570351D01*
X100030229Y-99570348D01*
X99857307Y-99493357D01*
X99857302Y-99493355D01*
X99711501Y-99462365D01*
X99672146Y-99454000D01*
X99672145Y-99454000D01*
X99612953Y-99454000D01*
X99545914Y-99434315D01*
X99525272Y-99417681D01*
X93576803Y-93469212D01*
X93566980Y-93456950D01*
X93566759Y-93457134D01*
X93561786Y-93451122D01*
X93512776Y-93405099D01*
X93509977Y-93402386D01*
X93490477Y-93382885D01*
X93490471Y-93382880D01*
X93487286Y-93380409D01*
X93478434Y-93372848D01*
X93446582Y-93342938D01*
X93446580Y-93342936D01*
X93446577Y-93342935D01*
X93429029Y-93333288D01*
X93412763Y-93322604D01*
X93396932Y-93310324D01*
X93356849Y-93292978D01*
X93346363Y-93287841D01*
X93308094Y-93266803D01*
X93308092Y-93266802D01*
X93288693Y-93261822D01*
X93270281Y-93255518D01*
X93251898Y-93247562D01*
X93251892Y-93247560D01*
X93208760Y-93240729D01*
X93197322Y-93238361D01*
X93155020Y-93227500D01*
X93155019Y-93227500D01*
X93134984Y-93227500D01*
X93115586Y-93225973D01*
X93108162Y-93224797D01*
X93095805Y-93222840D01*
X93095804Y-93222840D01*
X93052325Y-93226950D01*
X93040656Y-93227500D01*
X86594867Y-93227500D01*
X86527828Y-93207815D01*
X86507186Y-93191181D01*
X82100505Y-88784500D01*
X95231841Y-88784500D01*
X95252436Y-89019903D01*
X95252438Y-89019913D01*
X95313594Y-89248155D01*
X95313596Y-89248159D01*
X95313597Y-89248163D01*
X95317500Y-89256532D01*
X95413465Y-89462330D01*
X95413467Y-89462334D01*
X95471000Y-89544499D01*
X95549005Y-89655901D01*
X95716099Y-89822995D01*
X95901658Y-89952925D01*
X95902094Y-89953230D01*
X95945718Y-90007807D01*
X95952911Y-90077306D01*
X95921389Y-90139660D01*
X95902093Y-90156380D01*
X95826126Y-90209572D01*
X95826125Y-90209572D01*
X96454966Y-90838413D01*
X96445185Y-90839820D01*
X96314400Y-90899548D01*
X96205739Y-90993702D01*
X96128007Y-91114656D01*
X96104423Y-91194975D01*
X95472573Y-90563125D01*
X95472572Y-90563125D01*
X95413901Y-90646919D01*
X95314070Y-90861007D01*
X95314066Y-90861016D01*
X95252932Y-91089173D01*
X95252930Y-91089184D01*
X95232343Y-91324498D01*
X95232343Y-91324501D01*
X95252930Y-91559815D01*
X95252932Y-91559826D01*
X95314066Y-91787983D01*
X95314070Y-91787992D01*
X95413900Y-92002079D01*
X95413902Y-92002083D01*
X95472572Y-92085873D01*
X95472573Y-92085873D01*
X96104423Y-91454023D01*
X96128007Y-91534344D01*
X96205739Y-91655298D01*
X96314400Y-91749452D01*
X96445185Y-91809180D01*
X96454966Y-91810586D01*
X95826125Y-92439425D01*
X95909921Y-92498099D01*
X96124007Y-92597929D01*
X96124016Y-92597933D01*
X96352173Y-92659067D01*
X96352184Y-92659069D01*
X96587498Y-92679657D01*
X96587502Y-92679657D01*
X96822815Y-92659069D01*
X96822826Y-92659067D01*
X97050983Y-92597933D01*
X97050992Y-92597929D01*
X97265078Y-92498100D01*
X97265082Y-92498098D01*
X97348873Y-92439426D01*
X97348873Y-92439425D01*
X96720033Y-91810586D01*
X96729815Y-91809180D01*
X96860600Y-91749452D01*
X96969261Y-91655298D01*
X97046993Y-91534344D01*
X97070576Y-91454024D01*
X97702425Y-92085873D01*
X97755619Y-92009905D01*
X97810196Y-91966281D01*
X97879695Y-91959088D01*
X97942049Y-91990610D01*
X97958769Y-92009905D01*
X98089005Y-92195901D01*
X98256099Y-92362995D01*
X98330236Y-92414906D01*
X98449665Y-92498532D01*
X98449667Y-92498533D01*
X98449670Y-92498535D01*
X98663837Y-92598403D01*
X98892092Y-92659563D01*
X99080418Y-92676039D01*
X99127499Y-92680159D01*
X99127500Y-92680159D01*
X99127501Y-92680159D01*
X99166734Y-92676726D01*
X99362908Y-92659563D01*
X99591163Y-92598403D01*
X99805330Y-92498535D01*
X99998901Y-92362995D01*
X100165995Y-92195901D01*
X100301535Y-92002330D01*
X100401403Y-91788163D01*
X100462563Y-91559908D01*
X100483159Y-91324500D01*
X100462563Y-91089092D01*
X100405722Y-90876955D01*
X100401405Y-90860844D01*
X100401404Y-90860843D01*
X100401403Y-90860837D01*
X100301535Y-90646671D01*
X100296231Y-90639095D01*
X100165994Y-90453097D01*
X99998902Y-90286006D01*
X99998896Y-90286001D01*
X99813342Y-90156075D01*
X99769717Y-90101498D01*
X99762523Y-90032000D01*
X99794046Y-89969645D01*
X99813342Y-89952925D01*
X99835526Y-89937391D01*
X99998901Y-89822995D01*
X100165995Y-89655901D01*
X100301535Y-89462330D01*
X100401403Y-89248163D01*
X100462563Y-89019908D01*
X100483159Y-88784500D01*
X100462563Y-88549092D01*
X100401403Y-88320837D01*
X100301535Y-88106671D01*
X100295925Y-88098658D01*
X100165994Y-87913097D01*
X99998902Y-87746006D01*
X99998896Y-87746001D01*
X99813342Y-87616075D01*
X99769717Y-87561498D01*
X99762523Y-87492000D01*
X99794046Y-87429645D01*
X99813342Y-87412925D01*
X99889748Y-87359425D01*
X99998901Y-87282995D01*
X100165995Y-87115901D01*
X100301535Y-86922330D01*
X100401403Y-86708163D01*
X100462563Y-86479908D01*
X100483159Y-86244500D01*
X100462563Y-86009092D01*
X100401403Y-85780837D01*
X100301535Y-85566671D01*
X100296231Y-85559095D01*
X100165994Y-85373097D01*
X99998902Y-85206006D01*
X99998896Y-85206001D01*
X99813342Y-85076075D01*
X99769717Y-85021498D01*
X99762523Y-84952000D01*
X99794046Y-84889645D01*
X99813342Y-84872925D01*
X99889748Y-84819425D01*
X99998901Y-84742995D01*
X100165995Y-84575901D01*
X100301535Y-84382330D01*
X100376126Y-84222370D01*
X121357000Y-84222370D01*
X121357001Y-84222376D01*
X121363408Y-84281983D01*
X121413702Y-84416828D01*
X121413706Y-84416835D01*
X121499952Y-84532044D01*
X121499955Y-84532047D01*
X121615164Y-84618293D01*
X121615171Y-84618297D01*
X121750017Y-84668591D01*
X121750016Y-84668591D01*
X121756944Y-84669335D01*
X121809627Y-84675000D01*
X123605372Y-84674999D01*
X123664983Y-84668591D01*
X123799831Y-84618296D01*
X123915046Y-84532046D01*
X124001296Y-84416831D01*
X124050310Y-84285416D01*
X124092181Y-84229484D01*
X124157645Y-84205066D01*
X124225918Y-84219917D01*
X124254173Y-84241069D01*
X124376099Y-84362995D01*
X124472884Y-84430765D01*
X124569665Y-84498532D01*
X124569667Y-84498533D01*
X124569670Y-84498535D01*
X124783837Y-84598403D01*
X125012092Y-84659563D01*
X125188534Y-84675000D01*
X125247499Y-84680159D01*
X125247500Y-84680159D01*
X125247501Y-84680159D01*
X125306466Y-84675000D01*
X125482908Y-84659563D01*
X125711163Y-84598403D01*
X125925330Y-84498535D01*
X126118901Y-84362995D01*
X126285995Y-84195901D01*
X126415925Y-84010342D01*
X126470502Y-83966717D01*
X126540000Y-83959523D01*
X126602355Y-83991046D01*
X126619075Y-84010342D01*
X126749000Y-84195895D01*
X126749005Y-84195901D01*
X126916099Y-84362995D01*
X127012884Y-84430765D01*
X127109665Y-84498532D01*
X127109667Y-84498533D01*
X127109670Y-84498535D01*
X127323837Y-84598403D01*
X127552092Y-84659563D01*
X127728534Y-84675000D01*
X127787499Y-84680159D01*
X127787500Y-84680159D01*
X127787501Y-84680159D01*
X127846466Y-84675000D01*
X128022908Y-84659563D01*
X128251163Y-84598403D01*
X128465330Y-84498535D01*
X128658901Y-84362995D01*
X128825995Y-84195901D01*
X128961535Y-84002330D01*
X129061403Y-83788163D01*
X129122563Y-83559908D01*
X129143159Y-83324500D01*
X129122563Y-83089092D01*
X129061403Y-82860837D01*
X128961535Y-82646671D01*
X128955925Y-82638658D01*
X128825994Y-82453097D01*
X128658902Y-82286006D01*
X128658895Y-82286001D01*
X128465334Y-82150467D01*
X128465330Y-82150465D01*
X128465328Y-82150464D01*
X128251163Y-82050597D01*
X128251159Y-82050596D01*
X128251155Y-82050594D01*
X128022913Y-81989438D01*
X128022903Y-81989436D01*
X127787501Y-81968841D01*
X127787499Y-81968841D01*
X127552096Y-81989436D01*
X127552086Y-81989438D01*
X127323844Y-82050594D01*
X127323835Y-82050598D01*
X127109671Y-82150464D01*
X127109669Y-82150465D01*
X126916097Y-82286005D01*
X126749005Y-82453097D01*
X126619075Y-82638658D01*
X126564498Y-82682283D01*
X126495000Y-82689477D01*
X126432645Y-82657954D01*
X126415925Y-82638658D01*
X126285994Y-82453097D01*
X126118902Y-82286006D01*
X126118895Y-82286001D01*
X125925334Y-82150467D01*
X125925330Y-82150465D01*
X125925328Y-82150464D01*
X125711163Y-82050597D01*
X125711159Y-82050596D01*
X125711155Y-82050594D01*
X125482913Y-81989438D01*
X125482903Y-81989436D01*
X125247501Y-81968841D01*
X125247499Y-81968841D01*
X125012096Y-81989436D01*
X125012086Y-81989438D01*
X124783844Y-82050594D01*
X124783835Y-82050598D01*
X124569671Y-82150464D01*
X124569669Y-82150465D01*
X124376100Y-82286003D01*
X124254173Y-82407930D01*
X124192850Y-82441414D01*
X124123158Y-82436430D01*
X124067225Y-82394558D01*
X124050310Y-82363581D01*
X124001297Y-82232171D01*
X124001293Y-82232164D01*
X123915047Y-82116955D01*
X123915044Y-82116952D01*
X123799835Y-82030706D01*
X123799828Y-82030702D01*
X123664982Y-81980408D01*
X123664983Y-81980408D01*
X123605383Y-81974001D01*
X123605381Y-81974000D01*
X123605373Y-81974000D01*
X123605364Y-81974000D01*
X121809629Y-81974000D01*
X121809623Y-81974001D01*
X121750016Y-81980408D01*
X121615171Y-82030702D01*
X121615164Y-82030706D01*
X121499955Y-82116952D01*
X121499952Y-82116955D01*
X121413706Y-82232164D01*
X121413702Y-82232171D01*
X121363408Y-82367017D01*
X121357001Y-82426616D01*
X121357000Y-82426635D01*
X121357000Y-84222370D01*
X100376126Y-84222370D01*
X100401403Y-84168163D01*
X100462563Y-83939908D01*
X100483159Y-83704500D01*
X100462563Y-83469092D01*
X100401403Y-83240837D01*
X100301535Y-83026671D01*
X100296231Y-83019095D01*
X100165994Y-82833097D01*
X99998902Y-82666006D01*
X99998896Y-82666001D01*
X99813342Y-82536075D01*
X99769717Y-82481498D01*
X99762523Y-82412000D01*
X99794046Y-82349645D01*
X99813342Y-82332925D01*
X99880349Y-82286006D01*
X99998901Y-82202995D01*
X100165995Y-82035901D01*
X100301535Y-81842330D01*
X100401403Y-81628163D01*
X100462563Y-81399908D01*
X100483159Y-81164500D01*
X100462563Y-80929092D01*
X100401403Y-80700837D01*
X100301535Y-80486671D01*
X100187983Y-80324500D01*
X130831841Y-80324500D01*
X130852436Y-80559903D01*
X130852438Y-80559913D01*
X130913594Y-80788155D01*
X130913596Y-80788159D01*
X130913597Y-80788163D01*
X131013465Y-81002330D01*
X131013467Y-81002334D01*
X131121781Y-81157021D01*
X131149001Y-81195896D01*
X131149006Y-81195902D01*
X131270930Y-81317826D01*
X131304415Y-81379149D01*
X131299431Y-81448841D01*
X131257559Y-81504774D01*
X131226583Y-81521689D01*
X131095169Y-81570703D01*
X131095164Y-81570706D01*
X130979955Y-81656952D01*
X130979952Y-81656955D01*
X130893706Y-81772164D01*
X130893702Y-81772171D01*
X130843408Y-81907017D01*
X130837001Y-81966616D01*
X130837001Y-81966623D01*
X130837000Y-81966635D01*
X130837000Y-83762370D01*
X130837001Y-83762376D01*
X130843408Y-83821983D01*
X130893702Y-83956828D01*
X130893706Y-83956835D01*
X130979952Y-84072044D01*
X130979955Y-84072047D01*
X131095164Y-84158293D01*
X131095171Y-84158297D01*
X131230017Y-84208591D01*
X131230016Y-84208591D01*
X131236944Y-84209335D01*
X131289627Y-84215000D01*
X133085372Y-84214999D01*
X133144983Y-84208591D01*
X133279831Y-84158296D01*
X133395046Y-84072046D01*
X133481296Y-83956831D01*
X133531591Y-83821983D01*
X133538000Y-83762373D01*
X133537999Y-81966628D01*
X133531591Y-81907017D01*
X133507464Y-81842330D01*
X133481297Y-81772171D01*
X133481293Y-81772164D01*
X133395047Y-81656955D01*
X133395044Y-81656952D01*
X133279835Y-81570706D01*
X133279828Y-81570702D01*
X133148417Y-81521689D01*
X133092483Y-81479818D01*
X133068066Y-81414353D01*
X133082918Y-81346080D01*
X133104063Y-81317832D01*
X133225995Y-81195901D01*
X133361535Y-81002330D01*
X133461403Y-80788163D01*
X133522563Y-80559908D01*
X133543159Y-80324500D01*
X133522563Y-80089092D01*
X133461403Y-79860837D01*
X133361535Y-79646671D01*
X133263537Y-79506714D01*
X133225994Y-79453097D01*
X133058902Y-79286006D01*
X133058896Y-79286001D01*
X132873342Y-79156075D01*
X132829717Y-79101498D01*
X132822523Y-79032000D01*
X132854046Y-78969645D01*
X132873342Y-78952925D01*
X132973469Y-78882815D01*
X133058901Y-78822995D01*
X133225995Y-78655901D01*
X133361535Y-78462330D01*
X133461403Y-78248163D01*
X133522563Y-78019908D01*
X133543159Y-77784500D01*
X133522563Y-77549092D01*
X133461403Y-77320837D01*
X133361535Y-77106671D01*
X133280088Y-76990351D01*
X133225994Y-76913097D01*
X133058902Y-76746006D01*
X133058895Y-76746001D01*
X132865334Y-76610467D01*
X132865330Y-76610465D01*
X132856269Y-76606240D01*
X132651163Y-76510597D01*
X132651159Y-76510596D01*
X132651155Y-76510594D01*
X132422913Y-76449438D01*
X132422903Y-76449436D01*
X132187501Y-76428841D01*
X132187499Y-76428841D01*
X131952096Y-76449436D01*
X131952086Y-76449438D01*
X131723844Y-76510594D01*
X131723835Y-76510598D01*
X131509671Y-76610464D01*
X131509669Y-76610465D01*
X131316097Y-76746005D01*
X131149005Y-76913097D01*
X131013465Y-77106669D01*
X131013464Y-77106671D01*
X130913598Y-77320835D01*
X130913594Y-77320844D01*
X130852438Y-77549086D01*
X130852436Y-77549096D01*
X130831841Y-77784499D01*
X130831841Y-77784500D01*
X130852436Y-78019903D01*
X130852438Y-78019913D01*
X130913594Y-78248155D01*
X130913596Y-78248159D01*
X130913597Y-78248163D01*
X130985078Y-78401453D01*
X131013465Y-78462330D01*
X131013467Y-78462334D01*
X131111462Y-78602284D01*
X131134819Y-78635642D01*
X131149001Y-78655895D01*
X131149006Y-78655902D01*
X131316097Y-78822993D01*
X131316103Y-78822998D01*
X131501658Y-78952925D01*
X131545283Y-79007502D01*
X131552477Y-79077000D01*
X131520954Y-79139355D01*
X131501658Y-79156075D01*
X131316097Y-79286005D01*
X131149005Y-79453097D01*
X131013465Y-79646669D01*
X131013464Y-79646671D01*
X130913598Y-79860835D01*
X130913594Y-79860844D01*
X130852438Y-80089086D01*
X130852436Y-80089096D01*
X130831841Y-80324499D01*
X130831841Y-80324500D01*
X100187983Y-80324500D01*
X100165994Y-80293097D01*
X99998902Y-80126006D01*
X99998895Y-80126001D01*
X99805334Y-79990467D01*
X99805330Y-79990465D01*
X99765277Y-79971788D01*
X99591163Y-79890597D01*
X99591159Y-79890596D01*
X99591155Y-79890594D01*
X99362913Y-79829438D01*
X99362903Y-79829436D01*
X99127501Y-79808841D01*
X99127499Y-79808841D01*
X98892096Y-79829436D01*
X98892086Y-79829438D01*
X98663844Y-79890594D01*
X98663835Y-79890598D01*
X98449671Y-79990464D01*
X98449669Y-79990465D01*
X98256097Y-80126005D01*
X98089003Y-80293099D01*
X98087849Y-80294475D01*
X98087188Y-80294914D01*
X98085176Y-80296927D01*
X98084771Y-80296522D01*
X98029673Y-80333171D01*
X97959812Y-80334272D01*
X97900446Y-80297428D01*
X97875163Y-80253765D01*
X97872314Y-80245166D01*
X97780212Y-80095844D01*
X97656156Y-79971788D01*
X97563388Y-79914569D01*
X97506836Y-79879687D01*
X97506831Y-79879685D01*
X97505362Y-79879198D01*
X97340297Y-79824501D01*
X97340295Y-79824500D01*
X97237510Y-79814000D01*
X95937498Y-79814000D01*
X95937481Y-79814001D01*
X95834703Y-79824500D01*
X95834700Y-79824501D01*
X95668168Y-79879685D01*
X95668163Y-79879687D01*
X95518842Y-79971789D01*
X95394789Y-80095842D01*
X95302687Y-80245163D01*
X95302685Y-80245168D01*
X95286201Y-80294914D01*
X95247501Y-80411703D01*
X95247501Y-80411704D01*
X95247500Y-80411704D01*
X95237000Y-80514483D01*
X95237000Y-81814501D01*
X95237001Y-81814518D01*
X95247500Y-81917296D01*
X95247501Y-81917299D01*
X95286803Y-82035902D01*
X95302686Y-82083834D01*
X95394788Y-82233156D01*
X95518844Y-82357212D01*
X95668166Y-82449314D01*
X95740532Y-82473293D01*
X95797976Y-82513066D01*
X95824799Y-82577581D01*
X95824912Y-82588359D01*
X96454966Y-83218413D01*
X96445185Y-83219820D01*
X96314400Y-83279548D01*
X96205739Y-83373702D01*
X96128007Y-83494656D01*
X96104423Y-83574975D01*
X95472573Y-82943125D01*
X95472572Y-82943125D01*
X95413901Y-83026919D01*
X95314070Y-83241007D01*
X95314066Y-83241016D01*
X95252932Y-83469173D01*
X95252930Y-83469184D01*
X95232343Y-83704498D01*
X95232343Y-83704501D01*
X95252930Y-83939815D01*
X95252932Y-83939826D01*
X95314066Y-84167983D01*
X95314070Y-84167992D01*
X95413900Y-84382079D01*
X95413902Y-84382083D01*
X95472572Y-84465873D01*
X95472573Y-84465873D01*
X96104423Y-83834023D01*
X96128007Y-83914344D01*
X96205739Y-84035298D01*
X96314400Y-84129452D01*
X96445185Y-84189180D01*
X96454966Y-84190586D01*
X95826125Y-84819425D01*
X95902531Y-84872925D01*
X95946155Y-84927502D01*
X95953348Y-84997001D01*
X95921826Y-85059355D01*
X95902529Y-85076076D01*
X95826125Y-85129572D01*
X96454966Y-85758413D01*
X96445185Y-85759820D01*
X96314400Y-85819548D01*
X96205739Y-85913702D01*
X96128007Y-86034656D01*
X96104423Y-86114975D01*
X95472573Y-85483125D01*
X95472572Y-85483125D01*
X95413901Y-85566919D01*
X95314070Y-85781007D01*
X95314066Y-85781016D01*
X95252932Y-86009173D01*
X95252930Y-86009184D01*
X95232343Y-86244498D01*
X95232343Y-86244501D01*
X95252930Y-86479815D01*
X95252932Y-86479826D01*
X95314066Y-86707983D01*
X95314070Y-86707992D01*
X95413900Y-86922079D01*
X95413902Y-86922083D01*
X95472572Y-87005873D01*
X95472573Y-87005873D01*
X96104423Y-86374023D01*
X96128007Y-86454344D01*
X96205739Y-86575298D01*
X96314400Y-86669452D01*
X96445185Y-86729180D01*
X96454966Y-86730586D01*
X95826125Y-87359425D01*
X95902094Y-87412619D01*
X95945719Y-87467196D01*
X95952913Y-87536694D01*
X95921390Y-87599049D01*
X95902095Y-87615769D01*
X95716094Y-87746008D01*
X95549005Y-87913097D01*
X95413465Y-88106669D01*
X95413464Y-88106671D01*
X95313598Y-88320835D01*
X95313594Y-88320844D01*
X95252438Y-88549086D01*
X95252436Y-88549096D01*
X95231841Y-88784499D01*
X95231841Y-88784500D01*
X82100505Y-88784500D01*
X70583041Y-77267036D01*
X73116500Y-77267036D01*
X73131804Y-77481019D01*
X73192628Y-77760623D01*
X73192630Y-77760629D01*
X73192631Y-77760632D01*
X73268020Y-77962756D01*
X73292635Y-78028752D01*
X73429770Y-78279895D01*
X73429775Y-78279903D01*
X73601254Y-78508973D01*
X73601270Y-78508991D01*
X73803594Y-78711315D01*
X73803612Y-78711331D01*
X74032682Y-78882810D01*
X74032690Y-78882815D01*
X74283833Y-79019950D01*
X74283832Y-79019950D01*
X74283836Y-79019951D01*
X74283839Y-79019953D01*
X74551954Y-79119955D01*
X74551960Y-79119956D01*
X74551962Y-79119957D01*
X74831566Y-79180781D01*
X74831568Y-79180781D01*
X74831572Y-79180782D01*
X75045552Y-79196086D01*
X78188448Y-79196086D01*
X78402428Y-79180782D01*
X78485293Y-79162756D01*
X78682037Y-79119957D01*
X78682037Y-79119956D01*
X78682046Y-79119955D01*
X78950161Y-79019953D01*
X79201315Y-78882812D01*
X79430395Y-78711325D01*
X79632739Y-78508981D01*
X79804226Y-78279901D01*
X79941367Y-78028747D01*
X80041369Y-77760632D01*
X80041546Y-77759818D01*
X80102195Y-77481019D01*
X80102195Y-77481018D01*
X80102196Y-77481014D01*
X80117500Y-77267034D01*
X80117500Y-76287015D01*
X80137185Y-76219976D01*
X80189989Y-76174221D01*
X80259147Y-76164277D01*
X80322703Y-76193302D01*
X80360477Y-76252080D01*
X80363973Y-76267617D01*
X80388784Y-76424270D01*
X80388784Y-76424272D01*
X80483736Y-76778637D01*
X80615204Y-77121121D01*
X80781754Y-77447992D01*
X80981553Y-77755656D01*
X81170297Y-77988734D01*
X82057856Y-77101174D01*
X82094937Y-77151500D01*
X82304356Y-77368038D01*
X82412611Y-77453526D01*
X81523850Y-78342287D01*
X81756929Y-78531032D01*
X82064593Y-78730831D01*
X82391464Y-78897381D01*
X82733948Y-79028849D01*
X83088314Y-79123801D01*
X83450646Y-79181188D01*
X83816999Y-79200389D01*
X83817001Y-79200389D01*
X84183353Y-79181188D01*
X84545684Y-79123801D01*
X84545686Y-79123801D01*
X84900051Y-79028849D01*
X85041634Y-78974500D01*
X104822040Y-78974500D01*
X104841826Y-79162756D01*
X104841827Y-79162759D01*
X104900318Y-79342777D01*
X104900321Y-79342784D01*
X104994967Y-79506716D01*
X105120982Y-79646669D01*
X105121629Y-79647388D01*
X105274765Y-79758648D01*
X105274770Y-79758651D01*
X105447692Y-79835642D01*
X105447697Y-79835644D01*
X105632854Y-79875000D01*
X105632855Y-79875000D01*
X105822144Y-79875000D01*
X105822146Y-79875000D01*
X106007303Y-79835644D01*
X106180230Y-79758651D01*
X106333371Y-79647388D01*
X106460033Y-79506716D01*
X106554679Y-79342784D01*
X106613174Y-79162756D01*
X106616144Y-79134500D01*
X116492040Y-79134500D01*
X116511826Y-79322756D01*
X116511827Y-79322759D01*
X116570318Y-79502777D01*
X116570321Y-79502784D01*
X116664967Y-79666716D01*
X116791628Y-79807387D01*
X116791629Y-79807388D01*
X116944765Y-79918648D01*
X116944770Y-79918651D01*
X117117692Y-79995642D01*
X117117697Y-79995644D01*
X117302854Y-80035000D01*
X117302855Y-80035000D01*
X117492144Y-80035000D01*
X117492146Y-80035000D01*
X117677303Y-79995644D01*
X117850230Y-79918651D01*
X118003371Y-79807388D01*
X118031609Y-79776027D01*
X118091095Y-79739379D01*
X118123758Y-79735000D01*
X120514650Y-79735000D01*
X120581689Y-79754685D01*
X120622036Y-79796999D01*
X120640765Y-79829438D01*
X120644967Y-79836716D01*
X120771629Y-79977388D01*
X120924765Y-80088648D01*
X120924770Y-80088651D01*
X121097692Y-80165642D01*
X121097697Y-80165644D01*
X121282854Y-80205000D01*
X121282855Y-80205000D01*
X121472144Y-80205000D01*
X121472146Y-80205000D01*
X121657303Y-80165644D01*
X121830230Y-80088651D01*
X121983371Y-79977388D01*
X122110033Y-79836716D01*
X122204679Y-79672784D01*
X122263174Y-79492756D01*
X122282960Y-79304500D01*
X122263174Y-79116244D01*
X122204679Y-78936216D01*
X122157594Y-78854663D01*
X122141122Y-78786763D01*
X122163975Y-78720737D01*
X122218896Y-78677546D01*
X122239183Y-78671378D01*
X122407303Y-78635644D01*
X122407307Y-78635642D01*
X122407308Y-78635642D01*
X122473385Y-78606222D01*
X122580230Y-78558651D01*
X122733371Y-78447388D01*
X122860033Y-78306716D01*
X122954679Y-78142784D01*
X123013174Y-77962756D01*
X123032960Y-77774500D01*
X123013174Y-77586244D01*
X122954679Y-77406216D01*
X122860033Y-77242284D01*
X122733371Y-77101612D01*
X122733370Y-77101611D01*
X122580234Y-76990351D01*
X122580229Y-76990348D01*
X122407307Y-76913357D01*
X122407302Y-76913355D01*
X122261501Y-76882365D01*
X122222146Y-76874000D01*
X122222145Y-76874000D01*
X122087597Y-76874000D01*
X122020558Y-76854315D01*
X121999916Y-76837681D01*
X121565699Y-76403464D01*
X121555004Y-76391269D01*
X121535783Y-76366219D01*
X121432562Y-76287015D01*
X121410341Y-76269964D01*
X121391802Y-76262285D01*
X121264262Y-76209456D01*
X121264260Y-76209455D01*
X121146861Y-76194000D01*
X121107500Y-76188818D01*
X121076197Y-76192939D01*
X121060013Y-76194000D01*
X118583758Y-76194000D01*
X118516719Y-76174315D01*
X118491609Y-76152973D01*
X118463371Y-76121612D01*
X118463364Y-76121606D01*
X118310234Y-76010351D01*
X118310229Y-76010348D01*
X118137307Y-75933357D01*
X118137302Y-75933355D01*
X117991501Y-75902365D01*
X117952146Y-75894000D01*
X117762854Y-75894000D01*
X117730397Y-75900898D01*
X117577697Y-75933355D01*
X117577692Y-75933357D01*
X117404770Y-76010348D01*
X117404765Y-76010351D01*
X117251629Y-76121611D01*
X117124966Y-76262285D01*
X117030321Y-76426215D01*
X117030318Y-76426222D01*
X117002903Y-76510598D01*
X116971826Y-76606244D01*
X116952040Y-76794500D01*
X116971826Y-76982756D01*
X116971827Y-76982759D01*
X117030318Y-77162777D01*
X117030321Y-77162784D01*
X117124967Y-77326716D01*
X117234165Y-77447992D01*
X117251629Y-77467388D01*
X117404765Y-77578648D01*
X117404770Y-77578651D01*
X117577692Y-77655642D01*
X117577697Y-77655644D01*
X117762854Y-77695000D01*
X117762855Y-77695000D01*
X117952144Y-77695000D01*
X117952146Y-77695000D01*
X118137303Y-77655644D01*
X118310230Y-77578651D01*
X118463371Y-77467388D01*
X118491609Y-77436027D01*
X118551095Y-77399379D01*
X118583758Y-77395000D01*
X120807403Y-77395000D01*
X120874442Y-77414685D01*
X120895084Y-77431319D01*
X121189084Y-77725319D01*
X121222569Y-77786642D01*
X121224724Y-77800038D01*
X121241826Y-77962756D01*
X121241827Y-77962759D01*
X121300318Y-78142777D01*
X121300320Y-78142781D01*
X121300321Y-78142784D01*
X121345064Y-78220281D01*
X121347405Y-78224336D01*
X121363877Y-78292236D01*
X121341024Y-78358263D01*
X121286102Y-78401453D01*
X121265798Y-78407625D01*
X121097697Y-78443355D01*
X121097692Y-78443357D01*
X120918834Y-78522992D01*
X120917783Y-78520631D01*
X120867901Y-78534000D01*
X118123758Y-78534000D01*
X118056719Y-78514315D01*
X118031609Y-78492973D01*
X118003371Y-78461612D01*
X118003364Y-78461606D01*
X117850234Y-78350351D01*
X117850229Y-78350348D01*
X117677307Y-78273357D01*
X117677302Y-78273355D01*
X117531501Y-78242365D01*
X117492146Y-78234000D01*
X117302854Y-78234000D01*
X117270397Y-78240898D01*
X117117697Y-78273355D01*
X117117692Y-78273357D01*
X116944770Y-78350348D01*
X116944765Y-78350351D01*
X116791629Y-78461611D01*
X116664966Y-78602285D01*
X116570321Y-78766215D01*
X116570318Y-78766222D01*
X116515084Y-78936216D01*
X116511826Y-78946244D01*
X116492040Y-79134500D01*
X106616144Y-79134500D01*
X106632960Y-78974500D01*
X106613174Y-78786244D01*
X106554679Y-78606216D01*
X106498546Y-78508991D01*
X106460034Y-78442285D01*
X106460029Y-78442278D01*
X106434850Y-78414314D01*
X106404620Y-78351322D01*
X106403000Y-78331342D01*
X106403000Y-76499647D01*
X106422685Y-76432608D01*
X106439319Y-76411966D01*
X114014967Y-68836319D01*
X114076290Y-68802834D01*
X114102648Y-68800000D01*
X119333752Y-68800000D01*
X119400791Y-68819685D01*
X119425900Y-68841026D01*
X119431626Y-68847385D01*
X119431630Y-68847389D01*
X119584765Y-68958648D01*
X119584770Y-68958651D01*
X119757692Y-69035642D01*
X119757697Y-69035644D01*
X119942854Y-69075000D01*
X119942855Y-69075000D01*
X120132144Y-69075000D01*
X120132146Y-69075000D01*
X120317303Y-69035644D01*
X120490230Y-68958651D01*
X120643371Y-68847388D01*
X120770033Y-68706716D01*
X120864679Y-68542784D01*
X120923174Y-68362756D01*
X120942960Y-68174500D01*
X120923174Y-67986244D01*
X120864679Y-67806216D01*
X120770033Y-67642284D01*
X120643371Y-67501612D01*
X120643370Y-67501611D01*
X120490234Y-67390351D01*
X120490229Y-67390348D01*
X120317307Y-67313357D01*
X120317302Y-67313355D01*
X120148499Y-67277476D01*
X120132146Y-67274000D01*
X119942854Y-67274000D01*
X119926501Y-67277476D01*
X119757697Y-67313355D01*
X119757692Y-67313357D01*
X119584770Y-67390348D01*
X119584765Y-67390351D01*
X119431630Y-67501610D01*
X119431626Y-67501614D01*
X119425900Y-67507974D01*
X119366413Y-67544621D01*
X119333752Y-67549000D01*
X113874932Y-67549000D01*
X113859315Y-67547276D01*
X113859288Y-67547562D01*
X113851526Y-67546827D01*
X113784339Y-67548939D01*
X113780445Y-67549000D01*
X113752845Y-67549000D01*
X113749157Y-67549465D01*
X113748844Y-67549505D01*
X113737226Y-67550418D01*
X113693567Y-67551790D01*
X113693564Y-67551791D01*
X113674321Y-67557381D01*
X113655278Y-67561325D01*
X113635399Y-67563836D01*
X113635398Y-67563837D01*
X113594788Y-67579915D01*
X113583743Y-67583697D01*
X113541803Y-67595883D01*
X113541799Y-67595885D01*
X113524560Y-67606080D01*
X113507093Y-67614637D01*
X113488464Y-67622012D01*
X113488462Y-67622014D01*
X113453121Y-67647689D01*
X113443363Y-67654099D01*
X113405775Y-67676328D01*
X113391603Y-67690500D01*
X113376818Y-67703128D01*
X113360607Y-67714907D01*
X113332766Y-67748559D01*
X113324906Y-67757196D01*
X105393708Y-75688394D01*
X105381451Y-75698215D01*
X105381634Y-75698436D01*
X105375622Y-75703409D01*
X105329598Y-75752418D01*
X105326891Y-75755211D01*
X105307389Y-75774712D01*
X105307375Y-75774729D01*
X105304907Y-75777910D01*
X105297343Y-75786765D01*
X105267437Y-75818613D01*
X105267436Y-75818615D01*
X105257784Y-75836171D01*
X105247110Y-75852421D01*
X105234829Y-75868256D01*
X105234824Y-75868263D01*
X105217475Y-75908353D01*
X105212338Y-75918839D01*
X105191303Y-75957101D01*
X105186322Y-75976502D01*
X105180021Y-75994905D01*
X105172062Y-76013297D01*
X105172061Y-76013300D01*
X105165228Y-76056438D01*
X105162860Y-76067869D01*
X105152001Y-76110166D01*
X105152000Y-76110177D01*
X105152000Y-76130211D01*
X105150473Y-76149608D01*
X105147340Y-76169391D01*
X105149176Y-76188818D01*
X105151450Y-76212869D01*
X105152000Y-76224538D01*
X105152000Y-78220281D01*
X105132315Y-78287320D01*
X105120150Y-78303253D01*
X104994966Y-78442284D01*
X104900321Y-78606215D01*
X104900318Y-78606222D01*
X104846362Y-78772284D01*
X104841826Y-78786244D01*
X104822040Y-78974500D01*
X85041634Y-78974500D01*
X85242535Y-78897381D01*
X85569406Y-78730831D01*
X85877064Y-78531036D01*
X86110148Y-78342287D01*
X85224345Y-77456484D01*
X85437973Y-77263270D01*
X85575531Y-77100564D01*
X86463701Y-77988734D01*
X86652450Y-77755650D01*
X86852245Y-77447992D01*
X87018795Y-77121121D01*
X87150263Y-76778637D01*
X87245215Y-76424272D01*
X87245215Y-76424270D01*
X87302602Y-76061939D01*
X87321803Y-75695586D01*
X87321803Y-75695585D01*
X87302602Y-75329232D01*
X87245215Y-74966901D01*
X87245215Y-74966899D01*
X87150263Y-74612534D01*
X87018795Y-74270050D01*
X86852245Y-73943180D01*
X86652446Y-73635515D01*
X86463701Y-73402436D01*
X85576141Y-74289995D01*
X85539063Y-74239672D01*
X85329644Y-74023134D01*
X85221387Y-73937645D01*
X86110149Y-73048883D01*
X85877070Y-72860139D01*
X85569406Y-72660340D01*
X85242535Y-72493790D01*
X84900051Y-72362322D01*
X84545685Y-72267370D01*
X84183353Y-72209983D01*
X83817001Y-72190783D01*
X83816999Y-72190783D01*
X83450646Y-72209983D01*
X83088315Y-72267370D01*
X83088313Y-72267370D01*
X82733948Y-72362322D01*
X82391464Y-72493790D01*
X82064594Y-72660340D01*
X81756924Y-72860143D01*
X81523849Y-73048882D01*
X81523849Y-73048883D01*
X82409654Y-73934687D01*
X82196027Y-74127902D01*
X82058468Y-74290606D01*
X81170297Y-73402435D01*
X81170296Y-73402435D01*
X80981557Y-73635510D01*
X80781754Y-73943180D01*
X80615204Y-74270050D01*
X80483736Y-74612534D01*
X80388784Y-74966899D01*
X80388784Y-74966901D01*
X80363973Y-75123554D01*
X80334044Y-75186689D01*
X80274732Y-75223620D01*
X80204870Y-75222622D01*
X80146637Y-75184012D01*
X80118523Y-75120049D01*
X80117500Y-75104156D01*
X80117500Y-74124138D01*
X80102196Y-73910158D01*
X80077182Y-73795172D01*
X80041371Y-73630548D01*
X80041370Y-73630546D01*
X80041369Y-73630540D01*
X79941367Y-73362425D01*
X79804226Y-73111271D01*
X79757523Y-73048883D01*
X79632745Y-72882198D01*
X79632729Y-72882180D01*
X79430405Y-72679856D01*
X79430387Y-72679840D01*
X79201317Y-72508361D01*
X79201309Y-72508356D01*
X78950166Y-72371221D01*
X78950167Y-72371221D01*
X78842915Y-72331218D01*
X78682046Y-72271217D01*
X78682043Y-72271216D01*
X78682037Y-72271214D01*
X78402433Y-72210390D01*
X78188450Y-72195086D01*
X78188448Y-72195086D01*
X75045552Y-72195086D01*
X75045549Y-72195086D01*
X74831566Y-72210390D01*
X74551962Y-72271214D01*
X74283833Y-72371221D01*
X74032690Y-72508356D01*
X74032682Y-72508361D01*
X73803612Y-72679840D01*
X73803594Y-72679856D01*
X73601270Y-72882180D01*
X73601254Y-72882198D01*
X73429775Y-73111268D01*
X73429770Y-73111276D01*
X73292635Y-73362419D01*
X73192628Y-73630548D01*
X73131804Y-73910152D01*
X73116500Y-74124135D01*
X73116500Y-77267036D01*
X70583041Y-77267036D01*
X65262237Y-71946232D01*
X65228752Y-71884909D01*
X65230142Y-71826462D01*
X65257063Y-71725994D01*
X65277659Y-71490586D01*
X65257063Y-71255178D01*
X65195903Y-71026923D01*
X65096035Y-70812757D01*
X65085334Y-70797475D01*
X64960496Y-70619186D01*
X64946895Y-70605585D01*
X64838567Y-70497257D01*
X64805084Y-70435937D01*
X64810068Y-70366245D01*
X64851939Y-70310311D01*
X64882915Y-70293396D01*
X65014331Y-70244382D01*
X65129546Y-70158132D01*
X65215796Y-70042917D01*
X65266091Y-69908069D01*
X65272500Y-69848459D01*
X65272499Y-68052714D01*
X65266091Y-67993103D01*
X65263531Y-67986240D01*
X65215797Y-67858257D01*
X65215793Y-67858250D01*
X65129547Y-67743041D01*
X65129544Y-67743038D01*
X65014335Y-67656792D01*
X65014328Y-67656788D01*
X64879482Y-67606494D01*
X64879483Y-67606494D01*
X64819883Y-67600087D01*
X64819881Y-67600086D01*
X64819873Y-67600086D01*
X64819864Y-67600086D01*
X63024129Y-67600086D01*
X63024123Y-67600087D01*
X62964516Y-67606494D01*
X62829671Y-67656788D01*
X62829664Y-67656792D01*
X62714455Y-67743038D01*
X62714452Y-67743041D01*
X62628206Y-67858250D01*
X62628202Y-67858257D01*
X62577908Y-67993103D01*
X62573749Y-68031792D01*
X62571501Y-68052709D01*
X62571500Y-68052721D01*
X62571500Y-69848456D01*
X62571501Y-69848462D01*
X62577908Y-69908069D01*
X62628202Y-70042914D01*
X62628206Y-70042921D01*
X62714452Y-70158130D01*
X62714455Y-70158133D01*
X62829664Y-70244379D01*
X62829671Y-70244383D01*
X62961081Y-70293396D01*
X63017015Y-70335267D01*
X63041432Y-70400731D01*
X63026580Y-70469004D01*
X63005430Y-70497259D01*
X62883503Y-70619186D01*
X62747965Y-70812755D01*
X62747964Y-70812757D01*
X62648098Y-71026921D01*
X62648094Y-71026930D01*
X62586938Y-71255172D01*
X62586936Y-71255182D01*
X62566341Y-71490585D01*
X62566341Y-71490586D01*
X62586936Y-71725989D01*
X62586938Y-71725999D01*
X62648094Y-71954241D01*
X62648096Y-71954245D01*
X62648097Y-71954249D01*
X62701692Y-72069184D01*
X62747965Y-72168416D01*
X62747967Y-72168420D01*
X62883501Y-72361981D01*
X62883506Y-72361988D01*
X63050597Y-72529079D01*
X63050603Y-72529084D01*
X63236158Y-72659011D01*
X63279783Y-72713588D01*
X63286977Y-72783086D01*
X63255454Y-72845441D01*
X63236158Y-72862161D01*
X63050597Y-72992091D01*
X62883505Y-73159183D01*
X62747965Y-73352755D01*
X62747964Y-73352757D01*
X62648098Y-73566921D01*
X62648094Y-73566930D01*
X62586938Y-73795172D01*
X62586936Y-73795182D01*
X62566341Y-74030585D01*
X62566341Y-74030586D01*
X50792500Y-74030586D01*
X50792500Y-69275586D01*
X54696341Y-69275586D01*
X54716936Y-69510989D01*
X54716938Y-69510999D01*
X54778094Y-69739241D01*
X54778096Y-69739245D01*
X54778097Y-69739249D01*
X54856819Y-69908068D01*
X54877965Y-69953416D01*
X54877967Y-69953420D01*
X54940632Y-70042914D01*
X55013505Y-70146987D01*
X55180599Y-70314081D01*
X55277384Y-70381851D01*
X55374165Y-70449618D01*
X55374167Y-70449619D01*
X55374170Y-70449621D01*
X55588337Y-70549489D01*
X55816592Y-70610649D01*
X56004918Y-70627125D01*
X56051999Y-70631245D01*
X56052000Y-70631245D01*
X56052001Y-70631245D01*
X56091234Y-70627812D01*
X56287408Y-70610649D01*
X56515663Y-70549489D01*
X56729830Y-70449621D01*
X56923401Y-70314081D01*
X57090495Y-70146987D01*
X57226035Y-69953416D01*
X57325903Y-69739249D01*
X57387063Y-69510994D01*
X57407659Y-69275586D01*
X57387063Y-69040178D01*
X57327983Y-68819685D01*
X57325905Y-68811930D01*
X57325904Y-68811929D01*
X57325903Y-68811923D01*
X57226035Y-68597757D01*
X57175392Y-68525430D01*
X57090494Y-68404183D01*
X56923402Y-68237092D01*
X56923396Y-68237087D01*
X56737842Y-68107161D01*
X56694217Y-68052584D01*
X56687023Y-67983086D01*
X56718546Y-67920731D01*
X56737842Y-67904011D01*
X56803195Y-67858250D01*
X56923401Y-67774081D01*
X57090495Y-67606987D01*
X57226035Y-67413416D01*
X57325903Y-67199249D01*
X57387063Y-66970994D01*
X57403284Y-66785586D01*
X58336341Y-66785586D01*
X58356936Y-67020989D01*
X58356938Y-67020999D01*
X58418094Y-67249241D01*
X58418096Y-67249245D01*
X58418097Y-67249249D01*
X58509147Y-67444506D01*
X58517965Y-67463416D01*
X58517967Y-67463420D01*
X58618149Y-67606494D01*
X58653501Y-67656982D01*
X58653506Y-67656988D01*
X58775430Y-67778912D01*
X58808915Y-67840235D01*
X58803931Y-67909927D01*
X58762059Y-67965860D01*
X58731083Y-67982775D01*
X58599669Y-68031789D01*
X58599664Y-68031792D01*
X58484455Y-68118038D01*
X58484452Y-68118041D01*
X58398206Y-68233250D01*
X58398202Y-68233257D01*
X58347908Y-68368103D01*
X58341501Y-68427702D01*
X58341501Y-68427709D01*
X58341500Y-68427721D01*
X58341500Y-70223456D01*
X58341501Y-70223462D01*
X58347908Y-70283069D01*
X58398202Y-70417914D01*
X58398206Y-70417921D01*
X58484452Y-70533130D01*
X58484455Y-70533133D01*
X58599664Y-70619379D01*
X58599671Y-70619383D01*
X58734517Y-70669677D01*
X58734516Y-70669677D01*
X58741444Y-70670421D01*
X58794127Y-70676086D01*
X60589872Y-70676085D01*
X60649483Y-70669677D01*
X60784331Y-70619382D01*
X60899546Y-70533132D01*
X60985796Y-70417917D01*
X61036091Y-70283069D01*
X61042500Y-70223459D01*
X61042499Y-68427714D01*
X61036091Y-68368103D01*
X60994829Y-68257475D01*
X60985797Y-68233257D01*
X60985793Y-68233250D01*
X60899547Y-68118041D01*
X60899544Y-68118038D01*
X60784335Y-68031792D01*
X60784328Y-68031788D01*
X60652917Y-67982775D01*
X60596983Y-67940904D01*
X60572566Y-67875439D01*
X60587418Y-67807166D01*
X60608563Y-67778918D01*
X60730495Y-67656987D01*
X60866035Y-67463416D01*
X60965903Y-67249249D01*
X61027063Y-67020994D01*
X61047659Y-66785586D01*
X61027063Y-66550178D01*
X60965903Y-66321923D01*
X60866035Y-66107757D01*
X60831024Y-66057755D01*
X60730494Y-65914183D01*
X60563402Y-65747092D01*
X60563396Y-65747087D01*
X60377842Y-65617161D01*
X60334217Y-65562584D01*
X60327023Y-65493086D01*
X60358546Y-65430731D01*
X60377842Y-65414011D01*
X60400026Y-65398477D01*
X60563401Y-65284081D01*
X60730495Y-65116987D01*
X60866035Y-64923416D01*
X60965903Y-64709249D01*
X61027063Y-64480994D01*
X61047659Y-64245586D01*
X61027063Y-64010178D01*
X60965903Y-63781923D01*
X60866035Y-63567757D01*
X60831024Y-63517755D01*
X60730494Y-63374183D01*
X60563402Y-63207092D01*
X60563396Y-63207087D01*
X60377842Y-63077161D01*
X60334217Y-63022584D01*
X60327023Y-62953086D01*
X60358546Y-62890731D01*
X60377842Y-62874011D01*
X60400026Y-62858477D01*
X60563401Y-62744081D01*
X60730495Y-62576987D01*
X60866035Y-62383416D01*
X60965903Y-62169249D01*
X61027063Y-61940994D01*
X61047659Y-61705586D01*
X61027063Y-61470178D01*
X60965903Y-61241923D01*
X60866035Y-61027757D01*
X60831024Y-60977755D01*
X60730494Y-60834183D01*
X60563402Y-60667092D01*
X60563396Y-60667087D01*
X60377842Y-60537161D01*
X60334217Y-60482584D01*
X60327023Y-60413086D01*
X60358546Y-60350731D01*
X60377842Y-60334011D01*
X60400026Y-60318477D01*
X60563401Y-60204081D01*
X60730495Y-60036987D01*
X60866035Y-59843416D01*
X60965903Y-59629249D01*
X61027063Y-59400994D01*
X61047659Y-59165586D01*
X61027063Y-58930178D01*
X60966052Y-58702480D01*
X60965905Y-58701930D01*
X60965904Y-58701929D01*
X60965903Y-58701923D01*
X60866035Y-58487757D01*
X60838257Y-58448085D01*
X60730494Y-58294183D01*
X60563402Y-58127092D01*
X60563396Y-58127087D01*
X60377842Y-57997161D01*
X60334217Y-57942584D01*
X60327023Y-57873086D01*
X60358546Y-57810731D01*
X60377842Y-57794011D01*
X60400026Y-57778477D01*
X60563401Y-57664081D01*
X60730495Y-57496987D01*
X60866035Y-57303416D01*
X60965903Y-57089249D01*
X61027063Y-56860994D01*
X61047659Y-56625586D01*
X61027063Y-56390178D01*
X60965903Y-56161923D01*
X60866035Y-55947757D01*
X60831024Y-55897755D01*
X60730494Y-55754183D01*
X60563402Y-55587092D01*
X60563396Y-55587087D01*
X60377842Y-55457161D01*
X60334217Y-55402584D01*
X60327023Y-55333086D01*
X60358546Y-55270731D01*
X60377842Y-55254011D01*
X60400026Y-55238477D01*
X60563401Y-55124081D01*
X60730495Y-54956987D01*
X60866035Y-54763416D01*
X60965903Y-54549249D01*
X61027063Y-54320994D01*
X61047659Y-54085586D01*
X61027063Y-53850178D01*
X60965903Y-53621923D01*
X60866035Y-53407757D01*
X60837662Y-53367235D01*
X60730494Y-53214183D01*
X60563402Y-53047092D01*
X60563396Y-53047087D01*
X60377842Y-52917161D01*
X60334217Y-52862584D01*
X60327023Y-52793086D01*
X60358546Y-52730731D01*
X60377842Y-52714011D01*
X60400026Y-52698477D01*
X60563401Y-52584081D01*
X60730495Y-52416987D01*
X60866035Y-52223416D01*
X60965903Y-52009249D01*
X61027063Y-51780994D01*
X61047659Y-51545586D01*
X61027063Y-51310178D01*
X60965903Y-51081923D01*
X60866035Y-50867757D01*
X60831024Y-50817755D01*
X60730494Y-50674183D01*
X60563402Y-50507092D01*
X60563396Y-50507087D01*
X60377842Y-50377161D01*
X60334217Y-50322584D01*
X60327023Y-50253086D01*
X60358546Y-50190731D01*
X60377842Y-50174011D01*
X60400026Y-50158477D01*
X60563401Y-50044081D01*
X60730495Y-49876987D01*
X60866035Y-49683416D01*
X60965903Y-49469249D01*
X61027063Y-49240994D01*
X61047659Y-49005586D01*
X61027063Y-48770178D01*
X60965903Y-48541923D01*
X60866035Y-48327757D01*
X60831024Y-48277755D01*
X60730494Y-48134183D01*
X60563402Y-47967092D01*
X60563396Y-47967087D01*
X60377842Y-47837161D01*
X60334217Y-47782584D01*
X60327023Y-47713086D01*
X60358546Y-47650731D01*
X60377842Y-47634011D01*
X60400026Y-47618477D01*
X60563401Y-47504081D01*
X60730495Y-47336987D01*
X60866035Y-47143416D01*
X60965903Y-46929249D01*
X60972400Y-46905000D01*
X63009341Y-46905000D01*
X63029936Y-47140403D01*
X63029938Y-47140413D01*
X63091094Y-47368655D01*
X63091096Y-47368659D01*
X63091097Y-47368663D01*
X63154243Y-47504079D01*
X63190965Y-47582830D01*
X63190967Y-47582834D01*
X63278670Y-47708086D01*
X63326505Y-47776401D01*
X63493599Y-47943495D01*
X63527292Y-47967087D01*
X63687165Y-48079032D01*
X63687167Y-48079033D01*
X63687170Y-48079035D01*
X63901337Y-48178903D01*
X64129592Y-48240063D01*
X64317918Y-48256539D01*
X64364999Y-48260659D01*
X64365000Y-48260659D01*
X64365001Y-48260659D01*
X64404234Y-48257226D01*
X64600408Y-48240063D01*
X64828663Y-48178903D01*
X65042830Y-48079035D01*
X65236401Y-47943495D01*
X65403495Y-47776401D01*
X65539035Y-47582830D01*
X65638903Y-47368663D01*
X65700063Y-47140408D01*
X65720659Y-46905000D01*
X65700063Y-46669592D01*
X65638903Y-46441337D01*
X65539035Y-46227171D01*
X65506131Y-46180178D01*
X65403494Y-46033597D01*
X65236402Y-45866506D01*
X65236396Y-45866501D01*
X65050842Y-45736575D01*
X65007217Y-45681998D01*
X65000023Y-45612500D01*
X65031546Y-45550145D01*
X65050842Y-45533425D01*
X65073026Y-45517891D01*
X65236401Y-45403495D01*
X65403495Y-45236401D01*
X65539035Y-45042830D01*
X65638903Y-44828663D01*
X65700063Y-44600408D01*
X65720659Y-44365000D01*
X65700063Y-44129592D01*
X65638903Y-43901337D01*
X65597911Y-43813430D01*
X92217000Y-43813430D01*
X92223401Y-43872958D01*
X92223403Y-43872965D01*
X92273645Y-44007672D01*
X92273649Y-44007679D01*
X92359809Y-44122773D01*
X92359812Y-44122776D01*
X92474906Y-44208936D01*
X92474913Y-44208940D01*
X92606986Y-44258200D01*
X92662920Y-44300071D01*
X92687337Y-44365535D01*
X92672486Y-44433808D01*
X92651335Y-44462063D01*
X92528886Y-44584512D01*
X92393400Y-44778006D01*
X92393399Y-44778008D01*
X92293570Y-44992093D01*
X92293567Y-44992099D01*
X92236364Y-45205585D01*
X92236364Y-45205586D01*
X93133314Y-45205586D01*
X93107507Y-45245742D01*
X93067000Y-45383697D01*
X93067000Y-45527475D01*
X93107507Y-45665430D01*
X93133314Y-45705586D01*
X92236364Y-45705586D01*
X92293567Y-45919072D01*
X92293570Y-45919078D01*
X92393399Y-46133164D01*
X92528894Y-46326668D01*
X92695917Y-46493691D01*
X92882031Y-46624011D01*
X92925656Y-46678589D01*
X92932848Y-46748087D01*
X92901326Y-46810442D01*
X92882031Y-46827161D01*
X92695922Y-46957476D01*
X92695920Y-46957477D01*
X92528891Y-47124506D01*
X92528886Y-47124512D01*
X92393400Y-47318006D01*
X92393399Y-47318008D01*
X92293570Y-47532093D01*
X92293567Y-47532099D01*
X92236364Y-47745585D01*
X92236364Y-47745586D01*
X93133314Y-47745586D01*
X93107507Y-47785742D01*
X93067000Y-47923697D01*
X93067000Y-48067475D01*
X93107507Y-48205430D01*
X93133314Y-48245586D01*
X92236364Y-48245586D01*
X92293567Y-48459072D01*
X92293570Y-48459078D01*
X92393399Y-48673164D01*
X92528894Y-48866668D01*
X92695917Y-49033691D01*
X92882031Y-49164011D01*
X92925656Y-49218589D01*
X92932848Y-49288087D01*
X92901326Y-49350442D01*
X92882031Y-49367161D01*
X92695922Y-49497476D01*
X92695920Y-49497477D01*
X92528891Y-49664506D01*
X92528886Y-49664512D01*
X92393400Y-49858006D01*
X92393399Y-49858008D01*
X92293570Y-50072093D01*
X92293567Y-50072099D01*
X92236364Y-50285585D01*
X92236364Y-50285586D01*
X93133314Y-50285586D01*
X93107507Y-50325742D01*
X93067000Y-50463697D01*
X93067000Y-50607475D01*
X93107507Y-50745430D01*
X93133314Y-50785586D01*
X92236364Y-50785586D01*
X92293567Y-50999072D01*
X92293570Y-50999078D01*
X92393399Y-51213164D01*
X92528894Y-51406668D01*
X92695917Y-51573691D01*
X92882031Y-51704011D01*
X92925656Y-51758589D01*
X92932848Y-51828087D01*
X92901326Y-51890442D01*
X92882031Y-51907161D01*
X92695922Y-52037476D01*
X92695920Y-52037477D01*
X92528891Y-52204506D01*
X92528886Y-52204512D01*
X92393400Y-52398006D01*
X92393399Y-52398008D01*
X92293570Y-52612093D01*
X92293567Y-52612099D01*
X92236364Y-52825585D01*
X92236364Y-52825586D01*
X93133314Y-52825586D01*
X93107507Y-52865742D01*
X93067000Y-53003697D01*
X93067000Y-53147475D01*
X93107507Y-53285430D01*
X93133314Y-53325586D01*
X92236364Y-53325586D01*
X92293567Y-53539072D01*
X92293570Y-53539078D01*
X92393399Y-53753164D01*
X92528894Y-53946668D01*
X92695917Y-54113691D01*
X92882031Y-54244011D01*
X92925656Y-54298589D01*
X92932848Y-54368087D01*
X92901326Y-54430442D01*
X92882031Y-54447161D01*
X92695922Y-54577476D01*
X92695920Y-54577477D01*
X92528891Y-54744506D01*
X92528886Y-54744512D01*
X92393400Y-54938006D01*
X92393399Y-54938008D01*
X92293570Y-55152093D01*
X92293567Y-55152099D01*
X92236364Y-55365585D01*
X92236364Y-55365586D01*
X93133314Y-55365586D01*
X93107507Y-55405742D01*
X93067000Y-55543697D01*
X93067000Y-55687475D01*
X93107507Y-55825430D01*
X93133314Y-55865586D01*
X92236364Y-55865586D01*
X92293567Y-56079072D01*
X92293570Y-56079078D01*
X92393399Y-56293164D01*
X92528894Y-56486668D01*
X92695917Y-56653691D01*
X92882031Y-56784011D01*
X92925656Y-56838589D01*
X92932848Y-56908087D01*
X92901326Y-56970442D01*
X92882031Y-56987161D01*
X92695922Y-57117476D01*
X92695920Y-57117477D01*
X92528891Y-57284506D01*
X92528886Y-57284512D01*
X92393400Y-57478006D01*
X92393399Y-57478008D01*
X92293570Y-57692093D01*
X92293567Y-57692099D01*
X92236364Y-57905585D01*
X92236364Y-57905586D01*
X93133314Y-57905586D01*
X93107507Y-57945742D01*
X93067000Y-58083697D01*
X93067000Y-58227475D01*
X93107507Y-58365430D01*
X93133314Y-58405586D01*
X92236364Y-58405586D01*
X92293567Y-58619072D01*
X92293570Y-58619078D01*
X92393399Y-58833164D01*
X92528894Y-59026668D01*
X92695917Y-59193691D01*
X92882031Y-59324011D01*
X92925656Y-59378589D01*
X92932848Y-59448087D01*
X92901326Y-59510442D01*
X92882031Y-59527161D01*
X92695922Y-59657476D01*
X92695920Y-59657477D01*
X92528891Y-59824506D01*
X92528886Y-59824512D01*
X92393400Y-60018006D01*
X92393399Y-60018008D01*
X92293570Y-60232093D01*
X92293567Y-60232099D01*
X92236364Y-60445585D01*
X92236364Y-60445586D01*
X93133314Y-60445586D01*
X93107507Y-60485742D01*
X93067000Y-60623697D01*
X93067000Y-60767475D01*
X93107507Y-60905430D01*
X93133314Y-60945586D01*
X92236364Y-60945586D01*
X92293567Y-61159072D01*
X92293570Y-61159078D01*
X92393399Y-61373164D01*
X92528894Y-61566668D01*
X92695917Y-61733691D01*
X92882031Y-61864011D01*
X92925656Y-61918589D01*
X92932848Y-61988087D01*
X92901326Y-62050442D01*
X92882031Y-62067161D01*
X92695922Y-62197476D01*
X92695920Y-62197477D01*
X92528891Y-62364506D01*
X92528886Y-62364512D01*
X92393400Y-62558006D01*
X92393399Y-62558008D01*
X92293570Y-62772093D01*
X92293567Y-62772099D01*
X92236364Y-62985585D01*
X92236364Y-62985586D01*
X93133314Y-62985586D01*
X93107507Y-63025742D01*
X93067000Y-63163697D01*
X93067000Y-63307475D01*
X93107507Y-63445430D01*
X93133314Y-63485586D01*
X92236364Y-63485586D01*
X92293567Y-63699072D01*
X92293570Y-63699078D01*
X92393399Y-63913164D01*
X92528894Y-64106668D01*
X92695917Y-64273691D01*
X92882031Y-64404011D01*
X92925656Y-64458589D01*
X92932848Y-64528087D01*
X92901326Y-64590442D01*
X92882031Y-64607161D01*
X92695922Y-64737476D01*
X92695920Y-64737477D01*
X92528891Y-64904506D01*
X92528886Y-64904512D01*
X92393400Y-65098006D01*
X92393399Y-65098008D01*
X92293570Y-65312093D01*
X92293567Y-65312099D01*
X92236364Y-65525585D01*
X92236364Y-65525586D01*
X93133314Y-65525586D01*
X93107507Y-65565742D01*
X93067000Y-65703697D01*
X93067000Y-65847475D01*
X93107507Y-65985430D01*
X93133314Y-66025586D01*
X92236364Y-66025586D01*
X92293567Y-66239072D01*
X92293570Y-66239078D01*
X92393399Y-66453164D01*
X92528894Y-66646668D01*
X92695917Y-66813691D01*
X92882031Y-66944011D01*
X92925656Y-66998589D01*
X92932848Y-67068087D01*
X92901326Y-67130442D01*
X92882031Y-67147161D01*
X92695922Y-67277476D01*
X92695920Y-67277477D01*
X92528891Y-67444506D01*
X92528886Y-67444512D01*
X92393400Y-67638006D01*
X92393399Y-67638008D01*
X92293570Y-67852093D01*
X92293567Y-67852099D01*
X92236364Y-68065585D01*
X92236364Y-68065586D01*
X93133314Y-68065586D01*
X93107507Y-68105742D01*
X93067000Y-68243697D01*
X93067000Y-68387475D01*
X93107507Y-68525430D01*
X93133314Y-68565586D01*
X92236364Y-68565586D01*
X92293567Y-68779072D01*
X92293570Y-68779078D01*
X92393399Y-68993164D01*
X92528894Y-69186668D01*
X92695917Y-69353691D01*
X92882031Y-69484011D01*
X92925656Y-69538589D01*
X92932848Y-69608087D01*
X92901326Y-69670442D01*
X92882031Y-69687161D01*
X92695922Y-69817476D01*
X92695920Y-69817477D01*
X92528891Y-69984506D01*
X92528886Y-69984512D01*
X92393400Y-70178006D01*
X92393399Y-70178008D01*
X92293570Y-70392093D01*
X92293567Y-70392099D01*
X92236364Y-70605585D01*
X92236364Y-70605586D01*
X93133314Y-70605586D01*
X93107507Y-70645742D01*
X93067000Y-70783697D01*
X93067000Y-70927475D01*
X93107507Y-71065430D01*
X93133314Y-71105586D01*
X92236364Y-71105586D01*
X92293567Y-71319072D01*
X92293570Y-71319078D01*
X92393399Y-71533164D01*
X92528894Y-71726668D01*
X92695917Y-71893691D01*
X92889421Y-72029186D01*
X93103507Y-72129015D01*
X93103516Y-72129019D01*
X93317000Y-72186220D01*
X93317000Y-71291087D01*
X93424685Y-71340266D01*
X93531237Y-71355586D01*
X93602763Y-71355586D01*
X93709315Y-71340266D01*
X93817000Y-71291087D01*
X93817000Y-72186219D01*
X94030483Y-72129019D01*
X94030492Y-72129015D01*
X94244578Y-72029186D01*
X94438082Y-71893691D01*
X94605105Y-71726668D01*
X94677394Y-71623430D01*
X96062000Y-71623430D01*
X96068401Y-71682958D01*
X96068403Y-71682965D01*
X96118645Y-71817672D01*
X96118649Y-71817679D01*
X96204809Y-71932773D01*
X96204812Y-71932776D01*
X96319906Y-72018936D01*
X96319913Y-72018940D01*
X96454620Y-72069182D01*
X96454627Y-72069184D01*
X96514155Y-72075585D01*
X96514172Y-72075586D01*
X97162000Y-72075586D01*
X97162000Y-71161087D01*
X97269685Y-71210266D01*
X97376237Y-71225586D01*
X97447763Y-71225586D01*
X97554315Y-71210266D01*
X97662000Y-71161087D01*
X97662000Y-72075586D01*
X98309828Y-72075586D01*
X98309844Y-72075585D01*
X98369372Y-72069184D01*
X98369379Y-72069182D01*
X98504086Y-72018940D01*
X98504093Y-72018936D01*
X98619187Y-71932776D01*
X98619190Y-71932773D01*
X98705350Y-71817679D01*
X98705354Y-71817672D01*
X98755596Y-71682965D01*
X98755598Y-71682958D01*
X98761999Y-71623430D01*
X98762000Y-71623413D01*
X98762000Y-70975586D01*
X97845686Y-70975586D01*
X97871493Y-70935430D01*
X97912000Y-70797475D01*
X97912000Y-70653697D01*
X97871493Y-70515742D01*
X97845686Y-70475586D01*
X98762000Y-70475586D01*
X98762000Y-69827758D01*
X98761999Y-69827741D01*
X98755598Y-69768213D01*
X98755596Y-69768206D01*
X98705354Y-69633499D01*
X98705350Y-69633492D01*
X98619190Y-69518398D01*
X98619187Y-69518395D01*
X98504093Y-69432235D01*
X98504086Y-69432231D01*
X98372013Y-69382971D01*
X98316079Y-69341100D01*
X98291662Y-69275635D01*
X98306514Y-69207362D01*
X98327665Y-69179107D01*
X98450108Y-69056664D01*
X98585600Y-68863164D01*
X98685429Y-68649078D01*
X98685432Y-68649072D01*
X98742636Y-68435586D01*
X97845686Y-68435586D01*
X97871493Y-68395430D01*
X97912000Y-68257475D01*
X97912000Y-68113697D01*
X97871493Y-67975742D01*
X97845686Y-67935586D01*
X98742636Y-67935586D01*
X98742635Y-67935585D01*
X98685432Y-67722099D01*
X98685429Y-67722093D01*
X98585600Y-67508008D01*
X98585599Y-67508006D01*
X98450113Y-67314512D01*
X98450108Y-67314506D01*
X98283082Y-67147480D01*
X98096968Y-67017161D01*
X98053344Y-66962584D01*
X98046151Y-66893085D01*
X98077673Y-66830731D01*
X98096968Y-66814011D01*
X98283082Y-66683691D01*
X98450105Y-66516668D01*
X98585600Y-66323164D01*
X98685429Y-66109078D01*
X98685432Y-66109072D01*
X98742636Y-65895586D01*
X97845686Y-65895586D01*
X97871493Y-65855430D01*
X97912000Y-65717475D01*
X97912000Y-65573697D01*
X97871493Y-65435742D01*
X97845686Y-65395586D01*
X98742636Y-65395586D01*
X98742635Y-65395585D01*
X98685432Y-65182099D01*
X98685429Y-65182093D01*
X98585600Y-64968008D01*
X98585599Y-64968006D01*
X98450113Y-64774512D01*
X98450108Y-64774506D01*
X98283082Y-64607480D01*
X98096968Y-64477161D01*
X98053344Y-64422584D01*
X98046151Y-64353085D01*
X98077673Y-64290731D01*
X98096968Y-64274011D01*
X98283082Y-64143691D01*
X98450105Y-63976668D01*
X98585600Y-63783164D01*
X98685429Y-63569078D01*
X98685432Y-63569072D01*
X98742636Y-63355586D01*
X97845686Y-63355586D01*
X97871493Y-63315430D01*
X97912000Y-63177475D01*
X97912000Y-63033697D01*
X97871493Y-62895742D01*
X97845686Y-62855586D01*
X98742636Y-62855586D01*
X98742635Y-62855585D01*
X98685432Y-62642099D01*
X98685429Y-62642093D01*
X98585600Y-62428008D01*
X98585599Y-62428006D01*
X98450113Y-62234512D01*
X98450108Y-62234506D01*
X98283082Y-62067480D01*
X98096968Y-61937161D01*
X98053344Y-61882584D01*
X98046151Y-61813085D01*
X98077673Y-61750731D01*
X98096968Y-61734011D01*
X98283082Y-61603691D01*
X98450105Y-61436668D01*
X98585600Y-61243164D01*
X98685429Y-61029078D01*
X98685432Y-61029072D01*
X98742636Y-60815586D01*
X97845686Y-60815586D01*
X97871493Y-60775430D01*
X97912000Y-60637475D01*
X97912000Y-60493697D01*
X97871493Y-60355742D01*
X97845686Y-60315586D01*
X98742636Y-60315586D01*
X98742635Y-60315585D01*
X98685432Y-60102099D01*
X98685429Y-60102093D01*
X98585600Y-59888008D01*
X98585599Y-59888006D01*
X98450113Y-59694512D01*
X98450108Y-59694506D01*
X98283082Y-59527480D01*
X98096968Y-59397161D01*
X98053344Y-59342584D01*
X98046151Y-59273085D01*
X98077673Y-59210731D01*
X98096968Y-59194011D01*
X98283082Y-59063691D01*
X98450105Y-58896668D01*
X98585600Y-58703164D01*
X98685429Y-58489078D01*
X98685432Y-58489072D01*
X98742636Y-58275586D01*
X97845686Y-58275586D01*
X97871493Y-58235430D01*
X97912000Y-58097475D01*
X97912000Y-57953697D01*
X97871493Y-57815742D01*
X97845686Y-57775586D01*
X98742636Y-57775586D01*
X98742635Y-57775585D01*
X98685432Y-57562099D01*
X98685429Y-57562093D01*
X98585600Y-57348008D01*
X98585599Y-57348006D01*
X98450113Y-57154512D01*
X98450108Y-57154506D01*
X98283082Y-56987480D01*
X98096968Y-56857161D01*
X98053344Y-56802584D01*
X98046151Y-56733085D01*
X98077673Y-56670731D01*
X98096968Y-56654011D01*
X98283082Y-56523691D01*
X98450105Y-56356668D01*
X98585600Y-56163164D01*
X98685429Y-55949078D01*
X98685432Y-55949072D01*
X98742636Y-55735586D01*
X97845686Y-55735586D01*
X97871493Y-55695430D01*
X97911720Y-55558430D01*
X102457000Y-55558430D01*
X102463401Y-55617958D01*
X102463403Y-55617965D01*
X102513645Y-55752672D01*
X102513649Y-55752679D01*
X102599809Y-55867773D01*
X102599812Y-55867776D01*
X102714906Y-55953936D01*
X102714913Y-55953940D01*
X102846986Y-56003200D01*
X102902920Y-56045071D01*
X102927337Y-56110535D01*
X102912486Y-56178808D01*
X102891335Y-56207063D01*
X102768886Y-56329512D01*
X102633400Y-56523006D01*
X102633399Y-56523008D01*
X102533570Y-56737093D01*
X102533567Y-56737099D01*
X102476364Y-56950585D01*
X102476364Y-56950586D01*
X103373314Y-56950586D01*
X103347507Y-56990742D01*
X103307000Y-57128697D01*
X103307000Y-57272475D01*
X103347507Y-57410430D01*
X103373314Y-57450586D01*
X102476364Y-57450586D01*
X102533567Y-57664072D01*
X102533570Y-57664078D01*
X102633399Y-57878164D01*
X102768894Y-58071668D01*
X102935917Y-58238691D01*
X103122031Y-58369011D01*
X103165656Y-58423589D01*
X103172848Y-58493087D01*
X103141326Y-58555442D01*
X103122031Y-58572161D01*
X102935922Y-58702476D01*
X102935920Y-58702477D01*
X102768891Y-58869506D01*
X102768886Y-58869512D01*
X102633400Y-59063006D01*
X102633399Y-59063008D01*
X102533570Y-59277093D01*
X102533567Y-59277099D01*
X102476364Y-59490585D01*
X102476364Y-59490586D01*
X103373314Y-59490586D01*
X103347507Y-59530742D01*
X103307000Y-59668697D01*
X103307000Y-59812475D01*
X103347507Y-59950430D01*
X103373314Y-59990586D01*
X102476364Y-59990586D01*
X102533567Y-60204072D01*
X102533570Y-60204078D01*
X102633399Y-60418164D01*
X102768894Y-60611668D01*
X102935917Y-60778691D01*
X103129421Y-60914186D01*
X103343507Y-61014015D01*
X103343516Y-61014019D01*
X103557000Y-61071220D01*
X103557000Y-60176087D01*
X103664685Y-60225266D01*
X103771237Y-60240586D01*
X103842763Y-60240586D01*
X103949315Y-60225266D01*
X104057000Y-60176087D01*
X104057000Y-61071219D01*
X104270483Y-61014019D01*
X104270492Y-61014015D01*
X104484578Y-60914186D01*
X104678082Y-60778691D01*
X104845105Y-60611668D01*
X104980600Y-60418164D01*
X105080429Y-60204078D01*
X105080432Y-60204072D01*
X105137636Y-59990586D01*
X104240686Y-59990586D01*
X104266493Y-59950430D01*
X104307000Y-59812475D01*
X104307000Y-59668697D01*
X104266493Y-59530742D01*
X104240686Y-59490586D01*
X105137636Y-59490586D01*
X105137635Y-59490585D01*
X105080432Y-59277099D01*
X105080429Y-59277093D01*
X104980600Y-59063008D01*
X104980599Y-59063006D01*
X104845113Y-58869512D01*
X104845108Y-58869506D01*
X104678082Y-58702480D01*
X104491968Y-58572161D01*
X104448344Y-58517584D01*
X104441151Y-58448085D01*
X104472673Y-58385731D01*
X104491968Y-58369011D01*
X104678082Y-58238691D01*
X104845105Y-58071668D01*
X104980600Y-57878164D01*
X105080429Y-57664078D01*
X105080432Y-57664072D01*
X105137636Y-57450586D01*
X104240686Y-57450586D01*
X104266493Y-57410430D01*
X104307000Y-57272475D01*
X104307000Y-57128697D01*
X104266493Y-56990742D01*
X104240686Y-56950586D01*
X105137636Y-56950586D01*
X105137635Y-56950585D01*
X105080432Y-56737099D01*
X105080429Y-56737093D01*
X104980600Y-56523008D01*
X104980599Y-56523006D01*
X104845113Y-56329512D01*
X104845108Y-56329506D01*
X104722665Y-56207063D01*
X104689180Y-56145740D01*
X104694164Y-56076048D01*
X104736036Y-56020115D01*
X104767013Y-56003200D01*
X104899086Y-55953940D01*
X104899093Y-55953936D01*
X105014187Y-55867776D01*
X105014190Y-55867773D01*
X105100350Y-55752679D01*
X105100354Y-55752672D01*
X105150596Y-55617965D01*
X105150598Y-55617958D01*
X105156999Y-55558430D01*
X105157000Y-55558413D01*
X105157000Y-54910586D01*
X104240686Y-54910586D01*
X104266493Y-54870430D01*
X104307000Y-54732475D01*
X104307000Y-54588697D01*
X104266493Y-54450742D01*
X104240686Y-54410586D01*
X105157000Y-54410586D01*
X105157000Y-53762758D01*
X105156999Y-53762741D01*
X105150598Y-53703213D01*
X105150596Y-53703206D01*
X105100354Y-53568499D01*
X105100350Y-53568492D01*
X105014190Y-53453398D01*
X105014187Y-53453395D01*
X104899093Y-53367235D01*
X104899086Y-53367231D01*
X104764379Y-53316989D01*
X104764372Y-53316987D01*
X104704844Y-53310586D01*
X104057000Y-53310586D01*
X104057000Y-54225084D01*
X103949315Y-54175906D01*
X103842763Y-54160586D01*
X103771237Y-54160586D01*
X103664685Y-54175906D01*
X103557000Y-54225084D01*
X103557000Y-53310586D01*
X102909155Y-53310586D01*
X102849627Y-53316987D01*
X102849620Y-53316989D01*
X102714913Y-53367231D01*
X102714906Y-53367235D01*
X102599812Y-53453395D01*
X102599809Y-53453398D01*
X102513649Y-53568492D01*
X102513645Y-53568499D01*
X102463403Y-53703206D01*
X102463401Y-53703213D01*
X102457000Y-53762741D01*
X102457000Y-54410586D01*
X103373314Y-54410586D01*
X103347507Y-54450742D01*
X103307000Y-54588697D01*
X103307000Y-54732475D01*
X103347507Y-54870430D01*
X103373314Y-54910586D01*
X102457000Y-54910586D01*
X102457000Y-55558430D01*
X97911720Y-55558430D01*
X97912000Y-55557475D01*
X97912000Y-55413697D01*
X97871493Y-55275742D01*
X97845686Y-55235586D01*
X98742636Y-55235586D01*
X98742635Y-55235585D01*
X98685432Y-55022099D01*
X98685429Y-55022093D01*
X98585600Y-54808008D01*
X98585599Y-54808006D01*
X98450113Y-54614512D01*
X98450108Y-54614506D01*
X98283082Y-54447480D01*
X98096968Y-54317161D01*
X98053344Y-54262584D01*
X98046151Y-54193085D01*
X98077673Y-54130731D01*
X98096968Y-54114011D01*
X98283082Y-53983691D01*
X98450105Y-53816668D01*
X98585600Y-53623164D01*
X98685429Y-53409078D01*
X98685432Y-53409072D01*
X98742636Y-53195586D01*
X97845686Y-53195586D01*
X97871493Y-53155430D01*
X97912000Y-53017475D01*
X97912000Y-52873697D01*
X97871493Y-52735742D01*
X97845686Y-52695586D01*
X98742636Y-52695586D01*
X98742635Y-52695585D01*
X98685432Y-52482099D01*
X98685429Y-52482093D01*
X98585600Y-52268008D01*
X98585599Y-52268006D01*
X98450113Y-52074512D01*
X98450108Y-52074506D01*
X98283082Y-51907480D01*
X98096968Y-51777161D01*
X98053344Y-51722584D01*
X98046151Y-51653085D01*
X98077673Y-51590731D01*
X98096968Y-51574011D01*
X98283082Y-51443691D01*
X98450105Y-51276668D01*
X98585600Y-51083164D01*
X98685429Y-50869078D01*
X98685432Y-50869072D01*
X98742636Y-50655586D01*
X97845686Y-50655586D01*
X97871493Y-50615430D01*
X97912000Y-50477475D01*
X97912000Y-50333697D01*
X97871493Y-50195742D01*
X97845686Y-50155586D01*
X98742636Y-50155586D01*
X98742635Y-50155585D01*
X98685432Y-49942099D01*
X98685429Y-49942093D01*
X98585600Y-49728008D01*
X98585599Y-49728006D01*
X98450113Y-49534512D01*
X98450108Y-49534506D01*
X98283082Y-49367480D01*
X98096968Y-49237161D01*
X98053344Y-49182584D01*
X98046151Y-49113085D01*
X98077673Y-49050731D01*
X98096968Y-49034011D01*
X98283082Y-48903691D01*
X98450105Y-48736668D01*
X98585600Y-48543164D01*
X98685429Y-48329078D01*
X98685432Y-48329072D01*
X98742636Y-48115586D01*
X97845686Y-48115586D01*
X97871493Y-48075430D01*
X97912000Y-47937475D01*
X97912000Y-47793697D01*
X97871493Y-47655742D01*
X97845686Y-47615586D01*
X98742636Y-47615586D01*
X98742635Y-47615585D01*
X98685432Y-47402099D01*
X98685429Y-47402093D01*
X98585600Y-47188008D01*
X98585599Y-47188006D01*
X98450113Y-46994512D01*
X98450108Y-46994506D01*
X98283082Y-46827480D01*
X98096968Y-46697161D01*
X98053344Y-46642584D01*
X98046151Y-46573085D01*
X98077673Y-46510731D01*
X98096968Y-46494011D01*
X98283082Y-46363691D01*
X98450105Y-46196668D01*
X98585600Y-46003164D01*
X98685429Y-45789078D01*
X98685432Y-45789072D01*
X98742636Y-45575586D01*
X97845686Y-45575586D01*
X97871493Y-45535430D01*
X97912000Y-45397475D01*
X97912000Y-45253697D01*
X97871493Y-45115742D01*
X97845686Y-45075586D01*
X98742636Y-45075586D01*
X98742635Y-45075585D01*
X98685432Y-44862099D01*
X98685429Y-44862093D01*
X98585600Y-44648008D01*
X98585599Y-44648006D01*
X98450113Y-44454512D01*
X98450108Y-44454506D01*
X98283082Y-44287480D01*
X98096968Y-44157161D01*
X98053344Y-44102584D01*
X98046151Y-44033085D01*
X98077673Y-43970731D01*
X98096968Y-43954011D01*
X98283082Y-43823691D01*
X98450105Y-43656668D01*
X98585600Y-43463164D01*
X98685429Y-43249078D01*
X98685432Y-43249072D01*
X98742636Y-43035586D01*
X97845686Y-43035586D01*
X97871493Y-42995430D01*
X97912000Y-42857475D01*
X97912000Y-42713697D01*
X97871493Y-42575742D01*
X97845686Y-42535586D01*
X98742636Y-42535586D01*
X98742635Y-42535585D01*
X98685432Y-42322099D01*
X98685429Y-42322093D01*
X98585600Y-42108008D01*
X98585599Y-42108006D01*
X98450113Y-41914512D01*
X98450108Y-41914506D01*
X98283082Y-41747480D01*
X98089578Y-41611985D01*
X97875492Y-41512156D01*
X97875486Y-41512153D01*
X97662000Y-41454950D01*
X97662000Y-42350084D01*
X97554315Y-42300906D01*
X97447763Y-42285586D01*
X97376237Y-42285586D01*
X97269685Y-42300906D01*
X97162000Y-42350084D01*
X97162000Y-41454950D01*
X97161999Y-41454950D01*
X96948513Y-41512153D01*
X96948507Y-41512156D01*
X96734422Y-41611985D01*
X96734420Y-41611986D01*
X96540926Y-41747472D01*
X96540920Y-41747477D01*
X96373891Y-41914506D01*
X96373886Y-41914512D01*
X96238400Y-42108006D01*
X96238399Y-42108008D01*
X96138570Y-42322093D01*
X96138567Y-42322099D01*
X96081364Y-42535585D01*
X96081364Y-42535586D01*
X96978314Y-42535586D01*
X96952507Y-42575742D01*
X96912000Y-42713697D01*
X96912000Y-42857475D01*
X96952507Y-42995430D01*
X96978314Y-43035586D01*
X96081364Y-43035586D01*
X96138567Y-43249072D01*
X96138570Y-43249078D01*
X96238399Y-43463164D01*
X96373894Y-43656668D01*
X96540917Y-43823691D01*
X96727031Y-43954011D01*
X96770656Y-44008589D01*
X96777848Y-44078087D01*
X96746326Y-44140442D01*
X96727031Y-44157161D01*
X96540922Y-44287476D01*
X96540920Y-44287477D01*
X96373891Y-44454506D01*
X96373886Y-44454512D01*
X96238400Y-44648006D01*
X96238399Y-44648008D01*
X96138570Y-44862093D01*
X96138567Y-44862099D01*
X96081364Y-45075585D01*
X96081364Y-45075586D01*
X96978314Y-45075586D01*
X96952507Y-45115742D01*
X96912000Y-45253697D01*
X96912000Y-45397475D01*
X96952507Y-45535430D01*
X96978314Y-45575586D01*
X96081364Y-45575586D01*
X96138567Y-45789072D01*
X96138570Y-45789078D01*
X96238399Y-46003164D01*
X96373894Y-46196668D01*
X96540917Y-46363691D01*
X96727031Y-46494011D01*
X96770656Y-46548589D01*
X96777848Y-46618087D01*
X96746326Y-46680442D01*
X96727031Y-46697161D01*
X96540922Y-46827476D01*
X96540920Y-46827477D01*
X96373891Y-46994506D01*
X96373886Y-46994512D01*
X96238400Y-47188006D01*
X96238399Y-47188008D01*
X96138570Y-47402093D01*
X96138567Y-47402099D01*
X96081364Y-47615585D01*
X96081364Y-47615586D01*
X96978314Y-47615586D01*
X96952507Y-47655742D01*
X96912000Y-47793697D01*
X96912000Y-47937475D01*
X96952507Y-48075430D01*
X96978314Y-48115586D01*
X96081364Y-48115586D01*
X96138567Y-48329072D01*
X96138570Y-48329078D01*
X96238399Y-48543164D01*
X96373894Y-48736668D01*
X96540917Y-48903691D01*
X96727031Y-49034011D01*
X96770656Y-49088589D01*
X96777848Y-49158087D01*
X96746326Y-49220442D01*
X96727031Y-49237161D01*
X96540922Y-49367476D01*
X96540920Y-49367477D01*
X96373891Y-49534506D01*
X96373886Y-49534512D01*
X96238400Y-49728006D01*
X96238399Y-49728008D01*
X96138570Y-49942093D01*
X96138567Y-49942099D01*
X96081364Y-50155585D01*
X96081364Y-50155586D01*
X96978314Y-50155586D01*
X96952507Y-50195742D01*
X96912000Y-50333697D01*
X96912000Y-50477475D01*
X96952507Y-50615430D01*
X96978314Y-50655586D01*
X96081364Y-50655586D01*
X96138567Y-50869072D01*
X96138570Y-50869078D01*
X96238399Y-51083164D01*
X96373894Y-51276668D01*
X96540917Y-51443691D01*
X96727031Y-51574011D01*
X96770656Y-51628589D01*
X96777848Y-51698087D01*
X96746326Y-51760442D01*
X96727031Y-51777161D01*
X96540922Y-51907476D01*
X96540920Y-51907477D01*
X96373891Y-52074506D01*
X96373886Y-52074512D01*
X96238400Y-52268006D01*
X96238399Y-52268008D01*
X96138570Y-52482093D01*
X96138567Y-52482099D01*
X96081364Y-52695585D01*
X96081364Y-52695586D01*
X96978314Y-52695586D01*
X96952507Y-52735742D01*
X96912000Y-52873697D01*
X96912000Y-53017475D01*
X96952507Y-53155430D01*
X96978314Y-53195586D01*
X96081364Y-53195586D01*
X96138567Y-53409072D01*
X96138570Y-53409078D01*
X96238399Y-53623164D01*
X96373894Y-53816668D01*
X96540917Y-53983691D01*
X96727031Y-54114011D01*
X96770656Y-54168589D01*
X96777848Y-54238087D01*
X96746326Y-54300442D01*
X96727031Y-54317161D01*
X96540922Y-54447476D01*
X96540920Y-54447477D01*
X96373891Y-54614506D01*
X96373886Y-54614512D01*
X96238400Y-54808006D01*
X96238399Y-54808008D01*
X96138570Y-55022093D01*
X96138567Y-55022099D01*
X96081364Y-55235585D01*
X96081364Y-55235586D01*
X96978314Y-55235586D01*
X96952507Y-55275742D01*
X96912000Y-55413697D01*
X96912000Y-55557475D01*
X96952507Y-55695430D01*
X96978314Y-55735586D01*
X96081364Y-55735586D01*
X96138567Y-55949072D01*
X96138570Y-55949078D01*
X96238399Y-56163164D01*
X96373894Y-56356668D01*
X96540917Y-56523691D01*
X96727031Y-56654011D01*
X96770656Y-56708589D01*
X96777848Y-56778087D01*
X96746326Y-56840442D01*
X96727031Y-56857161D01*
X96540922Y-56987476D01*
X96540920Y-56987477D01*
X96373891Y-57154506D01*
X96373886Y-57154512D01*
X96238400Y-57348006D01*
X96238399Y-57348008D01*
X96138570Y-57562093D01*
X96138567Y-57562099D01*
X96081364Y-57775585D01*
X96081364Y-57775586D01*
X96978314Y-57775586D01*
X96952507Y-57815742D01*
X96912000Y-57953697D01*
X96912000Y-58097475D01*
X96952507Y-58235430D01*
X96978314Y-58275586D01*
X96081364Y-58275586D01*
X96138567Y-58489072D01*
X96138570Y-58489078D01*
X96238399Y-58703164D01*
X96373894Y-58896668D01*
X96540917Y-59063691D01*
X96727031Y-59194011D01*
X96770656Y-59248589D01*
X96777848Y-59318087D01*
X96746326Y-59380442D01*
X96727031Y-59397161D01*
X96540922Y-59527476D01*
X96540920Y-59527477D01*
X96373891Y-59694506D01*
X96373886Y-59694512D01*
X96238400Y-59888006D01*
X96238399Y-59888008D01*
X96138570Y-60102093D01*
X96138567Y-60102099D01*
X96081364Y-60315585D01*
X96081364Y-60315586D01*
X96978314Y-60315586D01*
X96952507Y-60355742D01*
X96912000Y-60493697D01*
X96912000Y-60637475D01*
X96952507Y-60775430D01*
X96978314Y-60815586D01*
X96081364Y-60815586D01*
X96138567Y-61029072D01*
X96138570Y-61029078D01*
X96238399Y-61243164D01*
X96373894Y-61436668D01*
X96540917Y-61603691D01*
X96727031Y-61734011D01*
X96770656Y-61788589D01*
X96777848Y-61858087D01*
X96746326Y-61920442D01*
X96727031Y-61937161D01*
X96540922Y-62067476D01*
X96540920Y-62067477D01*
X96373891Y-62234506D01*
X96373886Y-62234512D01*
X96238400Y-62428006D01*
X96238399Y-62428008D01*
X96138570Y-62642093D01*
X96138567Y-62642099D01*
X96081364Y-62855585D01*
X96081364Y-62855586D01*
X96978314Y-62855586D01*
X96952507Y-62895742D01*
X96912000Y-63033697D01*
X96912000Y-63177475D01*
X96952507Y-63315430D01*
X96978314Y-63355586D01*
X96081364Y-63355586D01*
X96138567Y-63569072D01*
X96138570Y-63569078D01*
X96238399Y-63783164D01*
X96373894Y-63976668D01*
X96540917Y-64143691D01*
X96727031Y-64274011D01*
X96770656Y-64328589D01*
X96777848Y-64398087D01*
X96746326Y-64460442D01*
X96727031Y-64477161D01*
X96540922Y-64607476D01*
X96540920Y-64607477D01*
X96373891Y-64774506D01*
X96373886Y-64774512D01*
X96238400Y-64968006D01*
X96238399Y-64968008D01*
X96138570Y-65182093D01*
X96138567Y-65182099D01*
X96081364Y-65395585D01*
X96081364Y-65395586D01*
X96978314Y-65395586D01*
X96952507Y-65435742D01*
X96912000Y-65573697D01*
X96912000Y-65717475D01*
X96952507Y-65855430D01*
X96978314Y-65895586D01*
X96081364Y-65895586D01*
X96138567Y-66109072D01*
X96138570Y-66109078D01*
X96238399Y-66323164D01*
X96373894Y-66516668D01*
X96540917Y-66683691D01*
X96727031Y-66814011D01*
X96770656Y-66868589D01*
X96777848Y-66938087D01*
X96746326Y-67000442D01*
X96727031Y-67017161D01*
X96540922Y-67147476D01*
X96540920Y-67147477D01*
X96373891Y-67314506D01*
X96373886Y-67314512D01*
X96238400Y-67508006D01*
X96238399Y-67508008D01*
X96138570Y-67722093D01*
X96138567Y-67722099D01*
X96081364Y-67935585D01*
X96081364Y-67935586D01*
X96978314Y-67935586D01*
X96952507Y-67975742D01*
X96912000Y-68113697D01*
X96912000Y-68257475D01*
X96952507Y-68395430D01*
X96978314Y-68435586D01*
X96081364Y-68435586D01*
X96138567Y-68649072D01*
X96138570Y-68649078D01*
X96238399Y-68863164D01*
X96373894Y-69056668D01*
X96496334Y-69179108D01*
X96529819Y-69240431D01*
X96524835Y-69310123D01*
X96482963Y-69366056D01*
X96451987Y-69382971D01*
X96319911Y-69432232D01*
X96319906Y-69432235D01*
X96204812Y-69518395D01*
X96204809Y-69518398D01*
X96118649Y-69633492D01*
X96118645Y-69633499D01*
X96068403Y-69768206D01*
X96068401Y-69768213D01*
X96062000Y-69827741D01*
X96062000Y-70475586D01*
X96978314Y-70475586D01*
X96952507Y-70515742D01*
X96912000Y-70653697D01*
X96912000Y-70797475D01*
X96952507Y-70935430D01*
X96978314Y-70975586D01*
X96062000Y-70975586D01*
X96062000Y-71623430D01*
X94677394Y-71623430D01*
X94740600Y-71533164D01*
X94840429Y-71319078D01*
X94840432Y-71319072D01*
X94897636Y-71105586D01*
X94000686Y-71105586D01*
X94026493Y-71065430D01*
X94067000Y-70927475D01*
X94067000Y-70783697D01*
X94026493Y-70645742D01*
X94000686Y-70605586D01*
X94897636Y-70605586D01*
X94897635Y-70605585D01*
X94840432Y-70392099D01*
X94840429Y-70392093D01*
X94740600Y-70178008D01*
X94740599Y-70178006D01*
X94605113Y-69984512D01*
X94605108Y-69984506D01*
X94438082Y-69817480D01*
X94251968Y-69687161D01*
X94208344Y-69632584D01*
X94201151Y-69563085D01*
X94232673Y-69500731D01*
X94251968Y-69484011D01*
X94438082Y-69353691D01*
X94605105Y-69186668D01*
X94740600Y-68993164D01*
X94840429Y-68779078D01*
X94840432Y-68779072D01*
X94897636Y-68565586D01*
X94000686Y-68565586D01*
X94026493Y-68525430D01*
X94067000Y-68387475D01*
X94067000Y-68243697D01*
X94026493Y-68105742D01*
X94000686Y-68065586D01*
X94897636Y-68065586D01*
X94897635Y-68065585D01*
X94840432Y-67852099D01*
X94840429Y-67852093D01*
X94740600Y-67638008D01*
X94740599Y-67638006D01*
X94605113Y-67444512D01*
X94605108Y-67444506D01*
X94438082Y-67277480D01*
X94251968Y-67147161D01*
X94208344Y-67092584D01*
X94201151Y-67023085D01*
X94232673Y-66960731D01*
X94251968Y-66944011D01*
X94438082Y-66813691D01*
X94605105Y-66646668D01*
X94740600Y-66453164D01*
X94840429Y-66239078D01*
X94840432Y-66239072D01*
X94897636Y-66025586D01*
X94000686Y-66025586D01*
X94026493Y-65985430D01*
X94067000Y-65847475D01*
X94067000Y-65703697D01*
X94026493Y-65565742D01*
X94000686Y-65525586D01*
X94897636Y-65525586D01*
X94897635Y-65525585D01*
X94840432Y-65312099D01*
X94840429Y-65312093D01*
X94740600Y-65098008D01*
X94740599Y-65098006D01*
X94605113Y-64904512D01*
X94605108Y-64904506D01*
X94438082Y-64737480D01*
X94251968Y-64607161D01*
X94208344Y-64552584D01*
X94201151Y-64483085D01*
X94232673Y-64420731D01*
X94251968Y-64404011D01*
X94438082Y-64273691D01*
X94605105Y-64106668D01*
X94740600Y-63913164D01*
X94840429Y-63699078D01*
X94840432Y-63699072D01*
X94897636Y-63485586D01*
X94000686Y-63485586D01*
X94026493Y-63445430D01*
X94067000Y-63307475D01*
X94067000Y-63163697D01*
X94026493Y-63025742D01*
X94000686Y-62985586D01*
X94897636Y-62985586D01*
X94897635Y-62985585D01*
X94840432Y-62772099D01*
X94840429Y-62772093D01*
X94740600Y-62558008D01*
X94740599Y-62558006D01*
X94605113Y-62364512D01*
X94605108Y-62364506D01*
X94438082Y-62197480D01*
X94251968Y-62067161D01*
X94208344Y-62012584D01*
X94201151Y-61943085D01*
X94232673Y-61880731D01*
X94251968Y-61864011D01*
X94438082Y-61733691D01*
X94605105Y-61566668D01*
X94740600Y-61373164D01*
X94840429Y-61159078D01*
X94840432Y-61159072D01*
X94897636Y-60945586D01*
X94000686Y-60945586D01*
X94026493Y-60905430D01*
X94067000Y-60767475D01*
X94067000Y-60623697D01*
X94026493Y-60485742D01*
X94000686Y-60445586D01*
X94897636Y-60445586D01*
X94897635Y-60445585D01*
X94840432Y-60232099D01*
X94840429Y-60232093D01*
X94740600Y-60018008D01*
X94740599Y-60018006D01*
X94605113Y-59824512D01*
X94605108Y-59824506D01*
X94438082Y-59657480D01*
X94251968Y-59527161D01*
X94208344Y-59472584D01*
X94201151Y-59403085D01*
X94232673Y-59340731D01*
X94251968Y-59324011D01*
X94438082Y-59193691D01*
X94605105Y-59026668D01*
X94740600Y-58833164D01*
X94840429Y-58619078D01*
X94840432Y-58619072D01*
X94897636Y-58405586D01*
X94000686Y-58405586D01*
X94026493Y-58365430D01*
X94067000Y-58227475D01*
X94067000Y-58083697D01*
X94026493Y-57945742D01*
X94000686Y-57905586D01*
X94897636Y-57905586D01*
X94897635Y-57905585D01*
X94840432Y-57692099D01*
X94840429Y-57692093D01*
X94740600Y-57478008D01*
X94740599Y-57478006D01*
X94605113Y-57284512D01*
X94605108Y-57284506D01*
X94438082Y-57117480D01*
X94251968Y-56987161D01*
X94208344Y-56932584D01*
X94201151Y-56863085D01*
X94232673Y-56800731D01*
X94251968Y-56784011D01*
X94438082Y-56653691D01*
X94605105Y-56486668D01*
X94740600Y-56293164D01*
X94840429Y-56079078D01*
X94840432Y-56079072D01*
X94897636Y-55865586D01*
X94000686Y-55865586D01*
X94026493Y-55825430D01*
X94067000Y-55687475D01*
X94067000Y-55543697D01*
X94026493Y-55405742D01*
X94000686Y-55365586D01*
X94897636Y-55365586D01*
X94897635Y-55365585D01*
X94840432Y-55152099D01*
X94840429Y-55152093D01*
X94740600Y-54938008D01*
X94740599Y-54938006D01*
X94605113Y-54744512D01*
X94605108Y-54744506D01*
X94438082Y-54577480D01*
X94251968Y-54447161D01*
X94208344Y-54392584D01*
X94201151Y-54323085D01*
X94232673Y-54260731D01*
X94251968Y-54244011D01*
X94438082Y-54113691D01*
X94605105Y-53946668D01*
X94740600Y-53753164D01*
X94840429Y-53539078D01*
X94840432Y-53539072D01*
X94897636Y-53325586D01*
X94000686Y-53325586D01*
X94026493Y-53285430D01*
X94067000Y-53147475D01*
X94067000Y-53003697D01*
X94026493Y-52865742D01*
X94000686Y-52825586D01*
X94897636Y-52825586D01*
X94897635Y-52825585D01*
X94840432Y-52612099D01*
X94840429Y-52612093D01*
X94740600Y-52398008D01*
X94740599Y-52398006D01*
X94605113Y-52204512D01*
X94605108Y-52204506D01*
X94438082Y-52037480D01*
X94251968Y-51907161D01*
X94208344Y-51852584D01*
X94201151Y-51783085D01*
X94232673Y-51720731D01*
X94251968Y-51704011D01*
X94438082Y-51573691D01*
X94605105Y-51406668D01*
X94740600Y-51213164D01*
X94840429Y-50999078D01*
X94840432Y-50999072D01*
X94897636Y-50785586D01*
X94000686Y-50785586D01*
X94026493Y-50745430D01*
X94067000Y-50607475D01*
X94067000Y-50463697D01*
X94026493Y-50325742D01*
X94000686Y-50285586D01*
X94897636Y-50285586D01*
X94897635Y-50285585D01*
X94840432Y-50072099D01*
X94840429Y-50072093D01*
X94740600Y-49858008D01*
X94740599Y-49858006D01*
X94605113Y-49664512D01*
X94605108Y-49664506D01*
X94438082Y-49497480D01*
X94251968Y-49367161D01*
X94208344Y-49312584D01*
X94201151Y-49243085D01*
X94232673Y-49180731D01*
X94251968Y-49164011D01*
X94438082Y-49033691D01*
X94605105Y-48866668D01*
X94740600Y-48673164D01*
X94840429Y-48459078D01*
X94840432Y-48459072D01*
X94897636Y-48245586D01*
X94000686Y-48245586D01*
X94026493Y-48205430D01*
X94067000Y-48067475D01*
X94067000Y-47923697D01*
X94026493Y-47785742D01*
X94000686Y-47745586D01*
X94897636Y-47745586D01*
X94897635Y-47745585D01*
X94840432Y-47532099D01*
X94840429Y-47532093D01*
X94740600Y-47318008D01*
X94740599Y-47318006D01*
X94605113Y-47124512D01*
X94605108Y-47124506D01*
X94438082Y-46957480D01*
X94251968Y-46827161D01*
X94208344Y-46772584D01*
X94201151Y-46703085D01*
X94232673Y-46640731D01*
X94251968Y-46624011D01*
X94438082Y-46493691D01*
X94605105Y-46326668D01*
X94740600Y-46133164D01*
X94840429Y-45919078D01*
X94840432Y-45919072D01*
X94897636Y-45705586D01*
X94000686Y-45705586D01*
X94026493Y-45665430D01*
X94067000Y-45527475D01*
X94067000Y-45383697D01*
X94026493Y-45245742D01*
X94000686Y-45205586D01*
X94897636Y-45205586D01*
X94897635Y-45205585D01*
X94840432Y-44992099D01*
X94840429Y-44992093D01*
X94740600Y-44778008D01*
X94740599Y-44778006D01*
X94605113Y-44584512D01*
X94605108Y-44584506D01*
X94482665Y-44462063D01*
X94449180Y-44400740D01*
X94454164Y-44331048D01*
X94496036Y-44275115D01*
X94527013Y-44258200D01*
X94659086Y-44208940D01*
X94659093Y-44208936D01*
X94774187Y-44122776D01*
X94774190Y-44122773D01*
X94860350Y-44007679D01*
X94860354Y-44007672D01*
X94910596Y-43872965D01*
X94910598Y-43872958D01*
X94916999Y-43813430D01*
X94917000Y-43813413D01*
X94917000Y-43165586D01*
X94000686Y-43165586D01*
X94026493Y-43125430D01*
X94067000Y-42987475D01*
X94067000Y-42843697D01*
X94026493Y-42705742D01*
X94000686Y-42665586D01*
X94917000Y-42665586D01*
X94917000Y-42017758D01*
X94916999Y-42017741D01*
X94910598Y-41958213D01*
X94910596Y-41958206D01*
X94860354Y-41823499D01*
X94860350Y-41823492D01*
X94774190Y-41708398D01*
X94774187Y-41708395D01*
X94659093Y-41622235D01*
X94659086Y-41622231D01*
X94524379Y-41571989D01*
X94524372Y-41571987D01*
X94464844Y-41565586D01*
X93817000Y-41565586D01*
X93817000Y-42480084D01*
X93709315Y-42430906D01*
X93602763Y-42415586D01*
X93531237Y-42415586D01*
X93424685Y-42430906D01*
X93317000Y-42480084D01*
X93317000Y-41565586D01*
X92669155Y-41565586D01*
X92609627Y-41571987D01*
X92609620Y-41571989D01*
X92474913Y-41622231D01*
X92474906Y-41622235D01*
X92359812Y-41708395D01*
X92359809Y-41708398D01*
X92273649Y-41823492D01*
X92273645Y-41823499D01*
X92223403Y-41958206D01*
X92223401Y-41958213D01*
X92217000Y-42017741D01*
X92217000Y-42665586D01*
X93133314Y-42665586D01*
X93107507Y-42705742D01*
X93067000Y-42843697D01*
X93067000Y-42987475D01*
X93107507Y-43125430D01*
X93133314Y-43165586D01*
X92217000Y-43165586D01*
X92217000Y-43813430D01*
X65597911Y-43813430D01*
X65539035Y-43687171D01*
X65506130Y-43640178D01*
X65403496Y-43493600D01*
X65371817Y-43461921D01*
X65281567Y-43371671D01*
X65248084Y-43310351D01*
X65253068Y-43240659D01*
X65294939Y-43184725D01*
X65325915Y-43167810D01*
X65457331Y-43118796D01*
X65572546Y-43032546D01*
X65658796Y-42917331D01*
X65709091Y-42782483D01*
X65715500Y-42722873D01*
X65715499Y-40927128D01*
X65709091Y-40867517D01*
X65658796Y-40732669D01*
X65658795Y-40732668D01*
X65658793Y-40732664D01*
X65572547Y-40617455D01*
X65572544Y-40617452D01*
X65457335Y-40531206D01*
X65457328Y-40531202D01*
X65322482Y-40480908D01*
X65322483Y-40480908D01*
X65262883Y-40474501D01*
X65262881Y-40474500D01*
X65262873Y-40474500D01*
X65262864Y-40474500D01*
X63467129Y-40474500D01*
X63467123Y-40474501D01*
X63407516Y-40480908D01*
X63272671Y-40531202D01*
X63272664Y-40531206D01*
X63157455Y-40617452D01*
X63157452Y-40617455D01*
X63071206Y-40732664D01*
X63071202Y-40732671D01*
X63020908Y-40867517D01*
X63015059Y-40921930D01*
X63014501Y-40927123D01*
X63014500Y-40927135D01*
X63014500Y-42722870D01*
X63014501Y-42722876D01*
X63020908Y-42782483D01*
X63071202Y-42917328D01*
X63071206Y-42917335D01*
X63157452Y-43032544D01*
X63157455Y-43032547D01*
X63272664Y-43118793D01*
X63272671Y-43118797D01*
X63404081Y-43167810D01*
X63460015Y-43209681D01*
X63484432Y-43275145D01*
X63469580Y-43343418D01*
X63448430Y-43371673D01*
X63326503Y-43493600D01*
X63190965Y-43687169D01*
X63190964Y-43687171D01*
X63091098Y-43901335D01*
X63091094Y-43901344D01*
X63029938Y-44129586D01*
X63029936Y-44129596D01*
X63009341Y-44364999D01*
X63009341Y-44365000D01*
X63029936Y-44600403D01*
X63029938Y-44600413D01*
X63091094Y-44828655D01*
X63091096Y-44828659D01*
X63091097Y-44828663D01*
X63154243Y-44964079D01*
X63190965Y-45042830D01*
X63190967Y-45042834D01*
X63326501Y-45236395D01*
X63326506Y-45236402D01*
X63493597Y-45403493D01*
X63493603Y-45403498D01*
X63679158Y-45533425D01*
X63722783Y-45588002D01*
X63729977Y-45657500D01*
X63698454Y-45719855D01*
X63679158Y-45736575D01*
X63493597Y-45866505D01*
X63326505Y-46033597D01*
X63190965Y-46227169D01*
X63190964Y-46227171D01*
X63091098Y-46441335D01*
X63091094Y-46441344D01*
X63029938Y-46669586D01*
X63029936Y-46669596D01*
X63009341Y-46904999D01*
X63009341Y-46905000D01*
X60972400Y-46905000D01*
X61027063Y-46700994D01*
X61047659Y-46465586D01*
X61027063Y-46230178D01*
X60980626Y-46056871D01*
X60965905Y-46001930D01*
X60965904Y-46001929D01*
X60965903Y-46001923D01*
X60866035Y-45787757D01*
X60831024Y-45737755D01*
X60730494Y-45594183D01*
X60563402Y-45427092D01*
X60563396Y-45427087D01*
X60377842Y-45297161D01*
X60334217Y-45242584D01*
X60327023Y-45173086D01*
X60358546Y-45110731D01*
X60377842Y-45094011D01*
X60400026Y-45078477D01*
X60563401Y-44964081D01*
X60730495Y-44796987D01*
X60866035Y-44603416D01*
X60965903Y-44389249D01*
X61027063Y-44160994D01*
X61047659Y-43925586D01*
X61027063Y-43690178D01*
X60974391Y-43493600D01*
X60965905Y-43461930D01*
X60965904Y-43461929D01*
X60965903Y-43461923D01*
X60866035Y-43247757D01*
X60831024Y-43197755D01*
X60730494Y-43054183D01*
X60563402Y-42887092D01*
X60563396Y-42887087D01*
X60377842Y-42757161D01*
X60334217Y-42702584D01*
X60327023Y-42633086D01*
X60358546Y-42570731D01*
X60377842Y-42554011D01*
X60400026Y-42538477D01*
X60563401Y-42424081D01*
X60730495Y-42256987D01*
X60866035Y-42063416D01*
X60965903Y-41849249D01*
X61027063Y-41620994D01*
X61047659Y-41385586D01*
X61027063Y-41150178D01*
X60967298Y-40927128D01*
X60965905Y-40921930D01*
X60965904Y-40921929D01*
X60965903Y-40921923D01*
X60866035Y-40707757D01*
X60802806Y-40617455D01*
X60730494Y-40514183D01*
X60563402Y-40347092D01*
X60563395Y-40347087D01*
X60369834Y-40211553D01*
X60369830Y-40211551D01*
X60369828Y-40211550D01*
X60155663Y-40111683D01*
X60155659Y-40111682D01*
X60155655Y-40111680D01*
X59927413Y-40050524D01*
X59927403Y-40050522D01*
X59692001Y-40029927D01*
X59691999Y-40029927D01*
X59456596Y-40050522D01*
X59456586Y-40050524D01*
X59228344Y-40111680D01*
X59228335Y-40111684D01*
X59014171Y-40211550D01*
X59014169Y-40211551D01*
X58820597Y-40347091D01*
X58653505Y-40514183D01*
X58517965Y-40707755D01*
X58517964Y-40707757D01*
X58418098Y-40921921D01*
X58418094Y-40921930D01*
X58356938Y-41150172D01*
X58356936Y-41150182D01*
X58336341Y-41385585D01*
X58336341Y-41385586D01*
X58356936Y-41620989D01*
X58356938Y-41620999D01*
X58418094Y-41849241D01*
X58418096Y-41849245D01*
X58418097Y-41849249D01*
X58448527Y-41914506D01*
X58517965Y-42063416D01*
X58517967Y-42063420D01*
X58653501Y-42256981D01*
X58653506Y-42256988D01*
X58820597Y-42424079D01*
X58820603Y-42424084D01*
X59006158Y-42554011D01*
X59049783Y-42608588D01*
X59056977Y-42678086D01*
X59025454Y-42740441D01*
X59006158Y-42757161D01*
X58820597Y-42887091D01*
X58653505Y-43054183D01*
X58517965Y-43247755D01*
X58517964Y-43247757D01*
X58418098Y-43461921D01*
X58418094Y-43461930D01*
X58356938Y-43690172D01*
X58356936Y-43690182D01*
X58336341Y-43925585D01*
X58336341Y-43925586D01*
X58356936Y-44160989D01*
X58356938Y-44160999D01*
X58418094Y-44389241D01*
X58418096Y-44389245D01*
X58418097Y-44389249D01*
X58509147Y-44584506D01*
X58517965Y-44603416D01*
X58517967Y-44603420D01*
X58653501Y-44796981D01*
X58653506Y-44796988D01*
X58820597Y-44964079D01*
X58820603Y-44964084D01*
X59006158Y-45094011D01*
X59049783Y-45148588D01*
X59056977Y-45218086D01*
X59025454Y-45280441D01*
X59006158Y-45297161D01*
X58820597Y-45427091D01*
X58653505Y-45594183D01*
X58517965Y-45787755D01*
X58517964Y-45787757D01*
X58418098Y-46001921D01*
X58418094Y-46001930D01*
X58356938Y-46230172D01*
X58356936Y-46230182D01*
X58336341Y-46465585D01*
X58336341Y-46465586D01*
X58356936Y-46700989D01*
X58356938Y-46700999D01*
X58418094Y-46929241D01*
X58418096Y-46929245D01*
X58418097Y-46929249D01*
X58509147Y-47124506D01*
X58517965Y-47143416D01*
X58517967Y-47143420D01*
X58653501Y-47336981D01*
X58653506Y-47336988D01*
X58820597Y-47504079D01*
X58820603Y-47504084D01*
X59006158Y-47634011D01*
X59049783Y-47688588D01*
X59056977Y-47758086D01*
X59025454Y-47820441D01*
X59006158Y-47837161D01*
X58820597Y-47967091D01*
X58653505Y-48134183D01*
X58517965Y-48327755D01*
X58517964Y-48327757D01*
X58418098Y-48541921D01*
X58418094Y-48541930D01*
X58356938Y-48770172D01*
X58356936Y-48770182D01*
X58336341Y-49005585D01*
X58336341Y-49005586D01*
X58356936Y-49240989D01*
X58356938Y-49240999D01*
X58418094Y-49469241D01*
X58418096Y-49469245D01*
X58418097Y-49469249D01*
X58509147Y-49664506D01*
X58517965Y-49683416D01*
X58517967Y-49683420D01*
X58653501Y-49876981D01*
X58653506Y-49876988D01*
X58820597Y-50044079D01*
X58820603Y-50044084D01*
X59006158Y-50174011D01*
X59049783Y-50228588D01*
X59056977Y-50298086D01*
X59025454Y-50360441D01*
X59006158Y-50377161D01*
X58820597Y-50507091D01*
X58653505Y-50674183D01*
X58517965Y-50867755D01*
X58517964Y-50867757D01*
X58418098Y-51081921D01*
X58418094Y-51081930D01*
X58356938Y-51310172D01*
X58356936Y-51310182D01*
X58336341Y-51545585D01*
X58336341Y-51545586D01*
X58356936Y-51780989D01*
X58356938Y-51780999D01*
X58418094Y-52009241D01*
X58418096Y-52009245D01*
X58418097Y-52009249D01*
X58509147Y-52204506D01*
X58517965Y-52223416D01*
X58517967Y-52223420D01*
X58653501Y-52416981D01*
X58653506Y-52416988D01*
X58820597Y-52584079D01*
X58820603Y-52584084D01*
X59006158Y-52714011D01*
X59049783Y-52768588D01*
X59056977Y-52838086D01*
X59025454Y-52900441D01*
X59006158Y-52917161D01*
X58820597Y-53047091D01*
X58653505Y-53214183D01*
X58517965Y-53407755D01*
X58517964Y-53407757D01*
X58418098Y-53621921D01*
X58418094Y-53621930D01*
X58356938Y-53850172D01*
X58356936Y-53850182D01*
X58336341Y-54085585D01*
X58336341Y-54085586D01*
X58356936Y-54320989D01*
X58356938Y-54320999D01*
X58418094Y-54549241D01*
X58418096Y-54549245D01*
X58418097Y-54549249D01*
X58503537Y-54732475D01*
X58517965Y-54763416D01*
X58517967Y-54763420D01*
X58653501Y-54956981D01*
X58653506Y-54956988D01*
X58820597Y-55124079D01*
X58820603Y-55124084D01*
X59006158Y-55254011D01*
X59049783Y-55308588D01*
X59056977Y-55378086D01*
X59025454Y-55440441D01*
X59006158Y-55457161D01*
X58820597Y-55587091D01*
X58653505Y-55754183D01*
X58517965Y-55947755D01*
X58517964Y-55947757D01*
X58418098Y-56161921D01*
X58418094Y-56161930D01*
X58356938Y-56390172D01*
X58356936Y-56390182D01*
X58336341Y-56625585D01*
X58336341Y-56625586D01*
X58356936Y-56860989D01*
X58356938Y-56860999D01*
X58418094Y-57089241D01*
X58418096Y-57089245D01*
X58418097Y-57089249D01*
X58503537Y-57272475D01*
X58517965Y-57303416D01*
X58517967Y-57303420D01*
X58653501Y-57496981D01*
X58653506Y-57496988D01*
X58820597Y-57664079D01*
X58820603Y-57664084D01*
X59006158Y-57794011D01*
X59049783Y-57848588D01*
X59056977Y-57918086D01*
X59025454Y-57980441D01*
X59006158Y-57997161D01*
X58820597Y-58127091D01*
X58653505Y-58294183D01*
X58517965Y-58487755D01*
X58517964Y-58487757D01*
X58418098Y-58701921D01*
X58418094Y-58701930D01*
X58356938Y-58930172D01*
X58356936Y-58930182D01*
X58336341Y-59165585D01*
X58336341Y-59165586D01*
X58356936Y-59400989D01*
X58356938Y-59400999D01*
X58418094Y-59629241D01*
X58418096Y-59629245D01*
X58418097Y-59629249D01*
X58503537Y-59812475D01*
X58517965Y-59843416D01*
X58517967Y-59843420D01*
X58653501Y-60036981D01*
X58653506Y-60036988D01*
X58820597Y-60204079D01*
X58820603Y-60204084D01*
X59006158Y-60334011D01*
X59049783Y-60388588D01*
X59056977Y-60458086D01*
X59025454Y-60520441D01*
X59006158Y-60537161D01*
X58820597Y-60667091D01*
X58653505Y-60834183D01*
X58517965Y-61027755D01*
X58517964Y-61027757D01*
X58418098Y-61241921D01*
X58418094Y-61241930D01*
X58356938Y-61470172D01*
X58356936Y-61470182D01*
X58336341Y-61705585D01*
X58336341Y-61705586D01*
X58356936Y-61940989D01*
X58356938Y-61940999D01*
X58418094Y-62169241D01*
X58418096Y-62169245D01*
X58418097Y-62169249D01*
X58509147Y-62364506D01*
X58517965Y-62383416D01*
X58517967Y-62383420D01*
X58653501Y-62576981D01*
X58653506Y-62576988D01*
X58820597Y-62744079D01*
X58820603Y-62744084D01*
X59006158Y-62874011D01*
X59049783Y-62928588D01*
X59056977Y-62998086D01*
X59025454Y-63060441D01*
X59006158Y-63077161D01*
X58820597Y-63207091D01*
X58653505Y-63374183D01*
X58517965Y-63567755D01*
X58517964Y-63567757D01*
X58418098Y-63781921D01*
X58418094Y-63781930D01*
X58356938Y-64010172D01*
X58356936Y-64010182D01*
X58336341Y-64245585D01*
X58336341Y-64245586D01*
X58356936Y-64480989D01*
X58356938Y-64480999D01*
X58418094Y-64709241D01*
X58418096Y-64709245D01*
X58418097Y-64709249D01*
X58509147Y-64904506D01*
X58517965Y-64923416D01*
X58517967Y-64923420D01*
X58653501Y-65116981D01*
X58653506Y-65116988D01*
X58820597Y-65284079D01*
X58820603Y-65284084D01*
X59006158Y-65414011D01*
X59049783Y-65468588D01*
X59056977Y-65538086D01*
X59025454Y-65600441D01*
X59006158Y-65617161D01*
X58820597Y-65747091D01*
X58653505Y-65914183D01*
X58517965Y-66107755D01*
X58517964Y-66107757D01*
X58418098Y-66321921D01*
X58418094Y-66321930D01*
X58356938Y-66550172D01*
X58356936Y-66550182D01*
X58336341Y-66785585D01*
X58336341Y-66785586D01*
X57403284Y-66785586D01*
X57407659Y-66735586D01*
X57387063Y-66500178D01*
X57339300Y-66321921D01*
X57325905Y-66271930D01*
X57325904Y-66271929D01*
X57325903Y-66271923D01*
X57226035Y-66057757D01*
X57175392Y-65985430D01*
X57090494Y-65864183D01*
X56923402Y-65697092D01*
X56923396Y-65697087D01*
X56737842Y-65567161D01*
X56694217Y-65512584D01*
X56687023Y-65443086D01*
X56718546Y-65380731D01*
X56737842Y-65364011D01*
X56760026Y-65348477D01*
X56923401Y-65234081D01*
X57090495Y-65066987D01*
X57226035Y-64873416D01*
X57325903Y-64659249D01*
X57387063Y-64430994D01*
X57407659Y-64195586D01*
X57387063Y-63960178D01*
X57339300Y-63781921D01*
X57325905Y-63731930D01*
X57325904Y-63731929D01*
X57325903Y-63731923D01*
X57226035Y-63517757D01*
X57175392Y-63445430D01*
X57090494Y-63324183D01*
X56923402Y-63157092D01*
X56923396Y-63157087D01*
X56737842Y-63027161D01*
X56694217Y-62972584D01*
X56687023Y-62903086D01*
X56718546Y-62840731D01*
X56737842Y-62824011D01*
X56760026Y-62808477D01*
X56923401Y-62694081D01*
X57090495Y-62526987D01*
X57226035Y-62333416D01*
X57325903Y-62119249D01*
X57387063Y-61890994D01*
X57407659Y-61655586D01*
X57387063Y-61420178D01*
X57339300Y-61241921D01*
X57325905Y-61191930D01*
X57325904Y-61191929D01*
X57325903Y-61191923D01*
X57226035Y-60977757D01*
X57181523Y-60914186D01*
X57090494Y-60784183D01*
X56923402Y-60617092D01*
X56923396Y-60617087D01*
X56737842Y-60487161D01*
X56694217Y-60432584D01*
X56687023Y-60363086D01*
X56718546Y-60300731D01*
X56737842Y-60284011D01*
X56799859Y-60240586D01*
X56923401Y-60154081D01*
X57090495Y-59986987D01*
X57226035Y-59793416D01*
X57325903Y-59579249D01*
X57387063Y-59350994D01*
X57407659Y-59115586D01*
X57387063Y-58880178D01*
X57339300Y-58701921D01*
X57325905Y-58651930D01*
X57325904Y-58651929D01*
X57325903Y-58651923D01*
X57226035Y-58437757D01*
X57189607Y-58385731D01*
X57090494Y-58244183D01*
X56923402Y-58077092D01*
X56923396Y-58077087D01*
X56737842Y-57947161D01*
X56694217Y-57892584D01*
X56687023Y-57823086D01*
X56718546Y-57760731D01*
X56737842Y-57744011D01*
X56799859Y-57700586D01*
X56923401Y-57614081D01*
X57090495Y-57446987D01*
X57226035Y-57253416D01*
X57325903Y-57039249D01*
X57387063Y-56810994D01*
X57407659Y-56575586D01*
X57387063Y-56340178D01*
X57334964Y-56145740D01*
X57325905Y-56111930D01*
X57325904Y-56111929D01*
X57325903Y-56111923D01*
X57226035Y-55897757D01*
X57205043Y-55867776D01*
X57090494Y-55704183D01*
X56923402Y-55537092D01*
X56923396Y-55537087D01*
X56737842Y-55407161D01*
X56694217Y-55352584D01*
X56687023Y-55283086D01*
X56718546Y-55220731D01*
X56737842Y-55204011D01*
X56799859Y-55160586D01*
X56923401Y-55074081D01*
X57090495Y-54906987D01*
X57226035Y-54713416D01*
X57325903Y-54499249D01*
X57387063Y-54270994D01*
X57407659Y-54035586D01*
X57387063Y-53800178D01*
X57339300Y-53621921D01*
X57325905Y-53571930D01*
X57325904Y-53571929D01*
X57325903Y-53571923D01*
X57226035Y-53357757D01*
X57175392Y-53285430D01*
X57090494Y-53164183D01*
X56923402Y-52997092D01*
X56923396Y-52997087D01*
X56737842Y-52867161D01*
X56694217Y-52812584D01*
X56687023Y-52743086D01*
X56718546Y-52680731D01*
X56737842Y-52664011D01*
X56760026Y-52648477D01*
X56923401Y-52534081D01*
X57090495Y-52366987D01*
X57226035Y-52173416D01*
X57325903Y-51959249D01*
X57387063Y-51730994D01*
X57407659Y-51495586D01*
X57387063Y-51260178D01*
X57339300Y-51081921D01*
X57325905Y-51031930D01*
X57325904Y-51031929D01*
X57325903Y-51031923D01*
X57226035Y-50817757D01*
X57175392Y-50745430D01*
X57090494Y-50624183D01*
X56923402Y-50457092D01*
X56923396Y-50457087D01*
X56737842Y-50327161D01*
X56694217Y-50272584D01*
X56687023Y-50203086D01*
X56718546Y-50140731D01*
X56737842Y-50124011D01*
X56760026Y-50108477D01*
X56923401Y-49994081D01*
X57090495Y-49826987D01*
X57226035Y-49633416D01*
X57325903Y-49419249D01*
X57387063Y-49190994D01*
X57407659Y-48955586D01*
X57387063Y-48720178D01*
X57339300Y-48541921D01*
X57325905Y-48491930D01*
X57325904Y-48491929D01*
X57325903Y-48491923D01*
X57226035Y-48277757D01*
X57199642Y-48240063D01*
X57090494Y-48084183D01*
X56923402Y-47917092D01*
X56923396Y-47917087D01*
X56737842Y-47787161D01*
X56694217Y-47732584D01*
X56687023Y-47663086D01*
X56718546Y-47600731D01*
X56737842Y-47584011D01*
X56760026Y-47568477D01*
X56923401Y-47454081D01*
X57090495Y-47286987D01*
X57226035Y-47093416D01*
X57325903Y-46879249D01*
X57387063Y-46650994D01*
X57407659Y-46415586D01*
X57387063Y-46180178D01*
X57339300Y-46001921D01*
X57325905Y-45951930D01*
X57325904Y-45951929D01*
X57325903Y-45951923D01*
X57226035Y-45737757D01*
X57225208Y-45736575D01*
X57090494Y-45544183D01*
X56923402Y-45377092D01*
X56923396Y-45377087D01*
X56737842Y-45247161D01*
X56694217Y-45192584D01*
X56687023Y-45123086D01*
X56718546Y-45060731D01*
X56737842Y-45044011D01*
X56760026Y-45028477D01*
X56923401Y-44914081D01*
X57090495Y-44746987D01*
X57226035Y-44553416D01*
X57325903Y-44339249D01*
X57387063Y-44110994D01*
X57407659Y-43875586D01*
X57387063Y-43640178D01*
X57339300Y-43461921D01*
X57325905Y-43411930D01*
X57325904Y-43411929D01*
X57325903Y-43411923D01*
X57226035Y-43197757D01*
X57221279Y-43190965D01*
X57090496Y-43004186D01*
X57073785Y-42987475D01*
X56968567Y-42882257D01*
X56935084Y-42820937D01*
X56940068Y-42751245D01*
X56981939Y-42695311D01*
X57012915Y-42678396D01*
X57144331Y-42629382D01*
X57259546Y-42543132D01*
X57345796Y-42427917D01*
X57396091Y-42293069D01*
X57402500Y-42233459D01*
X57402499Y-40437714D01*
X57396091Y-40378103D01*
X57384524Y-40347091D01*
X57345797Y-40243257D01*
X57345793Y-40243250D01*
X57259547Y-40128041D01*
X57259544Y-40128038D01*
X57144335Y-40041792D01*
X57144328Y-40041788D01*
X57009482Y-39991494D01*
X57009483Y-39991494D01*
X56949883Y-39985087D01*
X56949881Y-39985086D01*
X56949873Y-39985086D01*
X56949864Y-39985086D01*
X55154129Y-39985086D01*
X55154123Y-39985087D01*
X55094516Y-39991494D01*
X54959671Y-40041788D01*
X54959664Y-40041792D01*
X54844455Y-40128038D01*
X54844452Y-40128041D01*
X54758206Y-40243250D01*
X54758202Y-40243257D01*
X54707908Y-40378103D01*
X54701501Y-40437702D01*
X54701501Y-40437709D01*
X54701500Y-40437721D01*
X54701500Y-42233456D01*
X54701501Y-42233462D01*
X54707908Y-42293069D01*
X54758202Y-42427914D01*
X54758206Y-42427921D01*
X54844452Y-42543130D01*
X54844455Y-42543133D01*
X54959664Y-42629379D01*
X54959671Y-42629383D01*
X55091081Y-42678396D01*
X55147015Y-42720267D01*
X55171432Y-42785731D01*
X55156580Y-42854004D01*
X55135430Y-42882259D01*
X55013503Y-43004186D01*
X54877965Y-43197755D01*
X54877964Y-43197757D01*
X54778098Y-43411921D01*
X54778094Y-43411930D01*
X54716938Y-43640172D01*
X54716936Y-43640182D01*
X54696341Y-43875585D01*
X54696341Y-43875586D01*
X54716936Y-44110989D01*
X54716938Y-44110999D01*
X54778094Y-44339241D01*
X54778096Y-44339245D01*
X54778097Y-44339249D01*
X54877965Y-44553416D01*
X54877967Y-44553420D01*
X55013501Y-44746981D01*
X55013506Y-44746988D01*
X55180597Y-44914079D01*
X55180603Y-44914084D01*
X55366158Y-45044011D01*
X55409783Y-45098588D01*
X55416977Y-45168086D01*
X55385454Y-45230441D01*
X55366158Y-45247161D01*
X55180597Y-45377091D01*
X55013505Y-45544183D01*
X54877965Y-45737755D01*
X54877964Y-45737757D01*
X54778098Y-45951921D01*
X54778094Y-45951930D01*
X54716938Y-46180172D01*
X54716936Y-46180182D01*
X54696341Y-46415585D01*
X54696341Y-46415586D01*
X54716936Y-46650989D01*
X54716938Y-46650999D01*
X54778094Y-46879241D01*
X54778096Y-46879245D01*
X54778097Y-46879249D01*
X54831845Y-46994512D01*
X54877965Y-47093416D01*
X54877967Y-47093420D01*
X55013501Y-47286981D01*
X55013506Y-47286988D01*
X55180597Y-47454079D01*
X55180603Y-47454084D01*
X55366158Y-47584011D01*
X55409783Y-47638588D01*
X55416977Y-47708086D01*
X55385454Y-47770441D01*
X55366158Y-47787161D01*
X55180597Y-47917091D01*
X55013505Y-48084183D01*
X54877965Y-48277755D01*
X54877964Y-48277757D01*
X54778098Y-48491921D01*
X54778094Y-48491930D01*
X54716938Y-48720172D01*
X54716936Y-48720182D01*
X54696341Y-48955585D01*
X54696341Y-48955586D01*
X54716936Y-49190989D01*
X54716938Y-49190999D01*
X54778094Y-49419241D01*
X54778096Y-49419245D01*
X54778097Y-49419249D01*
X54831845Y-49534512D01*
X54877965Y-49633416D01*
X54877967Y-49633420D01*
X55013501Y-49826981D01*
X55013506Y-49826988D01*
X55180597Y-49994079D01*
X55180603Y-49994084D01*
X55366158Y-50124011D01*
X55409783Y-50178588D01*
X55416977Y-50248086D01*
X55385454Y-50310441D01*
X55366158Y-50327161D01*
X55180597Y-50457091D01*
X55013505Y-50624183D01*
X54877965Y-50817755D01*
X54877964Y-50817757D01*
X54778098Y-51031921D01*
X54778094Y-51031930D01*
X54716938Y-51260172D01*
X54716936Y-51260182D01*
X54696341Y-51495585D01*
X54696341Y-51495586D01*
X54716936Y-51730989D01*
X54716938Y-51730999D01*
X54778094Y-51959241D01*
X54778096Y-51959245D01*
X54778097Y-51959249D01*
X54831845Y-52074512D01*
X54877965Y-52173416D01*
X54877967Y-52173420D01*
X55013501Y-52366981D01*
X55013506Y-52366988D01*
X55180597Y-52534079D01*
X55180603Y-52534084D01*
X55366158Y-52664011D01*
X55409783Y-52718588D01*
X55416977Y-52788086D01*
X55385454Y-52850441D01*
X55366158Y-52867161D01*
X55180597Y-52997091D01*
X55013505Y-53164183D01*
X54877965Y-53357755D01*
X54877964Y-53357757D01*
X54778098Y-53571921D01*
X54778094Y-53571930D01*
X54716938Y-53800172D01*
X54716936Y-53800182D01*
X54696341Y-54035585D01*
X54696341Y-54035586D01*
X54716936Y-54270989D01*
X54716938Y-54270999D01*
X54778094Y-54499241D01*
X54778096Y-54499245D01*
X54778097Y-54499249D01*
X54831845Y-54614512D01*
X54877965Y-54713416D01*
X54877967Y-54713420D01*
X54944199Y-54808008D01*
X54987907Y-54870430D01*
X55013501Y-54906981D01*
X55013506Y-54906988D01*
X55180597Y-55074079D01*
X55180603Y-55074084D01*
X55366158Y-55204011D01*
X55409783Y-55258588D01*
X55416977Y-55328086D01*
X55385454Y-55390441D01*
X55366158Y-55407161D01*
X55180597Y-55537091D01*
X55013505Y-55704183D01*
X54877965Y-55897755D01*
X54877964Y-55897757D01*
X54778098Y-56111921D01*
X54778094Y-56111930D01*
X54716938Y-56340172D01*
X54716936Y-56340182D01*
X54696341Y-56575585D01*
X54696341Y-56575586D01*
X54716936Y-56810989D01*
X54716938Y-56810999D01*
X54778094Y-57039241D01*
X54778096Y-57039245D01*
X54778097Y-57039249D01*
X54831845Y-57154512D01*
X54877965Y-57253416D01*
X54877967Y-57253420D01*
X54944199Y-57348008D01*
X54987907Y-57410430D01*
X55013501Y-57446981D01*
X55013506Y-57446988D01*
X55180597Y-57614079D01*
X55180603Y-57614084D01*
X55366158Y-57744011D01*
X55409783Y-57798588D01*
X55416977Y-57868086D01*
X55385454Y-57930441D01*
X55366158Y-57947161D01*
X55180597Y-58077091D01*
X55013505Y-58244183D01*
X54877965Y-58437755D01*
X54877964Y-58437757D01*
X54778098Y-58651921D01*
X54778094Y-58651930D01*
X54716938Y-58880172D01*
X54716936Y-58880182D01*
X54696341Y-59115585D01*
X54696341Y-59115586D01*
X54716936Y-59350989D01*
X54716938Y-59350999D01*
X54778094Y-59579241D01*
X54778096Y-59579245D01*
X54778097Y-59579249D01*
X54831845Y-59694512D01*
X54877965Y-59793416D01*
X54877967Y-59793420D01*
X54944199Y-59888008D01*
X54987907Y-59950430D01*
X55013501Y-59986981D01*
X55013506Y-59986988D01*
X55180597Y-60154079D01*
X55180603Y-60154084D01*
X55366158Y-60284011D01*
X55409783Y-60338588D01*
X55416977Y-60408086D01*
X55385454Y-60470441D01*
X55366158Y-60487161D01*
X55180597Y-60617091D01*
X55013505Y-60784183D01*
X54877965Y-60977755D01*
X54877964Y-60977757D01*
X54778098Y-61191921D01*
X54778094Y-61191930D01*
X54716938Y-61420172D01*
X54716936Y-61420182D01*
X54696341Y-61655585D01*
X54696341Y-61655586D01*
X54716936Y-61890989D01*
X54716938Y-61890999D01*
X54778094Y-62119241D01*
X54778096Y-62119245D01*
X54778097Y-62119249D01*
X54831845Y-62234512D01*
X54877965Y-62333416D01*
X54877967Y-62333420D01*
X55013501Y-62526981D01*
X55013506Y-62526988D01*
X55180597Y-62694079D01*
X55180603Y-62694084D01*
X55366158Y-62824011D01*
X55409783Y-62878588D01*
X55416977Y-62948086D01*
X55385454Y-63010441D01*
X55366158Y-63027161D01*
X55180597Y-63157091D01*
X55013505Y-63324183D01*
X54877965Y-63517755D01*
X54877964Y-63517757D01*
X54778098Y-63731921D01*
X54778094Y-63731930D01*
X54716938Y-63960172D01*
X54716936Y-63960182D01*
X54696341Y-64195585D01*
X54696341Y-64195586D01*
X54716936Y-64430989D01*
X54716938Y-64430999D01*
X54778094Y-64659241D01*
X54778096Y-64659245D01*
X54778097Y-64659249D01*
X54831845Y-64774512D01*
X54877965Y-64873416D01*
X54877967Y-64873420D01*
X55013501Y-65066981D01*
X55013506Y-65066988D01*
X55180597Y-65234079D01*
X55180603Y-65234084D01*
X55366158Y-65364011D01*
X55409783Y-65418588D01*
X55416977Y-65488086D01*
X55385454Y-65550441D01*
X55366158Y-65567161D01*
X55180597Y-65697091D01*
X55013505Y-65864183D01*
X54877965Y-66057755D01*
X54877964Y-66057757D01*
X54778098Y-66271921D01*
X54778094Y-66271930D01*
X54716938Y-66500172D01*
X54716936Y-66500182D01*
X54696341Y-66735585D01*
X54696341Y-66735586D01*
X54716936Y-66970989D01*
X54716938Y-66970999D01*
X54778094Y-67199241D01*
X54778096Y-67199245D01*
X54778097Y-67199249D01*
X54831845Y-67314512D01*
X54877965Y-67413416D01*
X54877967Y-67413420D01*
X54944199Y-67508008D01*
X55013160Y-67606495D01*
X55013501Y-67606981D01*
X55013506Y-67606988D01*
X55180597Y-67774079D01*
X55180603Y-67774084D01*
X55366158Y-67904011D01*
X55409783Y-67958588D01*
X55416977Y-68028086D01*
X55385454Y-68090441D01*
X55366158Y-68107161D01*
X55180597Y-68237091D01*
X55013505Y-68404183D01*
X54877965Y-68597755D01*
X54877964Y-68597757D01*
X54778098Y-68811921D01*
X54778094Y-68811930D01*
X54716938Y-69040172D01*
X54716936Y-69040182D01*
X54696341Y-69275585D01*
X54696341Y-69275586D01*
X50792500Y-69275586D01*
X50792500Y-33643456D01*
X67141500Y-33643456D01*
X67141501Y-33643462D01*
X67147908Y-33703069D01*
X67198202Y-33837914D01*
X67198206Y-33837921D01*
X67284452Y-33953130D01*
X67284455Y-33953133D01*
X67399664Y-34039379D01*
X67399671Y-34039383D01*
X67534517Y-34089677D01*
X67534516Y-34089677D01*
X67541444Y-34090421D01*
X67594127Y-34096086D01*
X69389872Y-34096085D01*
X69449483Y-34089677D01*
X69584331Y-34039382D01*
X69699546Y-33953132D01*
X69785796Y-33837917D01*
X69835002Y-33705987D01*
X69876872Y-33650054D01*
X69942337Y-33625636D01*
X70010610Y-33640487D01*
X70038865Y-33661639D01*
X70160917Y-33783691D01*
X70354421Y-33919186D01*
X70568507Y-34019015D01*
X70568516Y-34019019D01*
X70782000Y-34076220D01*
X70782000Y-33181087D01*
X70889685Y-33230266D01*
X70996237Y-33245586D01*
X71067763Y-33245586D01*
X71174315Y-33230266D01*
X71282000Y-33181087D01*
X71282000Y-34076219D01*
X71495483Y-34019019D01*
X71495492Y-34019015D01*
X71709578Y-33919186D01*
X71903082Y-33783691D01*
X72070105Y-33616668D01*
X72200119Y-33430991D01*
X72254696Y-33387367D01*
X72324195Y-33380174D01*
X72386549Y-33411696D01*
X72403269Y-33430991D01*
X72533505Y-33616987D01*
X72700599Y-33784081D01*
X72797384Y-33851851D01*
X72894165Y-33919618D01*
X72894167Y-33919619D01*
X72894170Y-33919621D01*
X73108337Y-34019489D01*
X73336592Y-34080649D01*
X73513034Y-34096086D01*
X73571999Y-34101245D01*
X73572000Y-34101245D01*
X73572001Y-34101245D01*
X73630966Y-34096086D01*
X73807408Y-34080649D01*
X74035663Y-34019489D01*
X74249830Y-33919621D01*
X74443401Y-33784081D01*
X74610495Y-33616987D01*
X74746035Y-33423416D01*
X74845903Y-33209249D01*
X74907063Y-32980994D01*
X74927659Y-32745586D01*
X74907063Y-32510178D01*
X74845903Y-32281923D01*
X74746035Y-32067757D01*
X74740731Y-32060181D01*
X74610494Y-31874183D01*
X74443402Y-31707092D01*
X74443395Y-31707087D01*
X74249834Y-31571553D01*
X74249830Y-31571551D01*
X74249828Y-31571550D01*
X74035663Y-31471683D01*
X74035659Y-31471682D01*
X74035655Y-31471680D01*
X73807413Y-31410524D01*
X73807403Y-31410522D01*
X73572001Y-31389927D01*
X73571999Y-31389927D01*
X73336596Y-31410522D01*
X73336586Y-31410524D01*
X73108344Y-31471680D01*
X73108335Y-31471684D01*
X72894171Y-31571550D01*
X72894169Y-31571551D01*
X72700597Y-31707091D01*
X72533508Y-31874180D01*
X72403269Y-32060181D01*
X72348692Y-32103805D01*
X72279193Y-32110998D01*
X72216839Y-32079476D01*
X72200119Y-32060180D01*
X72070113Y-31874512D01*
X72070108Y-31874506D01*
X71903082Y-31707480D01*
X71709578Y-31571985D01*
X71495492Y-31472156D01*
X71495486Y-31472153D01*
X71282000Y-31414950D01*
X71282000Y-32310084D01*
X71174315Y-32260906D01*
X71067763Y-32245586D01*
X70996237Y-32245586D01*
X70889685Y-32260906D01*
X70782000Y-32310084D01*
X70782000Y-31414950D01*
X70781999Y-31414950D01*
X70568513Y-31472153D01*
X70568507Y-31472156D01*
X70354422Y-31571985D01*
X70354420Y-31571986D01*
X70160926Y-31707472D01*
X70038865Y-31829533D01*
X69977542Y-31863017D01*
X69907850Y-31858033D01*
X69851917Y-31816161D01*
X69835002Y-31785184D01*
X69785797Y-31653257D01*
X69785793Y-31653250D01*
X69699547Y-31538041D01*
X69699544Y-31538038D01*
X69584335Y-31451792D01*
X69584328Y-31451788D01*
X69449482Y-31401494D01*
X69449483Y-31401494D01*
X69389883Y-31395087D01*
X69389881Y-31395086D01*
X69389873Y-31395086D01*
X69389864Y-31395086D01*
X67594129Y-31395086D01*
X67594123Y-31395087D01*
X67534516Y-31401494D01*
X67399671Y-31451788D01*
X67399664Y-31451792D01*
X67284455Y-31538038D01*
X67284452Y-31538041D01*
X67198206Y-31653250D01*
X67198202Y-31653257D01*
X67147908Y-31788103D01*
X67141501Y-31847702D01*
X67141500Y-31847721D01*
X67141500Y-33643456D01*
X50792500Y-33643456D01*
X50792500Y-28723500D01*
X50812185Y-28656461D01*
X50864989Y-28610706D01*
X50916500Y-28599500D01*
X149375500Y-28599500D01*
X149442539Y-28619185D01*
G37*
%TD.AperFunction*%
%TD*%
M02*
