%TF.GenerationSoftware,KiCad,Pcbnew,7.0.10*%
%TF.CreationDate,2024-03-18T15:21:50-05:00*%
%TF.ProjectId,PCB_R1,5043425f-5231-42e6-9b69-6361645f7063,rev?*%
%TF.SameCoordinates,Original*%
%TF.FileFunction,Soldermask,Bot*%
%TF.FilePolarity,Negative*%
%FSLAX46Y46*%
G04 Gerber Fmt 4.6, Leading zero omitted, Abs format (unit mm)*
G04 Created by KiCad (PCBNEW 7.0.10) date 2024-03-18 15:21:50*
%MOMM*%
%LPD*%
G01*
G04 APERTURE LIST*
G04 Aperture macros list*
%AMRoundRect*
0 Rectangle with rounded corners*
0 $1 Rounding radius*
0 $2 $3 $4 $5 $6 $7 $8 $9 X,Y pos of 4 corners*
0 Add a 4 corners polygon primitive as box body*
4,1,4,$2,$3,$4,$5,$6,$7,$8,$9,$2,$3,0*
0 Add four circle primitives for the rounded corners*
1,1,$1+$1,$2,$3*
1,1,$1+$1,$4,$5*
1,1,$1+$1,$6,$7*
1,1,$1+$1,$8,$9*
0 Add four rect primitives between the rounded corners*
20,1,$1+$1,$2,$3,$4,$5,0*
20,1,$1+$1,$4,$5,$6,$7,0*
20,1,$1+$1,$6,$7,$8,$9,0*
20,1,$1+$1,$8,$9,$2,$3,0*%
G04 Aperture macros list end*
%ADD10R,1.700000X1.700000*%
%ADD11O,1.700000X1.700000*%
%ADD12RoundRect,0.250000X-0.600000X-0.600000X0.600000X-0.600000X0.600000X0.600000X-0.600000X0.600000X0*%
%ADD13C,1.700000*%
%ADD14RoundRect,1.500000X-1.500000X-1.500000X1.500000X-1.500000X1.500000X1.500000X-1.500000X1.500000X0*%
%ADD15C,6.000000*%
G04 APERTURE END LIST*
D10*
%TO.C,J9*%
X68492000Y-32745586D03*
D11*
X71032000Y-32745586D03*
X73572000Y-32745586D03*
%TD*%
D10*
%TO.C,J1*%
X97412000Y-70725586D03*
D11*
X97412000Y-68185586D03*
X97412000Y-65645586D03*
X97412000Y-63105586D03*
X97412000Y-60565586D03*
X97412000Y-58025586D03*
X97412000Y-55485586D03*
X97412000Y-52945586D03*
X97412000Y-50405586D03*
X97412000Y-47865586D03*
X97412000Y-45325586D03*
X97412000Y-42785586D03*
%TD*%
D10*
%TO.C,J6*%
X64365000Y-41825000D03*
D11*
X64365000Y-44365000D03*
X64365000Y-46905000D03*
%TD*%
D10*
%TO.C,J17*%
X108817500Y-101094500D03*
D11*
X108817500Y-98554500D03*
X108817500Y-96014500D03*
%TD*%
D10*
%TO.C,J11*%
X59692000Y-69325586D03*
D11*
X59692000Y-66785586D03*
X59692000Y-64245586D03*
X59692000Y-61705586D03*
X59692000Y-59165586D03*
X59692000Y-56625586D03*
X59692000Y-54085586D03*
X59692000Y-51545586D03*
X59692000Y-49005586D03*
X59692000Y-46465586D03*
X59692000Y-43925586D03*
X59692000Y-41385586D03*
%TD*%
D12*
%TO.C,J20*%
X96587500Y-81164500D03*
D13*
X99127500Y-81164500D03*
X96587500Y-83704500D03*
X99127500Y-83704500D03*
X96587500Y-86244500D03*
X99127500Y-86244500D03*
X96587500Y-88784500D03*
X99127500Y-88784500D03*
X96587500Y-91324500D03*
X99127500Y-91324500D03*
%TD*%
D10*
%TO.C,J18*%
X113157000Y-113134500D03*
D11*
X110617000Y-113134500D03*
X108077000Y-113134500D03*
%TD*%
D10*
%TO.C,J27*%
X56052000Y-41335586D03*
D11*
X56052000Y-43875586D03*
X56052000Y-46415586D03*
X56052000Y-48955586D03*
X56052000Y-51495586D03*
X56052000Y-54035586D03*
X56052000Y-56575586D03*
X56052000Y-59115586D03*
X56052000Y-61655586D03*
X56052000Y-64195586D03*
X56052000Y-66735586D03*
X56052000Y-69275586D03*
%TD*%
D14*
%TO.C,J2*%
X76617000Y-75695586D03*
D15*
X83817000Y-75695586D03*
%TD*%
D10*
%TO.C,J5*%
X63922000Y-68950586D03*
D11*
X63922000Y-71490586D03*
X63922000Y-74030586D03*
%TD*%
D10*
%TO.C,J12*%
X133970000Y-111912000D03*
D11*
X131430000Y-111912000D03*
X128890000Y-111912000D03*
%TD*%
D10*
%TO.C,J16*%
X104667500Y-98894500D03*
D11*
X104667500Y-96354500D03*
X104667500Y-93814500D03*
%TD*%
D10*
%TO.C,J4*%
X103807000Y-54660586D03*
D11*
X103807000Y-57200586D03*
X103807000Y-59740586D03*
%TD*%
D10*
%TO.C,J28*%
X93567000Y-42915586D03*
D11*
X93567000Y-45455586D03*
X93567000Y-47995586D03*
X93567000Y-50535586D03*
X93567000Y-53075586D03*
X93567000Y-55615586D03*
X93567000Y-58155586D03*
X93567000Y-60695586D03*
X93567000Y-63235586D03*
X93567000Y-65775586D03*
X93567000Y-68315586D03*
X93567000Y-70855586D03*
%TD*%
D10*
%TO.C,J3*%
X109287500Y-107994500D03*
D11*
X111827500Y-107994500D03*
X114367500Y-107994500D03*
%TD*%
D10*
%TO.C,J15*%
X132187500Y-82864500D03*
D11*
X132187500Y-80324500D03*
X132187500Y-77784500D03*
%TD*%
D10*
%TO.C,J10*%
X122707500Y-83324500D03*
D11*
X125247500Y-83324500D03*
X127787500Y-83324500D03*
%TD*%
D10*
%TO.C,J14*%
X145717500Y-97614500D03*
D11*
X145717500Y-100154500D03*
X145717500Y-102694500D03*
%TD*%
D10*
%TO.C,J19*%
X124206000Y-112903000D03*
D11*
X121666000Y-112903000D03*
X119126000Y-112903000D03*
%TD*%
D10*
%TO.C,J7*%
X129957500Y-92084500D03*
D11*
X132497500Y-92084500D03*
X129957500Y-89544500D03*
X132497500Y-89544500D03*
X129957500Y-87004500D03*
X132497500Y-87004500D03*
%TD*%
D10*
%TO.C,J13*%
X145542000Y-111379000D03*
D11*
X143002000Y-111379000D03*
X140462000Y-111379000D03*
%TD*%
M02*
