%TF.GenerationSoftware,KiCad,Pcbnew,7.0.10*%
%TF.CreationDate,2024-03-18T15:21:50-05:00*%
%TF.ProjectId,PCB_R1,5043425f-5231-42e6-9b69-6361645f7063,rev?*%
%TF.SameCoordinates,Original*%
%TF.FileFunction,Legend,Top*%
%TF.FilePolarity,Positive*%
%FSLAX46Y46*%
G04 Gerber Fmt 4.6, Leading zero omitted, Abs format (unit mm)*
G04 Created by KiCad (PCBNEW 7.0.10) date 2024-03-18 15:21:50*
%MOMM*%
%LPD*%
G01*
G04 APERTURE LIST*
%ADD10C,0.120000*%
G04 APERTURE END LIST*
D10*
%TO.C,R8*%
X67092000Y-91289323D02*
X67092000Y-89841849D01*
X69802000Y-91289323D02*
X69802000Y-89841849D01*
%TO.C,J9*%
X69762000Y-34075586D02*
X74902000Y-34075586D01*
X69762000Y-34075586D02*
X69762000Y-31415586D01*
X74902000Y-34075586D02*
X74902000Y-31415586D01*
X67162000Y-32745586D02*
X67162000Y-31415586D01*
X67162000Y-31415586D02*
X68492000Y-31415586D01*
X69762000Y-31415586D02*
X74902000Y-31415586D01*
%TO.C,R10*%
X126615000Y-88116758D02*
X126615000Y-87642242D01*
X127660000Y-88116758D02*
X127660000Y-87642242D01*
%TO.C,J1*%
X98742000Y-69455586D02*
X98742000Y-41455586D01*
X98742000Y-69455586D02*
X96082000Y-69455586D01*
X98742000Y-41455586D02*
X96082000Y-41455586D01*
X97412000Y-72055586D02*
X96082000Y-72055586D01*
X96082000Y-72055586D02*
X96082000Y-70725586D01*
X96082000Y-69455586D02*
X96082000Y-41455586D01*
%TO.C,R1*%
X80990737Y-67340586D02*
X79543263Y-67340586D01*
X80990737Y-64630586D02*
X79543263Y-64630586D01*
%TO.C,J6*%
X63035000Y-43095000D02*
X63035000Y-48235000D01*
X63035000Y-43095000D02*
X65695000Y-43095000D01*
X63035000Y-48235000D02*
X65695000Y-48235000D01*
X64365000Y-40495000D02*
X65695000Y-40495000D01*
X65695000Y-40495000D02*
X65695000Y-41825000D01*
X65695000Y-43095000D02*
X65695000Y-48235000D01*
%TO.C,L1*%
X66652000Y-52623522D02*
X66652000Y-53827650D01*
X63932000Y-52623522D02*
X63932000Y-53827650D01*
%TO.C,J17*%
X110147500Y-99824500D02*
X110147500Y-94684500D01*
X110147500Y-99824500D02*
X107487500Y-99824500D01*
X110147500Y-94684500D02*
X107487500Y-94684500D01*
X108817500Y-102424500D02*
X107487500Y-102424500D01*
X107487500Y-102424500D02*
X107487500Y-101094500D01*
X107487500Y-99824500D02*
X107487500Y-94684500D01*
%TO.C,R7*%
X62993263Y-91350586D02*
X64440737Y-91350586D01*
X62993263Y-94060586D02*
X64440737Y-94060586D01*
%TO.C,J11*%
X61022000Y-68055586D02*
X61022000Y-40055586D01*
X61022000Y-68055586D02*
X58362000Y-68055586D01*
X61022000Y-40055586D02*
X58362000Y-40055586D01*
X59692000Y-70655586D02*
X58362000Y-70655586D01*
X58362000Y-70655586D02*
X58362000Y-69325586D01*
X58362000Y-68055586D02*
X58362000Y-40055586D01*
%TO.C,C11*%
X79097000Y-40673422D02*
X79097000Y-40457750D01*
X79817000Y-40673422D02*
X79817000Y-40457750D01*
%TO.C,D2*%
X68235000Y-85422500D02*
X71405000Y-85422500D01*
X71405000Y-85422500D02*
X71405000Y-81362500D01*
X68235000Y-81362500D02*
X68235000Y-85422500D01*
%TO.C,C8*%
X71152000Y-52711834D02*
X71152000Y-54134338D01*
X68432000Y-52711834D02*
X68432000Y-54134338D01*
%TO.C,R11*%
X134905000Y-88116758D02*
X134905000Y-87642242D01*
X135950000Y-88116758D02*
X135950000Y-87642242D01*
%TO.C,U2*%
X78482000Y-52220586D02*
X78482000Y-52910586D01*
X78482000Y-52910586D02*
X73357000Y-52910586D01*
X78482000Y-61930586D02*
X77382000Y-61930586D01*
X78482000Y-62620586D02*
X78482000Y-61930586D01*
X79982000Y-52220586D02*
X78482000Y-52220586D01*
X79982000Y-62620586D02*
X78482000Y-62620586D01*
%TO.C,U1*%
X113472500Y-99994500D02*
X114422500Y-99994500D01*
X114422500Y-99994500D02*
X114422500Y-101334500D01*
X123692500Y-99994500D02*
X122742500Y-99994500D01*
X113472500Y-99044500D02*
X113472500Y-99994500D01*
X123692500Y-99044500D02*
X123692500Y-99994500D01*
X113472500Y-90724500D02*
X113472500Y-89774500D01*
X123692500Y-90724500D02*
X123692500Y-89774500D01*
X113472500Y-89774500D02*
X114422500Y-89774500D01*
X123692500Y-89774500D02*
X122742500Y-89774500D01*
%TO.C,R18*%
X105219758Y-81807000D02*
X104745242Y-81807000D01*
X105219758Y-80762000D02*
X104745242Y-80762000D01*
%TO.C,C1*%
X77127000Y-43543422D02*
X77127000Y-43327750D01*
X77847000Y-43543422D02*
X77847000Y-43327750D01*
%TO.C,C13*%
X83037000Y-40673422D02*
X83037000Y-40457750D01*
X83757000Y-40673422D02*
X83757000Y-40457750D01*
%TO.C,R17*%
X105079758Y-84417000D02*
X104605242Y-84417000D01*
X105079758Y-83372000D02*
X104605242Y-83372000D01*
%TO.C,C16*%
X85007000Y-40673422D02*
X85007000Y-40457750D01*
X85727000Y-40673422D02*
X85727000Y-40457750D01*
%TO.C,R13*%
X114440000Y-72002242D02*
X114440000Y-72476758D01*
X113395000Y-72002242D02*
X113395000Y-72476758D01*
%TO.C,R19*%
X105169758Y-88287000D02*
X104695242Y-88287000D01*
X105169758Y-87242000D02*
X104695242Y-87242000D01*
%TO.C,R6*%
X63797000Y-59649323D02*
X63797000Y-58201849D01*
X66507000Y-59649323D02*
X66507000Y-58201849D01*
%TO.C,D1*%
X73822000Y-46080586D02*
X73822000Y-49250586D01*
X73822000Y-49250586D02*
X77882000Y-49250586D01*
X77882000Y-46080586D02*
X73822000Y-46080586D01*
%TO.C,C14*%
X68213248Y-65925586D02*
X69635752Y-65925586D01*
X68213248Y-68645586D02*
X69635752Y-68645586D01*
%TO.C,J20*%
X91907500Y-80664500D02*
X91907500Y-81664500D01*
X91907500Y-81664500D02*
X92907500Y-81164500D01*
X92907500Y-81164500D02*
X91907500Y-80664500D01*
X93297500Y-75954500D02*
X102417500Y-75954500D01*
X93297500Y-84194500D02*
X94607500Y-84194500D01*
X93297500Y-96534500D02*
X93297500Y-75954500D01*
X94607500Y-77254500D02*
X101107500Y-77254500D01*
X94607500Y-84194500D02*
X94607500Y-77254500D01*
X94607500Y-88294500D02*
X93297500Y-88294500D01*
X94607500Y-88294500D02*
X94607500Y-88294500D01*
X94607500Y-95234500D02*
X94607500Y-88294500D01*
X101107500Y-77254500D02*
X101107500Y-95234500D01*
X101107500Y-95234500D02*
X94607500Y-95234500D01*
X102417500Y-75954500D02*
X102417500Y-96534500D01*
X102417500Y-96534500D02*
X93297500Y-96534500D01*
%TO.C,J18*%
X111887000Y-111804500D02*
X106747000Y-111804500D01*
X111887000Y-111804500D02*
X111887000Y-114464500D01*
X106747000Y-111804500D02*
X106747000Y-114464500D01*
X114487000Y-113134500D02*
X114487000Y-114464500D01*
X114487000Y-114464500D02*
X113157000Y-114464500D01*
X111887000Y-114464500D02*
X106747000Y-114464500D01*
%TO.C,C12*%
X81067000Y-40673422D02*
X81067000Y-40457750D01*
X81787000Y-40673422D02*
X81787000Y-40457750D01*
%TO.C,SW1*%
X95497500Y-111494500D02*
X95497500Y-105194500D01*
X95747500Y-111494500D02*
X95497500Y-111494500D01*
X100247500Y-111494500D02*
X97647500Y-111494500D01*
X102397500Y-111494500D02*
X102147500Y-111494500D01*
X95497500Y-105194500D02*
X95747500Y-105194500D01*
X97647500Y-105194500D02*
X100247500Y-105194500D01*
X102147500Y-105194500D02*
X102397500Y-105194500D01*
X102397500Y-105194500D02*
X102397500Y-111494500D01*
%TO.C,J27*%
X54722000Y-42605586D02*
X54722000Y-70605586D01*
X54722000Y-42605586D02*
X57382000Y-42605586D01*
X54722000Y-70605586D02*
X57382000Y-70605586D01*
X56052000Y-40005586D02*
X57382000Y-40005586D01*
X57382000Y-40005586D02*
X57382000Y-41335586D01*
X57382000Y-42605586D02*
X57382000Y-70605586D01*
%TO.C,J2*%
X72367000Y-74095586D02*
X72367000Y-77245586D01*
X72367000Y-77245586D02*
X75217000Y-79845586D01*
X75217000Y-71545586D02*
X72367000Y-74095586D01*
X75217000Y-79845586D02*
X88067000Y-79845586D01*
X88067000Y-71545586D02*
X75217000Y-71545586D01*
X88067000Y-79845586D02*
X88067000Y-71545586D01*
%TO.C,R3*%
X77660737Y-98790586D02*
X76213263Y-98790586D01*
X77660737Y-96080586D02*
X76213263Y-96080586D01*
%TO.C,R2*%
X75505737Y-67920586D02*
X74058263Y-67920586D01*
X75505737Y-65210586D02*
X74058263Y-65210586D01*
%TO.C,C5*%
X85007000Y-43543422D02*
X85007000Y-43327750D01*
X85727000Y-43543422D02*
X85727000Y-43327750D01*
%TO.C,J21*%
X119077500Y-67974500D02*
X118697500Y-67974500D01*
X119077500Y-66204500D02*
X119077500Y-67974500D01*
X119077500Y-63664500D02*
X119077500Y-63924500D01*
X111457500Y-67974500D02*
X111837500Y-67974500D01*
X111457500Y-67974500D02*
X111457500Y-66204500D01*
X111457500Y-63924500D02*
X111457500Y-63664500D01*
%TO.C,R9*%
X100085242Y-101382000D02*
X100559758Y-101382000D01*
X100085242Y-102427000D02*
X100559758Y-102427000D01*
%TO.C,J5*%
X62592000Y-70220586D02*
X62592000Y-75360586D01*
X62592000Y-70220586D02*
X65252000Y-70220586D01*
X62592000Y-75360586D02*
X65252000Y-75360586D01*
X63922000Y-67620586D02*
X65252000Y-67620586D01*
X65252000Y-67620586D02*
X65252000Y-68950586D01*
X65252000Y-70220586D02*
X65252000Y-75360586D01*
%TO.C,D3*%
X119257500Y-71384500D02*
X117957500Y-71384500D01*
X117957500Y-74504500D02*
X119957500Y-74504500D01*
%TO.C,R5*%
X68838263Y-61420586D02*
X70285737Y-61420586D01*
X68838263Y-64130586D02*
X70285737Y-64130586D01*
%TO.C,J12*%
X132700000Y-110582000D02*
X127560000Y-110582000D01*
X132700000Y-110582000D02*
X132700000Y-113242000D01*
X127560000Y-110582000D02*
X127560000Y-113242000D01*
X135300000Y-111912000D02*
X135300000Y-113242000D01*
X135300000Y-113242000D02*
X133970000Y-113242000D01*
X132700000Y-113242000D02*
X127560000Y-113242000D01*
%TO.C,J16*%
X105997500Y-97624500D02*
X105997500Y-92484500D01*
X105997500Y-97624500D02*
X103337500Y-97624500D01*
X105997500Y-92484500D02*
X103337500Y-92484500D01*
X104667500Y-100224500D02*
X103337500Y-100224500D01*
X103337500Y-100224500D02*
X103337500Y-98894500D01*
X103337500Y-97624500D02*
X103337500Y-92484500D01*
%TO.C,R15*%
X116220000Y-72012242D02*
X116220000Y-72486758D01*
X115175000Y-72012242D02*
X115175000Y-72486758D01*
%TO.C,U3*%
X77857000Y-83830586D02*
X77857000Y-84520586D01*
X77857000Y-84520586D02*
X72732000Y-84520586D01*
X77857000Y-93540586D02*
X76757000Y-93540586D01*
X77857000Y-94230586D02*
X77857000Y-93540586D01*
X79357000Y-83830586D02*
X77857000Y-83830586D01*
X79357000Y-94230586D02*
X77857000Y-94230586D01*
%TO.C,C15*%
X66263248Y-76730586D02*
X67685752Y-76730586D01*
X66263248Y-79450586D02*
X67685752Y-79450586D01*
%TO.C,C18*%
X100583080Y-99244500D02*
X100301920Y-99244500D01*
X100583080Y-98224500D02*
X100301920Y-98224500D01*
%TO.C,C10*%
X77127000Y-40673422D02*
X77127000Y-40457750D01*
X77847000Y-40673422D02*
X77847000Y-40457750D01*
%TO.C,J4*%
X102477000Y-55930586D02*
X102477000Y-61070586D01*
X102477000Y-55930586D02*
X105137000Y-55930586D01*
X102477000Y-61070586D02*
X105137000Y-61070586D01*
X103807000Y-53330586D02*
X105137000Y-53330586D01*
X105137000Y-53330586D02*
X105137000Y-54660586D01*
X105137000Y-55930586D02*
X105137000Y-61070586D01*
%TO.C,C7*%
X73737000Y-41936166D02*
X73737000Y-41655006D01*
X74757000Y-41936166D02*
X74757000Y-41655006D01*
%TO.C,R4*%
X76233263Y-99390586D02*
X77680737Y-99390586D01*
X76233263Y-102100586D02*
X77680737Y-102100586D01*
%TO.C,C3*%
X81067000Y-43543422D02*
X81067000Y-43327750D01*
X81787000Y-43543422D02*
X81787000Y-43327750D01*
%TO.C,J28*%
X92237000Y-44185586D02*
X92237000Y-72185586D01*
X92237000Y-44185586D02*
X94897000Y-44185586D01*
X92237000Y-72185586D02*
X94897000Y-72185586D01*
X93567000Y-41585586D02*
X94897000Y-41585586D01*
X94897000Y-41585586D02*
X94897000Y-42915586D01*
X94897000Y-44185586D02*
X94897000Y-72185586D01*
%TO.C,J3*%
X110557500Y-109324500D02*
X115697500Y-109324500D01*
X110557500Y-109324500D02*
X110557500Y-106664500D01*
X115697500Y-109324500D02*
X115697500Y-106664500D01*
X107957500Y-107994500D02*
X107957500Y-106664500D01*
X107957500Y-106664500D02*
X109287500Y-106664500D01*
X110557500Y-106664500D02*
X115697500Y-106664500D01*
%TO.C,R12*%
X119414758Y-70347000D02*
X118940242Y-70347000D01*
X119414758Y-69302000D02*
X118940242Y-69302000D01*
%TO.C,J15*%
X133517500Y-81594500D02*
X133517500Y-76454500D01*
X133517500Y-81594500D02*
X130857500Y-81594500D01*
X133517500Y-76454500D02*
X130857500Y-76454500D01*
X132187500Y-84194500D02*
X130857500Y-84194500D01*
X130857500Y-84194500D02*
X130857500Y-82864500D01*
X130857500Y-81594500D02*
X130857500Y-76454500D01*
%TO.C,C2*%
X79097000Y-43543422D02*
X79097000Y-43327750D01*
X79817000Y-43543422D02*
X79817000Y-43327750D01*
%TO.C,C9*%
X63707000Y-84981834D02*
X63707000Y-86404338D01*
X60987000Y-84981834D02*
X60987000Y-86404338D01*
%TO.C,L2*%
X64910000Y-83612064D02*
X64910000Y-82407936D01*
X67630000Y-83612064D02*
X67630000Y-82407936D01*
%TO.C,C17*%
X139356248Y-96374500D02*
X140778752Y-96374500D01*
X139356248Y-99094500D02*
X140778752Y-99094500D01*
%TO.C,C4*%
X83037000Y-43543422D02*
X83037000Y-43327750D01*
X83757000Y-43543422D02*
X83757000Y-43327750D01*
%TO.C,C6*%
X86697000Y-42051166D02*
X86697000Y-41770006D01*
X87717000Y-42051166D02*
X87717000Y-41770006D01*
%TO.C,J10*%
X123977500Y-84654500D02*
X129117500Y-84654500D01*
X123977500Y-84654500D02*
X123977500Y-81994500D01*
X129117500Y-84654500D02*
X129117500Y-81994500D01*
X121377500Y-83324500D02*
X121377500Y-81994500D01*
X121377500Y-81994500D02*
X122707500Y-81994500D01*
X123977500Y-81994500D02*
X129117500Y-81994500D01*
%TO.C,J14*%
X144387500Y-98884500D02*
X144387500Y-104024500D01*
X144387500Y-98884500D02*
X147047500Y-98884500D01*
X144387500Y-104024500D02*
X147047500Y-104024500D01*
X145717500Y-96284500D02*
X147047500Y-96284500D01*
X147047500Y-96284500D02*
X147047500Y-97614500D01*
X147047500Y-98884500D02*
X147047500Y-104024500D01*
%TO.C,J19*%
X122936000Y-111573000D02*
X117796000Y-111573000D01*
X122936000Y-111573000D02*
X122936000Y-114233000D01*
X117796000Y-111573000D02*
X117796000Y-114233000D01*
X125536000Y-112903000D02*
X125536000Y-114233000D01*
X125536000Y-114233000D02*
X124206000Y-114233000D01*
X122936000Y-114233000D02*
X117796000Y-114233000D01*
%TO.C,J7*%
X133827500Y-93414500D02*
X133827500Y-85674500D01*
X133827500Y-93414500D02*
X131227500Y-93414500D01*
X133827500Y-85674500D02*
X128627500Y-85674500D01*
X131227500Y-93414500D02*
X131227500Y-90814500D01*
X131227500Y-90814500D02*
X128627500Y-90814500D01*
X129957500Y-93414500D02*
X128627500Y-93414500D01*
X128627500Y-93414500D02*
X128627500Y-92084500D01*
X128627500Y-90814500D02*
X128627500Y-85674500D01*
%TO.C,JP1*%
X89470000Y-83135000D02*
X89470000Y-80335000D01*
X91470000Y-83135000D02*
X89470000Y-83135000D01*
X89470000Y-80335000D02*
X91470000Y-80335000D01*
X91470000Y-80335000D02*
X91470000Y-83135000D01*
%TO.C,J13*%
X144272000Y-110049000D02*
X139132000Y-110049000D01*
X144272000Y-110049000D02*
X144272000Y-112709000D01*
X139132000Y-110049000D02*
X139132000Y-112709000D01*
X146872000Y-111379000D02*
X146872000Y-112709000D01*
X146872000Y-112709000D02*
X145542000Y-112709000D01*
X144272000Y-112709000D02*
X139132000Y-112709000D01*
%TD*%
M02*
