%TF.GenerationSoftware,KiCad,Pcbnew,7.0.10*%
%TF.CreationDate,2024-03-18T15:21:50-05:00*%
%TF.ProjectId,PCB_R1,5043425f-5231-42e6-9b69-6361645f7063,rev?*%
%TF.SameCoordinates,Original*%
%TF.FileFunction,Paste,Top*%
%TF.FilePolarity,Positive*%
%FSLAX46Y46*%
G04 Gerber Fmt 4.6, Leading zero omitted, Abs format (unit mm)*
G04 Created by KiCad (PCBNEW 7.0.10) date 2024-03-18 15:21:50*
%MOMM*%
%LPD*%
G01*
G04 APERTURE LIST*
G04 Aperture macros list*
%AMRoundRect*
0 Rectangle with rounded corners*
0 $1 Rounding radius*
0 $2 $3 $4 $5 $6 $7 $8 $9 X,Y pos of 4 corners*
0 Add a 4 corners polygon primitive as box body*
4,1,4,$2,$3,$4,$5,$6,$7,$8,$9,$2,$3,0*
0 Add four circle primitives for the rounded corners*
1,1,$1+$1,$2,$3*
1,1,$1+$1,$4,$5*
1,1,$1+$1,$6,$7*
1,1,$1+$1,$8,$9*
0 Add four rect primitives between the rounded corners*
20,1,$1+$1,$2,$3,$4,$5,0*
20,1,$1+$1,$4,$5,$6,$7,0*
20,1,$1+$1,$6,$7,$8,$9,0*
20,1,$1+$1,$8,$9,$2,$3,0*%
G04 Aperture macros list end*
%ADD10RoundRect,0.250000X1.075000X-0.400000X1.075000X0.400000X-1.075000X0.400000X-1.075000X-0.400000X0*%
%ADD11RoundRect,0.200000X0.275000X-0.200000X0.275000X0.200000X-0.275000X0.200000X-0.275000X-0.200000X0*%
%ADD12RoundRect,0.250000X0.400000X1.075000X-0.400000X1.075000X-0.400000X-1.075000X0.400000X-1.075000X0*%
%ADD13RoundRect,0.250000X-1.075000X0.375000X-1.075000X-0.375000X1.075000X-0.375000X1.075000X0.375000X0*%
%ADD14RoundRect,0.250000X-0.400000X-1.075000X0.400000X-1.075000X0.400000X1.075000X-0.400000X1.075000X0*%
%ADD15RoundRect,0.140000X0.170000X-0.140000X0.170000X0.140000X-0.170000X0.140000X-0.170000X-0.140000X0*%
%ADD16RoundRect,0.250001X1.074999X-0.462499X1.074999X0.462499X-1.074999X0.462499X-1.074999X-0.462499X0*%
%ADD17RoundRect,0.250000X-1.100000X0.412500X-1.100000X-0.412500X1.100000X-0.412500X1.100000X0.412500X0*%
%ADD18RoundRect,0.200000X-2.100000X-0.200000X2.100000X-0.200000X2.100000X0.200000X-2.100000X0.200000X0*%
%ADD19RoundRect,0.250000X-2.025000X-2.375000X2.025000X-2.375000X2.025000X2.375000X-2.025000X2.375000X0*%
%ADD20RoundRect,0.075000X0.075000X-0.700000X0.075000X0.700000X-0.075000X0.700000X-0.075000X-0.700000X0*%
%ADD21RoundRect,0.075000X0.700000X-0.075000X0.700000X0.075000X-0.700000X0.075000X-0.700000X-0.075000X0*%
%ADD22RoundRect,0.200000X0.200000X0.275000X-0.200000X0.275000X-0.200000X-0.275000X0.200000X-0.275000X0*%
%ADD23RoundRect,0.200000X-0.275000X0.200000X-0.275000X-0.200000X0.275000X-0.200000X0.275000X0.200000X0*%
%ADD24RoundRect,0.250001X-0.462499X-1.074999X0.462499X-1.074999X0.462499X1.074999X-0.462499X1.074999X0*%
%ADD25RoundRect,0.250000X-0.412500X-1.100000X0.412500X-1.100000X0.412500X1.100000X-0.412500X1.100000X0*%
%ADD26R,1.300000X1.550000*%
%ADD27R,0.450000X1.380000*%
%ADD28R,1.650000X1.300000*%
%ADD29R,1.425000X1.550000*%
%ADD30R,1.800000X1.900000*%
%ADD31R,1.000000X1.900000*%
%ADD32RoundRect,0.200000X-0.200000X-0.275000X0.200000X-0.275000X0.200000X0.275000X-0.200000X0.275000X0*%
%ADD33R,0.700000X1.000000*%
%ADD34R,0.700000X0.600000*%
%ADD35RoundRect,0.225000X0.225000X0.250000X-0.225000X0.250000X-0.225000X-0.250000X0.225000X-0.250000X0*%
%ADD36RoundRect,0.225000X0.250000X-0.225000X0.250000X0.225000X-0.250000X0.225000X-0.250000X-0.225000X0*%
%ADD37RoundRect,0.250000X1.075000X-0.375000X1.075000X0.375000X-1.075000X0.375000X-1.075000X-0.375000X0*%
G04 APERTURE END LIST*
D10*
%TO.C,R8*%
X68447000Y-92115586D03*
X68447000Y-89015586D03*
%TD*%
D11*
%TO.C,R10*%
X127137500Y-88704500D03*
X127137500Y-87054500D03*
%TD*%
D12*
%TO.C,R1*%
X81817000Y-65985586D03*
X78717000Y-65985586D03*
%TD*%
D13*
%TO.C,L1*%
X65292000Y-51825586D03*
X65292000Y-54625586D03*
%TD*%
D14*
%TO.C,R7*%
X62167000Y-92705586D03*
X65267000Y-92705586D03*
%TD*%
D15*
%TO.C,C11*%
X79457000Y-41045586D03*
X79457000Y-40085586D03*
%TD*%
D16*
%TO.C,D2*%
X69820000Y-84450000D03*
X69820000Y-81475000D03*
%TD*%
D17*
%TO.C,C8*%
X69792000Y-51860586D03*
X69792000Y-54985586D03*
%TD*%
D11*
%TO.C,R11*%
X135427500Y-88704500D03*
X135427500Y-87054500D03*
%TD*%
D18*
%TO.C,U2*%
X75657000Y-53610586D03*
X75657000Y-54880586D03*
X75657000Y-56150586D03*
X75657000Y-57420586D03*
X75657000Y-58690586D03*
X75657000Y-59960586D03*
X75657000Y-61230586D03*
D19*
X82382000Y-54645586D03*
X82382000Y-60195586D03*
X87232000Y-54645586D03*
X87232000Y-60195586D03*
%TD*%
D20*
%TO.C,U1*%
X114832500Y-100559500D03*
X115332500Y-100559500D03*
X115832500Y-100559500D03*
X116332500Y-100559500D03*
X116832500Y-100559500D03*
X117332500Y-100559500D03*
X117832500Y-100559500D03*
X118332500Y-100559500D03*
X118832500Y-100559500D03*
X119332500Y-100559500D03*
X119832500Y-100559500D03*
X120332500Y-100559500D03*
X120832500Y-100559500D03*
X121332500Y-100559500D03*
X121832500Y-100559500D03*
X122332500Y-100559500D03*
D21*
X124257500Y-98634500D03*
X124257500Y-98134500D03*
X124257500Y-97634500D03*
X124257500Y-97134500D03*
X124257500Y-96634500D03*
X124257500Y-96134500D03*
X124257500Y-95634500D03*
X124257500Y-95134500D03*
X124257500Y-94634500D03*
X124257500Y-94134500D03*
X124257500Y-93634500D03*
X124257500Y-93134500D03*
X124257500Y-92634500D03*
X124257500Y-92134500D03*
X124257500Y-91634500D03*
X124257500Y-91134500D03*
D20*
X122332500Y-89209500D03*
X121832500Y-89209500D03*
X121332500Y-89209500D03*
X120832500Y-89209500D03*
X120332500Y-89209500D03*
X119832500Y-89209500D03*
X119332500Y-89209500D03*
X118832500Y-89209500D03*
X118332500Y-89209500D03*
X117832500Y-89209500D03*
X117332500Y-89209500D03*
X116832500Y-89209500D03*
X116332500Y-89209500D03*
X115832500Y-89209500D03*
X115332500Y-89209500D03*
X114832500Y-89209500D03*
D21*
X112907500Y-91134500D03*
X112907500Y-91634500D03*
X112907500Y-92134500D03*
X112907500Y-92634500D03*
X112907500Y-93134500D03*
X112907500Y-93634500D03*
X112907500Y-94134500D03*
X112907500Y-94634500D03*
X112907500Y-95134500D03*
X112907500Y-95634500D03*
X112907500Y-96134500D03*
X112907500Y-96634500D03*
X112907500Y-97134500D03*
X112907500Y-97634500D03*
X112907500Y-98134500D03*
X112907500Y-98634500D03*
%TD*%
D22*
%TO.C,R18*%
X105807500Y-81284500D03*
X104157500Y-81284500D03*
%TD*%
D15*
%TO.C,C1*%
X77487000Y-43915586D03*
X77487000Y-42955586D03*
%TD*%
%TO.C,C13*%
X83397000Y-41045586D03*
X83397000Y-40085586D03*
%TD*%
D22*
%TO.C,R17*%
X105667500Y-83894500D03*
X104017500Y-83894500D03*
%TD*%
D15*
%TO.C,C16*%
X85367000Y-41045586D03*
X85367000Y-40085586D03*
%TD*%
D23*
%TO.C,R13*%
X113917500Y-71414500D03*
X113917500Y-73064500D03*
%TD*%
D22*
%TO.C,R19*%
X105757500Y-87764500D03*
X104107500Y-87764500D03*
%TD*%
D10*
%TO.C,R6*%
X65152000Y-60475586D03*
X65152000Y-57375586D03*
%TD*%
D24*
%TO.C,D1*%
X74794500Y-47665586D03*
X77769500Y-47665586D03*
%TD*%
D25*
%TO.C,C14*%
X67362000Y-67285586D03*
X70487000Y-67285586D03*
%TD*%
D15*
%TO.C,C12*%
X81427000Y-41045586D03*
X81427000Y-40085586D03*
%TD*%
D26*
%TO.C,SW1*%
X96697500Y-112319500D03*
X96697500Y-104369500D03*
X101197500Y-112319500D03*
X101197500Y-104369500D03*
%TD*%
D12*
%TO.C,R3*%
X78487000Y-97435586D03*
X75387000Y-97435586D03*
%TD*%
%TO.C,R2*%
X76332000Y-66565586D03*
X73232000Y-66565586D03*
%TD*%
D15*
%TO.C,C5*%
X85367000Y-43915586D03*
X85367000Y-42955586D03*
%TD*%
D27*
%TO.C,J21*%
X116567500Y-67724500D03*
X115917500Y-67724500D03*
X115267500Y-67724500D03*
X114617500Y-67724500D03*
X113967500Y-67724500D03*
D28*
X118642500Y-65064500D03*
D29*
X117755000Y-67639500D03*
D30*
X116417500Y-65064500D03*
D31*
X113717500Y-65064500D03*
D29*
X112780000Y-67639500D03*
D28*
X111892500Y-65064500D03*
%TD*%
D32*
%TO.C,R9*%
X99497500Y-101904500D03*
X101147500Y-101904500D03*
%TD*%
D33*
%TO.C,D3*%
X119607500Y-73694500D03*
D34*
X119607500Y-71994500D03*
X117607500Y-71994500D03*
X117607500Y-73894500D03*
%TD*%
D14*
%TO.C,R5*%
X68012000Y-62775586D03*
X71112000Y-62775586D03*
%TD*%
D23*
%TO.C,R15*%
X115697500Y-71424500D03*
X115697500Y-73074500D03*
%TD*%
D18*
%TO.C,U3*%
X75032000Y-85220586D03*
X75032000Y-86490586D03*
X75032000Y-87760586D03*
X75032000Y-89030586D03*
X75032000Y-90300586D03*
X75032000Y-91570586D03*
X75032000Y-92840586D03*
D19*
X81757000Y-86255586D03*
X81757000Y-91805586D03*
X86607000Y-86255586D03*
X86607000Y-91805586D03*
%TD*%
D25*
%TO.C,C15*%
X65412000Y-78090586D03*
X68537000Y-78090586D03*
%TD*%
D35*
%TO.C,C18*%
X101217500Y-98734500D03*
X99667500Y-98734500D03*
%TD*%
D15*
%TO.C,C10*%
X77487000Y-41045586D03*
X77487000Y-40085586D03*
%TD*%
D36*
%TO.C,C7*%
X74247000Y-42570586D03*
X74247000Y-41020586D03*
%TD*%
D14*
%TO.C,R4*%
X75407000Y-100745586D03*
X78507000Y-100745586D03*
%TD*%
D15*
%TO.C,C3*%
X81427000Y-43915586D03*
X81427000Y-42955586D03*
%TD*%
D22*
%TO.C,R12*%
X120002500Y-69824500D03*
X118352500Y-69824500D03*
%TD*%
D15*
%TO.C,C2*%
X79457000Y-43915586D03*
X79457000Y-42955586D03*
%TD*%
D17*
%TO.C,C9*%
X62347000Y-84130586D03*
X62347000Y-87255586D03*
%TD*%
D37*
%TO.C,L2*%
X66270000Y-84410000D03*
X66270000Y-81610000D03*
%TD*%
D25*
%TO.C,C17*%
X138505000Y-97734500D03*
X141630000Y-97734500D03*
%TD*%
D15*
%TO.C,C4*%
X83397000Y-43915586D03*
X83397000Y-42955586D03*
%TD*%
D36*
%TO.C,C6*%
X87207000Y-42685586D03*
X87207000Y-41135586D03*
%TD*%
M02*
